<svg width="789" height="31" viewBox="0 0 789 31" fill="none" xmlns="http://www.w3.org/2000/svg">
<path d="M16.25 23.518C15.756 21.854 14.898 18.786 13.988 14.73C12.974 10.31 12.48 7.424 12.246 5.89C12.246 5.812 12.22 5.76 12.22 5.708C12.22 4.798 13.286 4.538 13.286 4.538H7.228C7.228 4.538 8.242 4.954 8.242 5.604C8.242 6.8 7.254 9.972 5.902 14.652C4.732 18.682 3.666 21.698 3.068 23.362C2.782 24.194 1.3 25 1.3 25H5.538C5.538 25 4.29 24.61 4.29 23.752C4.29 23.674 4.29 23.57 4.316 23.492L9.256 5.942C9.724 7.502 10.556 10.414 11.544 14.73C12.454 18.708 13.234 21.776 13.234 23.518C13.234 24.35 11.96 25 11.96 25H17.446C17.446 25 16.562 24.558 16.25 23.518ZM22.6184 24.272C22.6184 24.272 22.9044 24.506 23.0864 24.61C23.5544 24.87 24.0224 24.974 24.4904 24.974C25.2964 24.974 26.0504 24.662 26.5704 24.246C27.8964 23.18 29.0144 21.074 32.0044 14.626C33.8764 10.596 34.8384 8.672 36.0084 6.046C36.3464 5.292 37.7764 4.538 37.7764 4.538H33.6424C33.6424 4.538 34.7344 4.824 34.7344 5.578C34.7344 5.682 34.7084 5.812 34.6564 5.942C33.0704 9.582 30.8084 14.236 29.3264 17.408C28.5464 15.926 28.1564 14.964 27.5064 13.534C25.8684 9.946 24.3084 5.994 24.3084 5.994C24.2824 5.89 24.2564 5.786 24.2564 5.708C24.2564 5.032 25.1924 4.538 25.1924 4.538H19.7844C19.7844 4.538 20.7724 4.876 21.2924 5.864C22.0724 7.268 23.3984 9.842 25.0884 13.534C26.3624 16.316 27.1684 18.266 27.9744 20.242C26.2324 23.856 24.2044 24.35 23.2164 24.35C22.8264 24.35 22.6184 24.272 22.6184 24.272ZM51.8284 24.974H57.4184C57.4184 24.974 56.2484 24.428 56.1964 23.57C56.1964 23.57 55.8844 18.812 55.8844 14.782C55.8844 10.466 56.0404 7.58 56.1704 6.02V5.994C56.2744 5.136 57.4184 4.538 57.4184 4.538L51.8284 4.512C51.8284 4.512 53.0244 4.928 53.1024 6.02C53.2064 7.476 53.3624 10.076 53.3884 13.976C52.4264 15.224 50.7624 16.082 48.8904 16.082C45.9524 16.082 43.7164 14.704 43.7164 12.234C43.7164 12.234 43.8724 7.086 43.9244 6.02C43.9764 5.084 45.2764 4.512 45.2764 4.512L39.8684 4.538C39.8684 4.538 41.0124 4.928 41.0904 5.994C41.1424 6.93 41.1944 8.438 41.1944 10.96C41.1684 10.986 41.1684 11.012 41.1684 11.012C41.1684 14.886 44.4184 17.304 48.4224 17.304C50.3464 17.304 52.0884 16.654 53.3884 15.588C53.3624 19.28 53.1804 22.036 53.0764 23.57C52.9984 24.662 51.8284 24.974 51.8284 24.974ZM85.4372 25C85.4372 25 84.2672 24.428 84.2152 23.57C84.2152 23.57 83.9292 18.812 83.9292 14.756C83.9292 10.44 84.1892 5.968 84.1892 5.968C84.2672 5.11 85.4372 4.538 85.4372 4.538H79.9512C79.9512 4.538 81.1212 4.876 81.1992 5.968C81.3292 7.528 81.4852 10.414 81.4852 14.756C81.4852 18.838 81.1992 23.622 81.1212 23.856C80.6272 24.038 77.4292 24.09 74.2312 24.116C74.1272 23.96 73.7372 18.812 73.7372 14.756C73.7372 10.44 74.0232 5.994 74.0232 5.994C74.1012 5.136 75.2452 4.538 75.2452 4.538H69.7852C69.7852 4.538 70.9292 4.902 71.0072 5.994C71.1372 7.554 71.2932 10.414 71.2932 14.756C71.2932 18.838 70.9292 23.96 70.8512 24.116H67.4972C65.7292 24.116 64.4032 24.09 64.1172 23.986C64.0652 23.856 64.0132 23.726 64.0132 23.57C63.8832 21.906 63.7272 18.812 63.7272 14.756C63.7272 10.44 64.0132 5.994 64.0132 5.994C64.0912 5.136 65.2352 4.538 65.2352 4.538H59.7752C59.7752 4.538 60.9192 4.902 60.9972 5.994C61.1272 7.554 61.2832 10.414 61.2832 14.756C61.2832 18.838 61.1012 21.932 60.9712 23.57C60.8932 24.662 59.7492 25 59.7492 25H85.4372ZM88.7165 24.038C88.6125 24.506 87.7805 24.974 87.7805 24.974H97.6085C100.286 24.974 102.21 25.312 102.21 25.312C102.21 25.312 101.898 24.012 101.742 22.972C101.586 21.672 101.56 19.358 101.56 19.358C101.56 19.358 100.494 24.142 97.4525 24.168H91.7845C91.6805 22.92 91.4725 20.008 91.4465 15.198H95.3985C97.5045 15.276 98.0765 16.628 98.0765 16.628V12.884C98.0765 12.884 97.5825 14.236 95.3725 14.288L91.4465 14.314C91.4725 10.024 91.6545 6.852 91.7845 5.396L97.4265 5.396C100.494 5.396 101.56 10.128 101.56 10.128C101.56 10.128 101.586 7.84 101.742 6.514C101.898 5.474 102.21 4.2 102.21 4.2C102.21 4.2 100.286 4.538 97.6085 4.538L87.7805 4.538C87.7805 4.538 88.6125 4.928 88.6645 5.396C88.7945 6.878 89.0025 10.154 89.0025 14.704C89.0025 19.826 88.8205 22.764 88.7165 24.038ZM105.474 24.038C105.37 24.506 104.538 24.974 104.538 24.974H114.366C117.044 24.974 118.968 25.312 118.968 25.312C118.968 25.312 118.656 24.012 118.5 22.972C118.344 21.672 118.318 19.358 118.318 19.358C118.318 19.358 117.252 24.142 114.21 24.168H108.542C108.438 22.92 108.23 20.008 108.204 15.198H112.156C114.262 15.276 114.834 16.628 114.834 16.628V12.884C114.834 12.884 114.34 14.236 112.13 14.288L108.204 14.314C108.23 10.024 108.412 6.852 108.542 5.396H114.184C117.252 5.396 118.318 10.128 118.318 10.128C118.318 10.128 118.344 7.84 118.5 6.514C118.656 5.474 118.968 4.2 118.968 4.2C118.968 4.2 117.044 4.538 114.366 4.538H104.538C104.538 4.538 105.37 4.928 105.422 5.396C105.552 6.878 105.76 10.154 105.76 14.704C105.76 19.826 105.578 22.764 105.474 24.038ZM132.419 24.168L137.541 5.916C138.009 7.476 138.841 10.388 139.829 14.73C140.895 19.41 141.441 22.764 141.649 24.168H132.419ZM131.067 24.168H128.831V29.966C128.831 29.966 129.897 25.13 132.835 24.974H142.949C145.913 25.13 146.979 29.966 146.979 29.966V24.168H144.769C144.327 22.764 143.339 19.41 142.273 14.73C141.259 10.31 140.791 7.424 140.557 5.89C140.557 5.812 140.531 5.76 140.531 5.708C140.531 4.798 141.571 4.538 141.571 4.538H135.539C135.851 4.694 136.501 5.214 136.501 5.708C136.501 7.112 135.487 10.18 134.187 14.574C132.757 19.488 131.535 22.894 131.067 24.168ZM164.017 23.518C163.523 21.854 162.665 18.786 161.755 14.73C160.741 10.31 160.247 7.424 160.013 5.89C160.013 5.812 159.987 5.76 159.987 5.708C159.987 4.798 161.053 4.538 161.053 4.538L154.995 4.538C154.995 4.538 156.009 4.954 156.009 5.604C156.009 6.8 155.021 9.972 153.669 14.652C152.499 18.682 151.433 21.698 150.835 23.362C150.549 24.194 149.067 25 149.067 25H153.305C153.305 25 152.057 24.61 152.057 23.752C152.057 23.674 152.057 23.57 152.083 23.492L157.023 5.942C157.491 7.502 158.323 10.414 159.311 14.73C160.221 18.708 161.001 21.776 161.001 23.518C161.001 24.35 159.727 25 159.727 25H165.213C165.213 25 164.329 24.558 164.017 23.518ZM173.486 9.738C173.486 7.502 175.228 5.5 177.438 5.396C177.698 5.37 177.958 5.37 178.244 5.37C178.946 5.37 179.7 5.422 180.35 5.474C180.48 5.656 180.584 5.864 180.61 6.098C180.766 7.294 180.792 9.608 180.792 12.182V14.132H177.568C175.332 14.132 173.486 11.974 173.486 9.738ZM183.496 23.414C183.366 21.828 183.236 18.994 183.236 14.756C183.236 10.752 183.392 7.71 183.522 6.046C183.626 5.006 184.822 4.538 184.822 4.538H181.728L176.632 4.512C173.746 4.512 171.406 6.852 171.406 9.738C171.406 12.468 173.486 14.704 176.164 14.912L170.002 22.608L169.95 22.66C168.754 24.324 167.038 24.948 167.038 24.948L173.122 24.974C173.122 24.974 171.978 24.61 171.978 23.986C171.978 23.882 172.004 23.726 172.108 23.596L179.024 14.964L180.792 14.99C180.792 18.916 180.636 21.672 180.532 23.258C180.454 24.142 179.258 24.974 179.258 24.974H184.744C184.744 24.974 183.6 24.48 183.496 23.414ZM195.916 5.422C196.15 6.748 196.202 9.894 196.202 14.782C196.202 19.696 196.02 22.686 195.89 24.064C195.838 24.506 194.98 24.974 194.98 24.974H204.106C207.096 24.974 209.514 22.582 209.514 19.592C209.514 16.784 207.356 14.47 204.6 14.21C206.134 13.3 207.148 11.636 207.148 9.738C207.148 6.852 204.808 4.486 201.922 4.486L196.852 4.538H194.954C194.954 4.538 195.838 5.006 195.916 5.422ZM207.356 19.592C207.356 21.906 205.432 24.142 203.118 24.142C201.974 24.142 200.336 24.012 198.958 23.908C198.828 22.504 198.646 19.618 198.646 15.042C199.244 15.042 199.92 15.016 200.596 15.016C201.558 15.016 202.52 15.042 203.222 15.068C205.536 15.172 207.356 17.278 207.356 19.592ZM201.116 5.37C203.326 5.474 205.068 7.502 205.068 9.738C205.068 11.974 203.222 14.132 200.986 14.132H198.646C198.672 9.92 198.88 6.826 198.984 5.422C199.504 5.396 200.05 5.37 200.57 5.37H201.116ZM217.142 14.314L219.508 5.864C219.95 7.346 220.756 10.154 221.718 14.314H217.142ZM211.604 24.974H215.816C215.816 24.974 214.542 24.584 214.542 23.726C214.542 23.648 214.542 23.544 214.568 23.466L216.882 15.172H221.926C222.758 18.942 223.512 21.88 223.512 23.544C223.512 24.376 222.238 24.974 222.238 24.974H227.724C227.724 24.974 226.866 24.584 226.554 23.544C226.06 21.88 225.176 18.812 224.266 14.756C223.252 10.336 222.784 7.45 222.55 5.916C222.55 5.838 222.524 5.786 222.524 5.734C222.524 4.824 223.564 4.538 223.564 4.538H217.532C217.532 4.538 218.468 4.98 218.468 5.37C218.468 5.396 218.468 5.422 218.468 5.422C216.882 12.312 215.166 18.396 213.32 23.362C212.956 24.324 211.604 24.974 211.604 24.974ZM230.893 11.246C231.283 8.282 233.753 5.838 236.847 5.162C237.393 5.032 237.939 4.98 238.485 4.98C240.903 4.98 243.165 6.124 244.621 7.97L243.685 4.278C243.607 4.486 243.113 4.59 243.009 4.538C241.735 3.992 240.331 3.706 238.901 3.706C238.121 3.706 237.315 3.784 236.535 3.966C231.465 5.084 227.981 9.582 227.981 14.574C227.981 15.328 228.085 16.108 228.241 16.888C229.359 21.958 233.857 25.442 238.849 25.442C239.603 25.442 240.383 25.338 241.163 25.182C242.593 24.87 243.893 24.298 245.011 23.518C245.219 23.362 245.479 23.284 245.609 23.336L246.181 19.956C245.167 21.958 243.295 23.492 240.929 24.012C240.357 24.142 239.785 24.194 239.239 24.194C236.613 24.194 234.195 22.868 232.791 20.71C232.141 19.696 231.309 17.928 230.971 16.342C230.789 15.458 230.711 14.626 230.711 13.768C230.711 12.936 230.789 12.104 230.893 11.246ZM557.477 23.518C556.983 21.854 556.125 18.786 555.215 14.73C554.201 10.31 553.707 7.424 553.473 5.89C553.473 5.812 553.447 5.76 553.447 5.708C553.447 4.798 554.513 4.538 554.513 4.538H548.455C548.455 4.538 549.469 4.954 549.469 5.604C549.469 6.8 548.481 9.972 547.129 14.652C545.959 18.682 544.893 21.698 544.295 23.362C544.009 24.194 542.527 25 542.527 25H546.765C546.765 25 545.517 24.61 545.517 23.752C545.517 23.674 545.517 23.57 545.543 23.492L550.483 5.942C550.951 7.502 551.783 10.414 552.771 14.73C553.681 18.708 554.461 21.776 554.461 23.518C554.461 24.35 553.187 25 553.187 25H558.673C558.673 25 557.789 24.558 557.477 23.518ZM563.845 24.272C563.845 24.272 564.131 24.506 564.313 24.61C564.781 24.87 565.249 24.974 565.717 24.974C566.523 24.974 567.277 24.662 567.797 24.246C569.123 23.18 570.241 21.074 573.231 14.626C575.103 10.596 576.065 8.672 577.235 6.046C577.573 5.292 579.003 4.538 579.003 4.538H574.869C574.869 4.538 575.961 4.824 575.961 5.578C575.961 5.682 575.935 5.812 575.883 5.942C574.297 9.582 572.035 14.236 570.553 17.408C569.773 15.926 569.383 14.964 568.733 13.534C567.095 9.946 565.535 5.994 565.535 5.994C565.509 5.89 565.483 5.786 565.483 5.708C565.483 5.032 566.419 4.538 566.419 4.538H561.011C561.011 4.538 561.999 4.876 562.519 5.864C563.299 7.268 564.625 9.842 566.315 13.534C567.589 16.316 568.395 18.266 569.201 20.242C567.459 23.856 565.431 24.35 564.443 24.35C564.053 24.35 563.845 24.272 563.845 24.272ZM593.055 24.974H598.645C598.645 24.974 597.475 24.428 597.423 23.57C597.423 23.57 597.111 18.812 597.111 14.782C597.111 10.466 597.267 7.58 597.397 6.02V5.994C597.501 5.136 598.645 4.538 598.645 4.538L593.055 4.512C593.055 4.512 594.251 4.928 594.329 6.02C594.433 7.476 594.589 10.076 594.615 13.976C593.653 15.224 591.989 16.082 590.117 16.082C587.179 16.082 584.943 14.704 584.943 12.234C584.943 12.234 585.099 7.086 585.151 6.02C585.203 5.084 586.503 4.512 586.503 4.512L581.095 4.538C581.095 4.538 582.239 4.928 582.317 5.994C582.369 6.93 582.421 8.438 582.421 10.96C582.395 10.986 582.395 11.012 582.395 11.012C582.395 14.886 585.645 17.304 589.649 17.304C591.573 17.304 593.315 16.654 594.615 15.588C594.589 19.28 594.407 22.036 594.303 23.57C594.225 24.662 593.055 24.974 593.055 24.974ZM626.664 25C626.664 25 625.494 24.428 625.442 23.57C625.442 23.57 625.156 18.812 625.156 14.756C625.156 10.44 625.416 5.968 625.416 5.968C625.494 5.11 626.664 4.538 626.664 4.538H621.178C621.178 4.538 622.348 4.876 622.426 5.968C622.556 7.528 622.712 10.414 622.712 14.756C622.712 18.838 622.426 23.622 622.348 23.856C621.854 24.038 618.656 24.09 615.458 24.116C615.354 23.96 614.964 18.812 614.964 14.756C614.964 10.44 615.25 5.994 615.25 5.994C615.328 5.136 616.472 4.538 616.472 4.538H611.012C611.012 4.538 612.156 4.902 612.234 5.994C612.364 7.554 612.52 10.414 612.52 14.756C612.52 18.838 612.156 23.96 612.078 24.116H608.724C606.956 24.116 605.63 24.09 605.344 23.986C605.292 23.856 605.24 23.726 605.24 23.57C605.11 21.906 604.954 18.812 604.954 14.756C604.954 10.44 605.24 5.994 605.24 5.994C605.318 5.136 606.462 4.538 606.462 4.538H601.002C601.002 4.538 602.146 4.902 602.224 5.994C602.354 7.554 602.51 10.414 602.51 14.756C602.51 18.838 602.328 21.932 602.198 23.57C602.12 24.662 600.976 25 600.976 25H626.664ZM629.943 24.038C629.839 24.506 629.007 24.974 629.007 24.974H638.835C641.513 24.974 643.437 25.312 643.437 25.312C643.437 25.312 643.125 24.012 642.969 22.972C642.813 21.672 642.787 19.358 642.787 19.358C642.787 19.358 641.721 24.142 638.679 24.168H633.011C632.907 22.92 632.699 20.008 632.673 15.198H636.625C638.731 15.276 639.303 16.628 639.303 16.628V12.884C639.303 12.884 638.809 14.236 636.599 14.288L632.673 14.314C632.699 10.024 632.881 6.852 633.011 5.396H638.653C641.721 5.396 642.787 10.128 642.787 10.128C642.787 10.128 642.813 7.84 642.969 6.514C643.125 5.474 643.437 4.2 643.437 4.2C643.437 4.2 641.513 4.538 638.835 4.538H629.007C629.007 4.538 629.839 4.928 629.891 5.396C630.021 6.878 630.229 10.154 630.229 14.704C630.229 19.826 630.047 22.764 629.943 24.038ZM646.701 24.038C646.597 24.506 645.765 24.974 645.765 24.974H655.593C658.271 24.974 660.195 25.312 660.195 25.312C660.195 25.312 659.883 24.012 659.727 22.972C659.571 21.672 659.545 19.358 659.545 19.358C659.545 19.358 658.479 24.142 655.437 24.168H649.769C649.665 22.92 649.457 20.008 649.431 15.198H653.383C655.489 15.276 656.061 16.628 656.061 16.628V12.884C656.061 12.884 655.567 14.236 653.357 14.288L649.431 14.314C649.457 10.024 649.639 6.852 649.769 5.396H655.411C658.479 5.396 659.545 10.128 659.545 10.128C659.545 10.128 659.571 7.84 659.727 6.514C659.883 5.474 660.195 4.2 660.195 4.2C660.195 4.2 658.271 4.538 655.593 4.538H645.765C645.765 4.538 646.597 4.928 646.649 5.396C646.779 6.878 646.987 10.154 646.987 14.704C646.987 19.826 646.805 22.764 646.701 24.038ZM673.646 24.168L678.768 5.916C679.236 7.476 680.068 10.388 681.056 14.73C682.122 19.41 682.668 22.764 682.876 24.168H673.646ZM672.294 24.168H670.058V29.966C670.058 29.966 671.124 25.13 674.062 24.974H684.176C687.14 25.13 688.206 29.966 688.206 29.966V24.168H685.996C685.554 22.764 684.566 19.41 683.5 14.73C682.486 10.31 682.018 7.424 681.784 5.89C681.784 5.812 681.758 5.76 681.758 5.708C681.758 4.798 682.798 4.538 682.798 4.538H676.766C677.078 4.694 677.728 5.214 677.728 5.708C677.728 7.112 676.714 10.18 675.414 14.574C673.984 19.488 672.762 22.894 672.294 24.168ZM705.244 23.518C704.75 21.854 703.892 18.786 702.982 14.73C701.968 10.31 701.474 7.424 701.24 5.89C701.24 5.812 701.214 5.76 701.214 5.708C701.214 4.798 702.28 4.538 702.28 4.538H696.222C696.222 4.538 697.236 4.954 697.236 5.604C697.236 6.8 696.248 9.972 694.896 14.652C693.726 18.682 692.66 21.698 692.062 23.362C691.776 24.194 690.294 25 690.294 25H694.532C694.532 25 693.284 24.61 693.284 23.752C693.284 23.674 693.284 23.57 693.31 23.492L698.25 5.942C698.718 7.502 699.55 10.414 700.538 14.73C701.448 18.708 702.228 21.776 702.228 23.518C702.228 24.35 700.954 25 700.954 25H706.44C706.44 25 705.556 24.558 705.244 23.518ZM714.712 9.738C714.712 7.502 716.454 5.5 718.664 5.396C718.924 5.37 719.184 5.37 719.47 5.37C720.172 5.37 720.926 5.422 721.576 5.474C721.706 5.656 721.81 5.864 721.836 6.098C721.992 7.294 722.018 9.608 722.018 12.182V14.132H718.794C716.558 14.132 714.712 11.974 714.712 9.738ZM724.722 23.414C724.592 21.828 724.462 18.994 724.462 14.756C724.462 10.752 724.618 7.71 724.748 6.046C724.852 5.006 726.048 4.538 726.048 4.538H722.954L717.858 4.512C714.972 4.512 712.632 6.852 712.632 9.738C712.632 12.468 714.712 14.704 717.39 14.912L711.228 22.608L711.176 22.66C709.98 24.324 708.264 24.948 708.264 24.948L714.348 24.974C714.348 24.974 713.204 24.61 713.204 23.986C713.204 23.882 713.23 23.726 713.334 23.596L720.25 14.964L722.018 14.99C722.018 18.916 721.862 21.672 721.758 23.258C721.68 24.142 720.484 24.974 720.484 24.974H725.97C725.97 24.974 724.826 24.48 724.722 23.414ZM737.143 5.422C737.377 6.748 737.429 9.894 737.429 14.782C737.429 19.696 737.247 22.686 737.117 24.064C737.065 24.506 736.207 24.974 736.207 24.974H745.333C748.323 24.974 750.741 22.582 750.741 19.592C750.741 16.784 748.583 14.47 745.827 14.21C747.361 13.3 748.375 11.636 748.375 9.738C748.375 6.852 746.035 4.486 743.149 4.486L738.079 4.538H736.181C736.181 4.538 737.065 5.006 737.143 5.422ZM748.583 19.592C748.583 21.906 746.659 24.142 744.345 24.142C743.201 24.142 741.563 24.012 740.185 23.908C740.055 22.504 739.873 19.618 739.873 15.042C740.471 15.042 741.147 15.016 741.823 15.016C742.785 15.016 743.747 15.042 744.449 15.068C746.763 15.172 748.583 17.278 748.583 19.592ZM742.343 5.37C744.553 5.474 746.295 7.502 746.295 9.738C746.295 11.974 744.449 14.132 742.213 14.132H739.873C739.899 9.92 740.107 6.826 740.211 5.422C740.731 5.396 741.277 5.37 741.797 5.37H742.343ZM758.369 14.314L760.735 5.864C761.177 7.346 761.983 10.154 762.945 14.314H758.369ZM752.831 24.974H757.043C757.043 24.974 755.769 24.584 755.769 23.726C755.769 23.648 755.769 23.544 755.795 23.466L758.109 15.172H763.153C763.985 18.942 764.739 21.88 764.739 23.544C764.739 24.376 763.465 24.974 763.465 24.974H768.951C768.951 24.974 768.093 24.584 767.781 23.544C767.287 21.88 766.403 18.812 765.493 14.756C764.479 10.336 764.011 7.45 763.777 5.916C763.777 5.838 763.751 5.786 763.751 5.734C763.751 4.824 764.791 4.538 764.791 4.538H758.759C758.759 4.538 759.695 4.98 759.695 5.37C759.695 5.396 759.695 5.422 759.695 5.422C758.109 12.312 756.393 18.396 754.547 23.362C754.183 24.324 752.831 24.974 752.831 24.974ZM772.12 11.246C772.51 8.282 774.98 5.838 778.074 5.162C778.62 5.032 779.166 4.98 779.712 4.98C782.13 4.98 784.392 6.124 785.848 7.97L784.912 4.278C784.834 4.486 784.34 4.59 784.236 4.538C782.962 3.992 781.558 3.706 780.128 3.706C779.348 3.706 778.542 3.784 777.762 3.966C772.692 5.084 769.208 9.582 769.208 14.574C769.208 15.328 769.312 16.108 769.468 16.888C770.586 21.958 775.084 25.442 780.076 25.442C780.83 25.442 781.61 25.338 782.39 25.182C783.82 24.87 785.12 24.298 786.238 23.518C786.446 23.362 786.706 23.284 786.836 23.336L787.408 19.956C786.394 21.958 784.522 23.492 782.156 24.012C781.584 24.142 781.012 24.194 780.466 24.194C777.84 24.194 775.422 22.868 774.018 20.71C773.368 19.696 772.536 17.928 772.198 16.342C772.016 15.458 771.938 14.626 771.938 13.768C771.938 12.936 772.016 12.104 772.12 11.246Z" fill="white"/>
<path d="M286.863 23.518C286.369 21.854 285.511 18.786 284.601 14.73C283.587 10.31 283.093 7.424 282.859 5.89C282.859 5.812 282.833 5.76 282.833 5.708C282.833 4.798 283.899 4.538 283.899 4.538H277.841C277.841 4.538 278.855 4.954 278.855 5.604C278.855 6.8 277.867 9.972 276.515 14.652C275.345 18.682 274.279 21.698 273.681 23.362C273.395 24.194 271.913 25 271.913 25H276.151C276.151 25 274.903 24.61 274.903 23.752C274.903 23.674 274.903 23.57 274.929 23.492L279.869 5.942C280.337 7.502 281.169 10.414 282.157 14.73C283.067 18.708 283.847 21.776 283.847 23.518C283.847 24.35 282.573 25 282.573 25H288.059C288.059 25 287.175 24.558 286.863 23.518ZM293.232 24.272C293.232 24.272 293.518 24.506 293.7 24.61C294.168 24.87 294.636 24.974 295.104 24.974C295.91 24.974 296.664 24.662 297.184 24.246C298.51 23.18 299.628 21.074 302.618 14.626C304.49 10.596 305.452 8.672 306.622 6.046C306.96 5.292 308.39 4.538 308.39 4.538H304.256C304.256 4.538 305.348 4.824 305.348 5.578C305.348 5.682 305.322 5.812 305.27 5.942C303.684 9.582 301.422 14.236 299.94 17.408C299.16 15.926 298.77 14.964 298.12 13.534C296.482 9.946 294.922 5.994 294.922 5.994C294.896 5.89 294.87 5.786 294.87 5.708C294.87 5.032 295.806 4.538 295.806 4.538H290.398C290.398 4.538 291.386 4.876 291.906 5.864C292.686 7.268 294.012 9.842 295.702 13.534C296.976 16.316 297.782 18.266 298.588 20.242C296.846 23.856 294.818 24.35 293.83 24.35C293.44 24.35 293.232 24.272 293.232 24.272ZM322.442 24.974H328.032C328.032 24.974 326.862 24.428 326.81 23.57C326.81 23.57 326.498 18.812 326.498 14.782C326.498 10.466 326.654 7.58 326.784 6.02V5.994C326.888 5.136 328.032 4.538 328.032 4.538L322.442 4.512C322.442 4.512 323.638 4.928 323.716 6.02C323.82 7.476 323.976 10.076 324.002 13.976C323.04 15.224 321.376 16.082 319.504 16.082C316.566 16.082 314.33 14.704 314.33 12.234C314.33 12.234 314.486 7.086 314.538 6.02C314.59 5.084 315.89 4.512 315.89 4.512L310.482 4.538C310.482 4.538 311.626 4.928 311.704 5.994C311.756 6.93 311.808 8.438 311.808 10.96C311.782 10.986 311.782 11.012 311.782 11.012C311.782 14.886 315.032 17.304 319.036 17.304C320.96 17.304 322.702 16.654 324.002 15.588C323.976 19.28 323.794 22.036 323.69 23.57C323.612 24.662 322.442 24.974 322.442 24.974ZM356.051 25C356.051 25 354.881 24.428 354.829 23.57C354.829 23.57 354.543 18.812 354.543 14.756C354.543 10.44 354.803 5.968 354.803 5.968C354.881 5.11 356.051 4.538 356.051 4.538L350.565 4.538C350.565 4.538 351.735 4.876 351.813 5.968C351.943 7.528 352.099 10.414 352.099 14.756C352.099 18.838 351.813 23.622 351.735 23.856C351.241 24.038 348.043 24.09 344.845 24.116C344.741 23.96 344.35 18.812 344.35 14.756C344.35 10.44 344.637 5.994 344.637 5.994C344.715 5.136 345.859 4.538 345.859 4.538H340.399C340.399 4.538 341.543 4.902 341.621 5.994C341.751 7.554 341.907 10.414 341.907 14.756C341.907 18.838 341.543 23.96 341.465 24.116H338.111C336.343 24.116 335.017 24.09 334.731 23.986C334.679 23.856 334.627 23.726 334.627 23.57C334.497 21.906 334.341 18.812 334.341 14.756C334.341 10.44 334.627 5.994 334.627 5.994C334.705 5.136 335.849 4.538 335.849 4.538H330.389C330.389 4.538 331.533 4.902 331.611 5.994C331.741 7.554 331.897 10.414 331.897 14.756C331.897 18.838 331.715 21.932 331.585 23.57C331.507 24.662 330.363 25 330.363 25H356.051ZM359.33 24.038C359.226 24.506 358.394 24.974 358.394 24.974H368.222C370.9 24.974 372.824 25.312 372.824 25.312C372.824 25.312 372.512 24.012 372.356 22.972C372.2 21.672 372.174 19.358 372.174 19.358C372.174 19.358 371.108 24.142 368.066 24.168H362.398C362.294 22.92 362.086 20.008 362.06 15.198H366.012C368.118 15.276 368.69 16.628 368.69 16.628V12.884C368.69 12.884 368.196 14.236 365.986 14.288L362.06 14.314C362.086 10.024 362.268 6.852 362.398 5.396H368.04C371.108 5.396 372.174 10.128 372.174 10.128C372.174 10.128 372.2 7.84 372.356 6.514C372.512 5.474 372.824 4.2 372.824 4.2C372.824 4.2 370.9 4.538 368.222 4.538H358.394C358.394 4.538 359.226 4.928 359.278 5.396C359.408 6.878 359.616 10.154 359.616 14.704C359.616 19.826 359.434 22.764 359.33 24.038ZM376.088 24.038C375.984 24.506 375.152 24.974 375.152 24.974L384.98 24.974C387.658 24.974 389.582 25.312 389.582 25.312C389.582 25.312 389.27 24.012 389.114 22.972C388.958 21.672 388.932 19.358 388.932 19.358C388.932 19.358 387.866 24.142 384.824 24.168L379.156 24.168C379.052 22.92 378.844 20.008 378.818 15.198H382.77C384.876 15.276 385.448 16.628 385.448 16.628V12.884C385.448 12.884 384.954 14.236 382.744 14.288L378.818 14.314C378.844 10.024 379.026 6.852 379.156 5.396H384.798C387.866 5.396 388.932 10.128 388.932 10.128C388.932 10.128 388.958 7.84 389.114 6.514C389.27 5.474 389.582 4.2 389.582 4.2C389.582 4.2 387.658 4.538 384.98 4.538H375.152C375.152 4.538 375.984 4.928 376.036 5.396C376.166 6.878 376.374 10.154 376.374 14.704C376.374 19.826 376.192 22.764 376.088 24.038ZM403.032 24.168L408.154 5.916C408.622 7.476 409.454 10.388 410.442 14.73C411.508 19.41 412.054 22.764 412.262 24.168H403.032ZM401.68 24.168H399.444V29.966C399.444 29.966 400.51 25.13 403.448 24.974H413.562C416.526 25.13 417.592 29.966 417.592 29.966V24.168H415.382C414.94 22.764 413.952 19.41 412.886 14.73C411.872 10.31 411.404 7.424 411.17 5.89C411.17 5.812 411.144 5.76 411.144 5.708C411.144 4.798 412.184 4.538 412.184 4.538H406.152C406.464 4.694 407.114 5.214 407.114 5.708C407.114 7.112 406.1 10.18 404.8 14.574C403.37 19.488 402.148 22.894 401.68 24.168ZM434.631 23.518C434.137 21.854 433.279 18.786 432.369 14.73C431.355 10.31 430.861 7.424 430.627 5.89C430.627 5.812 430.601 5.76 430.601 5.708C430.601 4.798 431.667 4.538 431.667 4.538H425.609C425.609 4.538 426.623 4.954 426.623 5.604C426.623 6.8 425.635 9.972 424.283 14.652C423.113 18.682 422.047 21.698 421.449 23.362C421.163 24.194 419.681 25 419.681 25H423.919C423.919 25 422.671 24.61 422.671 23.752C422.671 23.674 422.671 23.57 422.697 23.492L427.637 5.942C428.105 7.502 428.937 10.414 429.925 14.73C430.835 18.708 431.615 21.776 431.615 23.518C431.615 24.35 430.341 25 430.341 25H435.827C435.827 25 434.943 24.558 434.631 23.518ZM444.099 9.738C444.099 7.502 445.841 5.5 448.051 5.396C448.311 5.37 448.571 5.37 448.857 5.37C449.559 5.37 450.313 5.422 450.963 5.474C451.093 5.656 451.197 5.864 451.223 6.098C451.379 7.294 451.405 9.608 451.405 12.182V14.132H448.181C445.945 14.132 444.099 11.974 444.099 9.738ZM454.109 23.414C453.979 21.828 453.849 18.994 453.849 14.756C453.849 10.752 454.005 7.71 454.135 6.046C454.239 5.006 455.435 4.538 455.435 4.538H452.341L447.245 4.512C444.359 4.512 442.019 6.852 442.019 9.738C442.019 12.468 444.099 14.704 446.777 14.912L440.615 22.608L440.563 22.66C439.367 24.324 437.651 24.948 437.651 24.948L443.735 24.974C443.735 24.974 442.591 24.61 442.591 23.986C442.591 23.882 442.617 23.726 442.721 23.596L449.637 14.964L451.405 14.99C451.405 18.916 451.249 21.672 451.145 23.258C451.067 24.142 449.871 24.974 449.871 24.974H455.357C455.357 24.974 454.213 24.48 454.109 23.414ZM466.53 5.422C466.764 6.748 466.816 9.894 466.816 14.782C466.816 19.696 466.634 22.686 466.504 24.064C466.452 24.506 465.594 24.974 465.594 24.974H474.72C477.71 24.974 480.128 22.582 480.128 19.592C480.128 16.784 477.97 14.47 475.214 14.21C476.748 13.3 477.762 11.636 477.762 9.738C477.762 6.852 475.422 4.486 472.536 4.486L467.466 4.538H465.568C465.568 4.538 466.452 5.006 466.53 5.422ZM477.97 19.592C477.97 21.906 476.046 24.142 473.732 24.142C472.588 24.142 470.95 24.012 469.572 23.908C469.442 22.504 469.26 19.618 469.26 15.042C469.858 15.042 470.534 15.016 471.21 15.016C472.172 15.016 473.134 15.042 473.836 15.068C476.15 15.172 477.97 17.278 477.97 19.592ZM471.73 5.37C473.94 5.474 475.682 7.502 475.682 9.738C475.682 11.974 473.836 14.132 471.6 14.132H469.26C469.286 9.92 469.494 6.826 469.598 5.422C470.118 5.396 470.664 5.37 471.184 5.37H471.73ZM487.756 14.314L490.122 5.864C490.564 7.346 491.37 10.154 492.332 14.314H487.756ZM482.218 24.974H486.43C486.43 24.974 485.156 24.584 485.156 23.726C485.156 23.648 485.156 23.544 485.182 23.466L487.496 15.172H492.54C493.372 18.942 494.126 21.88 494.126 23.544C494.126 24.376 492.852 24.974 492.852 24.974H498.338C498.338 24.974 497.48 24.584 497.168 23.544C496.674 21.88 495.79 18.812 494.88 14.756C493.866 10.336 493.398 7.45 493.164 5.916C493.164 5.838 493.138 5.786 493.138 5.734C493.138 4.824 494.178 4.538 494.178 4.538H488.146C488.146 4.538 489.082 4.98 489.082 5.37C489.082 5.396 489.082 5.422 489.082 5.422C487.496 12.312 485.78 18.396 483.934 23.362C483.57 24.324 482.218 24.974 482.218 24.974ZM501.507 11.246C501.897 8.282 504.367 5.838 507.461 5.162C508.007 5.032 508.553 4.98 509.099 4.98C511.517 4.98 513.779 6.124 515.235 7.97L514.299 4.278C514.221 4.486 513.727 4.59 513.623 4.538C512.349 3.992 510.945 3.706 509.515 3.706C508.735 3.706 507.929 3.784 507.149 3.966C502.079 5.084 498.595 9.582 498.595 14.574C498.595 15.328 498.699 16.108 498.855 16.888C499.973 21.958 504.471 25.442 509.463 25.442C510.217 25.442 510.997 25.338 511.777 25.182C513.207 24.87 514.507 24.298 515.625 23.518C515.833 23.362 516.093 23.284 516.223 23.336L516.795 19.956C515.781 21.958 513.909 23.492 511.543 24.012C510.971 24.142 510.399 24.194 509.853 24.194C507.227 24.194 504.809 22.868 503.405 20.71C502.755 19.696 501.923 17.928 501.585 16.342C501.403 15.458 501.325 14.626 501.325 13.768C501.325 12.936 501.403 12.104 501.507 11.246Z" fill="#DBBC9A"/>
<path d="M264 15C261.23 15 259 17.2297 259 20C259 17.2297 256.77 15 254 15C256.77 15 259 12.7703 259.068 10C259 12.7703 261.23 15 264 15Z" fill="#C4A27A"/>
<path d="M535 15C532.23 15 530 17.2297 530 20C530 17.2297 527.77 15 525 15C527.77 15 530 12.7703 530.068 10C530 12.7703 532.23 15 535 15Z" fill="#C4A27A"/>
</svg>
