<svg width="294" height="138" viewBox="0 0 294 138" fill="none" xmlns="http://www.w3.org/2000/svg">
<path d="M27.596 3.828C27.74 2.604 29.36 1.668 29.36 1.668H21.8C21.8 1.668 23.42 2.316 23.564 3.756C23.744 6.06 23.96 10.236 23.96 15.78C23.96 21.648 23.78 25.572 23.6 27.768C23.456 29.244 21.836 29.964 21.836 29.964H29.504C29.504 29.964 27.812 28.776 27.704 27.552C27.56 25.536 27.38 22.224 27.344 17.508L37.82 27.984C38.072 28.236 38.18 28.488 38.18 28.704C38.18 29.496 36.812 29.964 36.812 29.964H45.236C45.236 29.964 43.076 29.244 41.096 27.3C37.892 24.132 28.352 14.52 28.352 14.52L38.72 4.116C40.772 2.208 42.5 1.668 42.5 1.668H36.488C36.488 1.668 37.208 1.992 37.208 2.64C37.208 2.856 37.1 3.144 36.848 3.468L27.344 12.972C27.344 9.12 27.38 5.628 27.596 3.828ZM52.0836 10.992C52.8396 7.212 56.0436 3.54 60.3276 2.604C61.0476 2.46 61.7676 2.388 62.4876 2.388C66.0156 2.388 69.3276 4.224 71.3436 6.816C72.6756 8.544 73.6476 10.956 74.1516 13.332C74.3676 14.412 74.4756 15.672 74.4756 16.824C74.4756 17.976 74.4036 19.092 74.2596 19.884C73.6476 23.916 70.4076 27.696 65.9796 28.668C65.2596 28.812 64.5396 28.884 63.8196 28.884C60.0756 28.884 56.5116 26.868 54.7116 24.06C53.8476 22.692 52.6596 20.244 52.1916 18.048C51.9396 16.788 51.7956 15.456 51.7956 14.16C51.7956 13.008 51.9036 11.928 52.0836 10.992ZM48.4116 18.804C49.9956 26.58 55.8996 30.648 62.5956 30.648C63.8196 30.648 65.0436 30.54 66.3036 30.252C73.3236 28.74 78.1116 22.512 78.1116 15.6C78.1116 14.556 78.0036 13.476 77.7516 12.396C76.2396 5.376 69.9756 0.587999 63.0636 0.587999C61.9836 0.587999 60.9396 0.696 59.8596 0.947999C53.8476 2.244 48.1236 8.508 48.1236 15.888C48.1236 16.824 48.1956 17.832 48.4116 18.804ZM95.6439 15.78C94.2399 9.66 93.5919 5.664 93.2679 3.54C93.2679 3.432 93.2319 3.36 93.2319 3.288C93.2319 2.028 94.6719 1.668 94.6719 1.668H86.3199C86.3199 1.668 87.6879 2.316 87.6879 3.18C87.6879 3.252 87.6519 3.288 87.6519 3.36C87.2559 5.34 86.2119 9.372 84.4839 15.312C82.7919 21.108 81.2799 25.392 80.4879 27.624C80.0199 28.884 78.1119 29.964 78.1119 29.964H83.9439C83.9439 29.964 82.2159 29.352 82.2159 28.128C82.2159 28.02 82.2159 27.912 82.2519 27.768L89.0919 3.504C89.7399 5.628 90.8919 9.696 92.2599 15.78C94.2399 24.492 94.8879 29.892 94.8879 29.892H94.9239L102.376 3.468C103.024 5.592 104.176 9.696 105.58 15.816C106.84 21.324 107.92 25.608 107.92 28.02C107.92 29.172 106.228 29.964 106.228 29.964H113.788C113.788 29.964 112.564 29.424 112.132 27.984C111.448 25.68 110.224 21.432 108.964 15.816C107.56 9.696 106.912 5.7 106.588 3.576C106.588 3.468 106.552 3.396 106.552 3.324C106.552 2.064 108.028 1.668 108.028 1.668H99.6399C99.9279 1.776 100.864 2.46 100.864 3.216C100.864 5.088 99.4599 9.408 97.5519 15.924C97.1919 17.184 96.8319 18.408 96.4719 19.524C96.2199 18.444 95.9319 17.076 95.6439 15.78ZM117.531 15.78C117.531 11.028 121.419 7.356 125.991 7.248C126.099 9.516 126.171 12.432 126.171 15.816C126.171 19.416 126.135 22.26 126.027 24.456C121.311 24.384 117.531 20.496 117.531 15.78ZM138.231 15.78C138.231 20.496 134.451 24.42 129.735 24.456C129.627 22.26 129.555 19.416 129.555 15.816C129.555 12.432 129.663 9.516 129.771 7.248C134.343 7.356 138.231 11.028 138.231 15.78ZM141.975 15.744C141.975 10.416 136.359 6.06 129.807 6.024C129.843 5.088 129.915 4.26 129.987 3.612C130.167 2.1 131.607 1.668 131.643 1.668H124.083C124.083 1.668 125.667 2.1 125.775 3.612C125.811 4.26 125.883 5.052 125.919 6.024C119.367 6.06 113.787 10.416 113.787 15.744C113.787 21.072 119.439 25.464 125.955 25.536C125.919 26.508 125.811 27.984 125.811 27.984C125.703 29.496 124.083 30 124.083 30H131.643C131.643 30 130.095 29.172 129.951 28.02C129.915 27.372 129.843 26.544 129.807 25.536C136.323 25.464 141.975 21.072 141.975 15.744ZM148.798 10.992C149.554 7.212 152.758 3.54 157.042 2.604C157.762 2.46 158.482 2.388 159.202 2.388C162.73 2.388 166.042 4.224 168.058 6.816C169.39 8.544 170.362 10.956 170.866 13.332C171.082 14.412 171.19 15.672 171.19 16.824C171.19 17.976 171.118 19.092 170.974 19.884C170.362 23.916 167.122 27.696 162.694 28.668C161.974 28.812 161.254 28.884 160.534 28.884C156.79 28.884 153.226 26.868 151.426 24.06C150.562 22.692 149.374 20.244 148.906 18.048C148.654 16.788 148.51 15.456 148.51 14.16C148.51 13.008 148.618 11.928 148.798 10.992ZM145.126 18.804C146.71 26.58 152.614 30.648 159.31 30.648C160.534 30.648 161.758 30.54 163.018 30.252C170.038 28.74 174.826 22.512 174.826 15.6C174.826 14.556 174.718 13.476 174.466 12.396C172.954 5.376 166.69 0.587999 159.778 0.587999C158.698 0.587999 157.654 0.696 156.574 0.947999C150.562 2.244 144.838 8.508 144.838 15.888C144.838 16.824 144.91 17.832 145.126 18.804ZM187.366 16.068C191.362 16.068 194.566 12.828 194.566 8.868C194.566 4.872 191.326 1.596 187.33 1.596L180.346 1.668H177.718C177.718 1.668 178.834 2.064 178.906 2.532C179.158 4.656 179.41 9.048 179.41 15.816C179.41 22.656 179.122 26.868 178.978 28.74C178.87 29.352 177.718 29.964 177.718 29.964H184.486C184.486 29.964 183.334 29.532 183.262 28.848C183.01 27.3 182.794 23.52 182.794 17.544V16.104L187.366 16.068ZM186.214 2.82C189.274 2.964 191.686 5.772 191.686 8.868C191.686 11.928 189.13 14.916 186.034 14.916H182.794C182.83 9.12 183.118 4.8 183.262 2.856C183.946 2.82 184.702 2.82 185.386 2.82H186.214ZM216.044 1.56H203.804C200.06 1.56 197.432 1.272 197.432 1.272C197.432 1.272 197.9 3.036 198.08 4.476C198.332 6.276 198.332 9.48 198.332 9.48C198.332 9.48 199.7 3.036 203.768 2.784H207.692C207.836 4.764 208.088 9.372 208.16 15.816V17.58C208.16 22.548 208.016 25.968 207.8 27.984C207.62 29.496 206.072 29.964 206.072 29.964H213.668C213.668 29.964 212.12 29.172 211.94 27.984C211.76 26.796 211.616 21.684 211.58 15.816V14.16C211.58 8.652 211.868 4.584 212.012 2.784H215.792C220.04 2.784 221.516 9.48 221.516 9.48C221.516 9.48 221.516 6.276 221.768 4.476C221.948 3.036 222.416 1.272 222.416 1.272C222.416 1.272 219.788 1.56 216.044 1.56ZM238.192 27.876C238.084 29.388 236.464 29.964 236.464 29.964L242.512 30V29.964L254.68 4.728C254.824 7.176 255.004 10.956 255.004 15.744C255.004 21.756 254.788 25.716 254.608 27.876C254.5 29.388 252.916 29.964 252.916 29.964H260.44C260.44 29.964 258.856 29.064 258.748 27.876C258.748 27.876 258.46 21.72 258.388 15.744V13.548C258.388 8.868 258.568 4.8 258.784 3.648C259 2.46 260.44 1.668 260.44 1.668H254.428C254.428 1.704 254.428 1.704 254.428 1.704C254.428 2.136 252.412 6.888 248.272 15.456C245.86 20.424 243.736 24.312 242.26 26.796C242.116 24.492 241.936 20.856 241.936 15.744C241.936 10.164 242.152 5.88 242.332 3.576H242.368C242.44 2.388 243.988 1.668 243.988 1.668H236.5C236.5 1.668 238.048 2.064 238.156 3.576C238.336 5.844 238.552 10.092 238.552 15.744C238.552 21.756 238.372 25.716 238.192 27.876ZM27.596 46.828C27.74 45.604 29.36 44.668 29.36 44.668H21.8C21.8 44.668 23.42 45.316 23.564 46.756C23.744 49.06 23.96 53.236 23.96 58.78C23.96 64.648 23.78 68.572 23.6 70.768C23.456 72.244 21.836 72.964 21.836 72.964H29.504C29.504 72.964 27.812 71.776 27.704 70.552C27.56 68.536 27.38 65.224 27.344 60.508L37.82 70.984C38.072 71.236 38.18 71.488 38.18 71.704C38.18 72.496 36.812 72.964 36.812 72.964H45.236C45.236 72.964 43.076 72.244 41.096 70.3C37.892 67.132 28.352 57.52 28.352 57.52L38.72 47.116C40.772 45.208 42.5 44.668 42.5 44.668H36.488C36.488 44.668 37.208 44.992 37.208 45.64C37.208 45.856 37.1 46.144 36.848 46.468L27.344 55.972C27.344 52.12 27.38 48.628 27.596 46.828ZM55.7916 58.204L59.0676 46.504C59.6796 48.556 60.7956 52.444 62.1276 58.204H55.7916ZM48.1236 72.964H53.9556C53.9556 72.964 52.1916 72.424 52.1916 71.236C52.1916 71.128 52.1916 70.984 52.2276 70.876L55.4316 59.392H62.4156C63.5676 64.612 64.6116 68.68 64.6116 70.984C64.6116 72.136 62.8476 72.964 62.8476 72.964H70.4436C70.4436 72.964 69.2556 72.424 68.8236 70.984C68.1396 68.68 66.9156 64.432 65.6556 58.816C64.2516 52.696 63.6036 48.7 63.2796 46.576C63.2796 46.468 63.2436 46.396 63.2436 46.324C63.2436 45.064 64.6836 44.668 64.6836 44.668H56.3316C56.3316 44.668 57.6276 45.28 57.6276 45.82C57.6276 45.856 57.6276 45.892 57.6276 45.892C55.4316 55.432 53.0556 63.856 50.4996 70.732C49.9956 72.064 48.1236 72.964 48.1236 72.964ZM87.7194 72.964H95.4594C95.4594 72.964 93.8394 72.208 93.7674 71.02C93.7674 71.02 93.3354 64.432 93.3354 58.852C93.3354 52.876 93.5514 48.88 93.7314 46.72V46.684C93.8754 45.496 95.4594 44.668 95.4594 44.668L87.7194 44.632C87.7194 44.632 89.3754 45.208 89.4834 46.72C89.6274 48.736 89.8434 52.336 89.8794 57.736C88.5474 59.464 86.2434 60.652 83.6514 60.652C79.5834 60.652 76.4874 58.744 76.4874 55.324C76.4874 55.324 76.7034 48.196 76.7754 46.72C76.8474 45.424 78.6474 44.632 78.6474 44.632L71.1594 44.668C71.1594 44.668 72.7434 45.208 72.8514 46.684C72.9234 47.98 72.9954 50.068 72.9954 53.56C72.9594 53.596 72.9594 53.632 72.9594 53.632C72.9594 58.996 77.4594 62.344 83.0034 62.344C85.6674 62.344 88.0794 61.444 89.8794 59.968C89.8434 65.08 89.5914 68.896 89.4474 71.02C89.3394 72.532 87.7194 72.964 87.7194 72.964ZM99.9827 71.668C99.8387 72.316 98.6867 72.964 98.6867 72.964H112.295C116.003 72.964 118.667 73.432 118.667 73.432C118.667 73.432 118.235 71.632 118.019 70.192C117.803 68.392 117.767 65.188 117.767 65.188C117.767 65.188 116.291 71.812 112.079 71.848H104.231C104.087 70.12 103.799 66.088 103.763 59.428H109.235C112.151 59.536 112.943 61.408 112.943 61.408V56.224C112.943 56.224 112.259 58.096 109.199 58.168L103.763 58.204C103.799 52.264 104.051 47.872 104.231 45.856H112.043C116.291 45.856 117.767 52.408 117.767 52.408C117.767 52.408 117.803 49.24 118.019 47.404C118.235 45.964 118.667 44.2 118.667 44.2C118.667 44.2 116.003 44.668 112.295 44.668H98.6867C98.6867 44.668 99.8387 45.208 99.9107 45.856C100.091 47.908 100.379 52.444 100.379 58.744C100.379 65.836 100.127 69.904 99.9827 71.668ZM125.562 53.956C126.102 49.852 129.522 46.468 133.806 45.532C134.562 45.352 135.318 45.28 136.074 45.28C139.422 45.28 142.554 46.864 144.57 49.42L143.274 44.308C143.166 44.596 142.482 44.74 142.338 44.668C140.574 43.912 138.63 43.516 136.65 43.516C135.57 43.516 134.454 43.624 133.374 43.876C126.354 45.424 121.53 51.652 121.53 58.564C121.53 59.608 121.674 60.688 121.89 61.768C123.438 68.788 129.666 73.612 136.578 73.612C137.622 73.612 138.702 73.468 139.782 73.252C141.762 72.82 143.562 72.028 145.11 70.948C145.398 70.732 145.758 70.624 145.938 70.696L146.73 66.016C145.326 68.788 142.734 70.912 139.458 71.632C138.666 71.812 137.874 71.884 137.118 71.884C133.482 71.884 130.134 70.048 128.19 67.06C127.29 65.656 126.138 63.208 125.67 61.012C125.418 59.788 125.31 58.636 125.31 57.448C125.31 56.296 125.418 55.144 125.562 53.956ZM165.7 44.56H153.46C149.716 44.56 147.088 44.272 147.088 44.272C147.088 44.272 147.556 46.036 147.736 47.476C147.988 49.276 147.988 52.48 147.988 52.48C147.988 52.48 149.356 46.036 153.424 45.784H157.348C157.492 47.764 157.744 52.372 157.816 58.816V60.58C157.816 65.548 157.672 68.968 157.456 70.984C157.276 72.496 155.728 72.964 155.728 72.964H163.324C163.324 72.964 161.776 72.172 161.596 70.984C161.416 69.796 161.272 64.684 161.236 58.816V57.16C161.236 51.652 161.524 47.584 161.668 45.784H165.448C169.696 45.784 171.172 52.48 171.172 52.48C171.172 52.48 171.172 49.276 171.424 47.476C171.604 46.036 172.072 44.272 172.072 44.272C172.072 44.272 169.444 44.56 165.7 44.56ZM176.659 45.892C176.983 47.728 177.055 52.084 177.055 58.852C177.055 65.656 176.803 69.796 176.623 71.704C176.551 72.316 175.363 72.964 175.363 72.964H187.999C192.139 72.964 195.487 69.652 195.487 65.512C195.487 61.624 192.499 58.42 188.683 58.06C190.807 56.8 192.211 54.496 192.211 51.868C192.211 47.872 188.971 44.596 184.975 44.596L177.955 44.668H175.327C175.327 44.668 176.551 45.316 176.659 45.892ZM192.499 65.512C192.499 68.716 189.835 71.812 186.631 71.812C185.047 71.812 182.779 71.632 180.871 71.488C180.691 69.544 180.439 65.548 180.439 59.212C181.267 59.212 182.203 59.176 183.139 59.176C184.471 59.176 185.803 59.212 186.775 59.248C189.979 59.392 192.499 62.308 192.499 65.512ZM183.859 45.82C186.919 45.964 189.331 48.772 189.331 51.868C189.331 54.964 186.775 57.952 183.679 57.952H180.439C180.475 52.12 180.763 47.836 180.907 45.892C181.627 45.856 182.383 45.82 183.103 45.82H183.859ZM202.341 53.992C203.097 50.212 206.301 46.54 210.585 45.604C211.305 45.46 212.025 45.388 212.745 45.388C216.273 45.388 219.585 47.224 221.601 49.816C222.933 51.544 223.905 53.956 224.409 56.332C224.625 57.412 224.733 58.672 224.733 59.824C224.733 60.976 224.661 62.092 224.517 62.884C223.905 66.916 220.665 70.696 216.237 71.668C215.517 71.812 214.797 71.884 214.077 71.884C210.333 71.884 206.769 69.868 204.969 67.06C204.105 65.692 202.917 63.244 202.449 61.048C202.197 59.788 202.053 58.456 202.053 57.16C202.053 56.008 202.161 54.928 202.341 53.992ZM198.669 61.804C200.253 69.58 206.157 73.648 212.853 73.648C214.077 73.648 215.301 73.54 216.561 73.252C223.581 71.74 228.369 65.512 228.369 58.6C228.369 57.556 228.261 56.476 228.009 55.396C226.497 48.376 220.233 43.588 213.321 43.588C212.241 43.588 211.197 43.696 210.117 43.948C204.105 45.244 198.381 51.508 198.381 58.888C198.381 59.824 198.453 60.832 198.669 61.804ZM229.497 72.568C230.325 73.072 230.613 73.684 230.613 74.296C230.613 74.62 230.541 74.944 230.397 75.232C231.297 74.728 232.161 73.936 232.161 73C232.161 72.46 231.909 71.92 231.297 71.308H231.261C231.045 71.308 229.461 72.244 229.461 72.532C229.461 72.532 229.461 72.568 229.497 72.568Z" fill="#DBBC9A"/>
<path d="M38.396 98.9C38.396 93.86 34.076 93.104 29.036 93.104C24.212 93.104 18.308 94.256 13.196 95.912C8.66 97.352 0.415999 101.096 0.379999 102.032C0.379999 102.212 0.631998 102.464 0.811998 102.464C1.208 102.464 7.868 98.828 13.916 96.92C17.696 95.732 23.492 94.4 29.396 94.4C31.556 94.4 36.884 94.076 36.884 99.224C36.884 103.292 34.004 107.504 32.924 108.656C32.672 108.512 31.52 107.396 30.62 107.36C29.684 107.324 28.82 107.432 26.66 109.448C25.112 110.888 22.88 112.94 22.988 114.56C23.096 116.216 23.672 116.648 25.508 116.648C27.848 116.648 31.196 113.588 33.644 110.384C36.524 106.676 38.396 102.284 38.396 98.9ZM31.412 110.312C31.052 111.284 30.332 112.112 29.324 113.048C27.848 114.344 26.012 115.424 25.508 115.28C25.112 115.172 24.428 115.064 24.5 114.632C24.608 113.84 25.724 112.4 26.948 111.032C27.956 109.916 29.72 108.908 30.404 109.16C30.944 109.376 31.232 109.772 31.412 110.312ZM49.0278 109.844C49.0278 108.188 47.7678 106.964 45.7518 106.964C44.5998 106.964 42.8718 107.612 41.1078 108.656C40.6758 108.944 40.2798 109.556 39.8478 109.808C39.5238 109.808 39.0558 109.772 38.6958 109.988C37.6158 110.636 37.0038 112.076 36.9678 112.976C36.8958 114.452 37.9038 116.144 40.4958 116.216C42.0078 116.252 44.3838 115.64 46.1838 114.164C47.7318 112.904 49.0278 111.32 49.0278 109.844ZM47.6598 109.628C47.6598 111.212 46.2558 112.544 45.0318 113.372C43.6278 114.308 41.9718 114.92 40.8558 114.92C39.5598 114.92 38.4078 114.056 38.4078 113.084C38.4078 112.796 38.9478 111.32 39.8838 111.212C40.3158 111.176 40.4598 111.284 40.8198 111.212C41.5398 110.996 41.6478 110.204 42.2598 109.736C43.4478 108.764 44.7438 108.332 45.8958 108.368C46.6878 108.404 47.6598 108.512 47.6598 109.628ZM64.9902 111.032C65.0262 110.672 64.8462 110.168 64.4862 110.24C63.9822 110.348 61.0662 112.364 58.6542 113.336C56.5302 114.2 54.0462 114.92 53.0382 115.064C52.2462 115.172 51.5622 114.632 51.5982 113.408C51.6342 112.76 52.5342 110.708 53.3982 109.448C55.2702 106.784 57.3582 106.136 58.0062 106.064C58.4742 106.028 58.5102 106.676 58.6542 107.144C59.0142 108.224 58.0062 109.484 57.9342 109.952C57.8982 110.276 58.0782 110.708 58.4382 110.744C59.1942 110.78 60.0942 108.944 60.1302 107.72C60.1662 106.316 59.5542 104.66 58.1502 104.696C55.8462 104.732 53.1462 107.576 52.3182 108.584C51.5262 109.556 49.8702 112.04 50.0142 113.768C50.1582 115.46 51.5262 116.324 52.8942 116.36C53.8662 116.396 57.1062 115.532 59.5902 114.416C61.8582 113.372 64.9542 111.428 64.9902 111.032ZM100.305 110.168C100.305 109.988 100.197 109.7 100.017 109.664C99.2613 109.52 96.4533 112.184 93.8253 113.624C91.4493 114.92 89.4333 115.712 88.3533 115.712C87.7413 115.712 87.5613 115.316 87.5613 114.704C87.5613 114.164 88.4613 112.724 89.0733 111.464C89.7573 110.096 90.9093 109.124 90.8733 108.008C90.8373 107.072 90.1173 106.496 89.0013 106.424C87.7773 106.352 85.0413 108.332 83.6013 108.8C83.6013 108.584 83.5653 108.188 83.4573 107.792C83.2773 107 82.7733 106.064 81.1533 106.064C79.4973 106.064 74.0613 108.44 73.0173 109.232C72.9093 108.512 72.1173 107.18 71.1453 107.288C70.0293 107.396 67.9413 107.828 66.5373 108.584C64.9893 109.412 62.9373 110.744 62.8653 111.392C62.8293 111.788 63.2613 111.932 63.6573 112.04C64.1613 112.184 65.6373 110.6 67.0413 109.952C68.3013 109.34 69.6333 108.728 70.4973 108.728C70.9293 108.728 71.2533 109.088 71.2893 109.52C71.3253 110.276 70.1373 111.284 69.2013 112.256C68.4453 113.048 67.4373 113.876 67.4733 114.488C67.5093 114.884 67.7613 115.352 68.1933 115.424C69.0213 115.532 69.7053 114.488 70.3533 113.912C71.4693 112.868 72.1533 111.86 73.5933 110.672C74.6013 109.844 76.8693 108.656 78.4173 108.08C79.8933 107.54 80.9373 107.504 81.1533 107.504C81.6213 107.504 82.0893 107.792 82.0893 108.332C82.0893 108.764 81.8013 109.844 80.5053 111.176C79.8213 111.896 78.2373 113.12 78.3453 113.624C78.4533 114.128 78.8133 114.488 79.2813 114.488C79.8213 114.488 80.3973 113.84 81.0093 113.048C81.4773 112.436 82.1253 111.536 82.9533 110.744C84.1413 109.988 87.9573 107.828 88.5693 107.864C88.8933 107.9 89.2533 108.116 89.2893 108.44C89.3253 109.052 88.1373 110.168 87.5613 111.32C86.8773 112.652 86.1213 114.38 86.1213 114.776C86.1213 116.144 87.1653 117.152 88.2093 117.08C89.5773 116.972 91.7373 116.36 94.4013 114.776C96.3813 113.588 100.233 111.068 100.305 110.168ZM110.235 109.844C110.235 108.188 108.975 106.964 106.959 106.964C105.807 106.964 104.079 107.612 102.315 108.656C101.883 108.944 101.487 109.556 101.055 109.808C100.731 109.808 100.263 109.772 99.9028 109.988C98.8228 110.636 98.2108 112.076 98.1748 112.976C98.1028 114.452 99.1108 116.144 101.703 116.216C103.215 116.252 105.591 115.64 107.391 114.164C108.939 112.904 110.235 111.32 110.235 109.844ZM108.867 109.628C108.867 111.212 107.463 112.544 106.239 113.372C104.835 114.308 103.179 114.92 102.063 114.92C100.767 114.92 99.6148 114.056 99.6148 113.084C99.6148 112.796 100.155 111.32 101.091 111.212C101.523 111.176 101.667 111.284 102.027 111.212C102.747 110.996 102.855 110.204 103.467 109.736C104.655 108.764 105.951 108.332 107.103 108.368C107.895 108.404 108.867 108.512 108.867 109.628ZM130.039 95.048C130.039 93.176 127.843 92.348 126.079 92.348C125.215 92.348 121.903 92.852 119.383 93.788C116.827 94.796 113.335 96.488 113.335 97.208C113.335 97.604 113.623 97.856 113.911 97.82C114.307 97.784 117.619 95.768 120.175 94.976C122.299 94.292 124.855 93.788 125.755 93.788C126.691 93.788 128.599 94.04 128.599 95.012C128.599 96.056 127.663 96.956 126.907 98.072C125.935 99.512 123.919 101.024 123.883 101.492C123.883 101.816 124.243 102.176 124.567 102.176C125.035 102.104 126.655 100.52 127.699 99.224C128.851 97.784 130.039 96.056 130.039 95.048ZM130.723 110.384C130.687 110.06 130.543 110.06 130.255 110.06C129.823 110.06 128.383 111.032 126.763 111.86C125.143 112.688 123.595 113.48 122.407 113.372C121.903 113.336 121.435 112.868 121.435 112.4C121.435 112.148 121.579 111.356 121.939 110.708C122.335 110.06 122.875 109.664 122.875 109.16C122.875 108.764 122.911 108.404 122.191 108.404C121.651 108.404 119.095 110.6 117.079 111.896C115.171 113.12 112.939 114.992 112.111 114.884C111.931 114.848 111.931 114.668 111.931 114.488C111.931 113.84 113.263 111.932 113.767 111.248C114.559 110.24 116.215 108.908 116.251 108.08C116.251 107.648 115.855 107.396 115.423 107.396C114.811 107.396 113.875 108.476 112.831 109.232C109.447 111.68 108.691 111.356 108.691 112.4C108.691 112.616 108.907 112.796 109.087 112.94C109.699 112.976 110.527 112.256 111.823 111.464C111.355 112.256 110.419 114.092 110.311 114.848C110.203 115.604 110.959 116.324 111.751 116.396C112.615 116.468 115.747 114.38 117.439 113.3C118.195 112.76 119.239 112.04 120.067 111.428C119.995 111.896 119.923 112.58 119.995 112.94C120.211 113.84 121.327 114.74 122.191 114.74C124.135 114.74 126.511 113.48 128.023 112.616C129.067 112.004 130.759 110.924 130.723 110.384ZM150.154 110.456C150.118 110.096 149.938 109.88 149.578 109.952C149.218 110.024 146.266 112.58 145.042 113.408C143.746 114.272 142.558 114.632 141.946 114.632C140.866 114.632 140.434 114.2 140.434 112.976C140.434 111.608 141.514 110.6 142.738 108.584C143.134 107.936 143.782 107.252 143.962 106.496C144.07 106.028 143.458 105.92 143.026 105.92C142.306 105.92 141.442 107.036 140.938 107.648C140.542 108.152 140.074 108.764 139.678 109.16C139.21 109.268 138.13 109.016 137.59 109.016C136.69 109.016 136.402 109.124 135.574 109.016C135.934 108.44 136.402 107.612 136.258 106.928C136.186 106.568 136.006 106.208 135.646 106.172C134.458 106.028 132.946 107.612 132.01 108.44C129.634 110.528 127.438 111.032 127.618 112.112C127.654 112.328 127.834 112.616 128.05 112.616C128.95 112.544 131.398 110.384 132.622 109.736C132.298 110.636 131.326 112.076 130.714 112.904C130.102 113.732 128.734 115.064 129.058 115.856C129.13 116.072 129.418 115.964 129.634 116C130.534 116.108 132.226 113.588 132.946 112.616C133.63 111.752 134.062 111.032 134.53 110.456C135.07 110.492 136.402 110.312 137.266 110.312C137.842 110.312 138.706 110.456 139.354 110.456C139.21 110.852 138.814 111.788 138.778 112.976C138.778 114.38 139.282 116 141.514 116C142.594 116 144.25 115.424 145.906 114.272C147.274 113.336 150.226 110.96 150.154 110.456ZM160.157 109.844C160.157 108.188 158.897 106.964 156.881 106.964C155.729 106.964 154.001 107.612 152.237 108.656C151.805 108.944 151.409 109.556 150.977 109.808C150.653 109.808 150.185 109.772 149.825 109.988C148.745 110.636 148.133 112.076 148.097 112.976C148.025 114.452 149.033 116.144 151.625 116.216C153.137 116.252 155.513 115.64 157.313 114.164C158.861 112.904 160.157 111.32 160.157 109.844ZM158.789 109.628C158.789 111.212 157.385 112.544 156.161 113.372C154.757 114.308 153.101 114.92 151.985 114.92C150.689 114.92 149.537 114.056 149.537 113.084C149.537 112.796 150.077 111.32 151.013 111.212C151.445 111.176 151.589 111.284 151.949 111.212C152.669 110.996 152.777 110.204 153.389 109.736C154.577 108.764 155.873 108.332 157.025 108.368C157.817 108.404 158.789 108.512 158.789 109.628ZM172.915 110.312C172.951 109.772 172.627 109.808 172.411 109.808C171.979 109.808 169.171 111.968 166.939 113.264C164.887 114.452 163.771 114.956 163.267 114.92C162.835 114.884 162.115 114.74 162.115 114.2C162.115 113.732 162.151 113.444 162.403 112.976C163.231 112.76 164.383 112.436 165.499 111.824C166.867 111.068 168.307 109.952 168.379 108.296C168.415 107.252 167.587 105.848 166.507 105.848C165.607 105.848 164.527 106.532 163.195 108.368C161.863 110.204 160.675 113.012 160.675 114.344C160.675 115.388 162.043 116.504 163.051 116.36C164.059 116.216 166.363 115.244 168.091 114.056C169.747 112.904 172.879 111.068 172.915 110.312ZM166.939 108.224C166.939 109.34 166.363 109.628 165.715 110.24C164.887 111.032 163.699 111.356 163.051 111.464C163.267 111.104 164.059 109.736 164.419 109.16C164.959 108.26 165.859 107.432 166.291 107.432C166.687 107.432 166.939 107.9 166.939 108.224ZM205.4 110.384C205.4 110.06 205.076 109.844 204.752 109.88C204.464 109.916 200.828 112.472 199.856 113.048C198.344 113.984 196.58 114.56 196.328 114.56C196.004 114.56 196.04 114.38 196.04 114.272C196.04 113.732 196.724 112.616 197.264 111.752C197.84 110.816 198.704 109.592 198.704 108.656C198.704 107.72 198.272 107.108 197.336 107.072C196.22 107.036 195.32 107.432 194.096 107.864C193.412 108.116 193.232 108.404 192.368 108.584C192.584 107.9 192.692 107.684 192.656 107C192.62 106.28 192.116 105.704 191.432 105.704C189.992 105.704 188.336 106.856 186.608 108.008C184.952 109.124 182.684 110.672 182.792 111.392C182.828 111.716 183.08 112.004 183.368 112.04C183.764 112.076 185.636 110.096 187.256 109.088C188.516 108.296 189.92 107.288 190.568 107.288C190.892 107.288 191.072 107.468 191 107.936C190.892 108.98 189.668 110.816 188.192 112.544C187.508 113.336 186.284 114.344 185.384 115.064C184.7 115.604 184.16 115.964 184.16 116.144C184.196 116.684 184.628 117.224 185.168 117.296C186.32 117.476 188.3 114.488 189.488 113.336C190.892 111.932 191.972 110.96 192.944 110.168C194.348 109.052 196.076 108.368 196.76 108.368C197.12 108.368 197.156 108.332 197.192 108.728C197.192 109.448 196.508 110.564 195.752 111.752C195.104 112.76 194.24 114.128 194.24 114.776C194.24 115.28 194.96 116.144 195.536 116.144C196.796 116.144 198.488 115.28 200.144 114.344C201.584 113.516 205.4 110.996 205.4 110.384ZM215.032 110.312C215.068 109.772 214.744 109.808 214.528 109.808C214.096 109.808 211.288 111.968 209.056 113.264C207.004 114.452 205.888 114.956 205.384 114.92C204.952 114.884 204.232 114.74 204.232 114.2C204.232 113.732 204.268 113.444 204.52 112.976C205.348 112.76 206.5 112.436 207.616 111.824C208.984 111.068 210.424 109.952 210.496 108.296C210.532 107.252 209.704 105.848 208.624 105.848C207.724 105.848 206.644 106.532 205.312 108.368C203.98 110.204 202.792 113.012 202.792 114.344C202.792 115.388 204.16 116.504 205.168 116.36C206.176 116.216 208.48 115.244 210.208 114.056C211.864 112.904 214.996 111.068 215.032 110.312ZM209.056 108.224C209.056 109.34 208.48 109.628 207.832 110.24C207.004 111.032 205.816 111.356 205.168 111.464C205.384 111.104 206.176 109.736 206.536 109.16C207.076 108.26 207.976 107.432 208.408 107.432C208.804 107.432 209.056 107.9 209.056 108.224ZM233.061 110.24C233.061 109.988 232.737 109.916 232.485 109.952C232.053 109.988 230.217 111.428 228.741 112.4C226.797 113.66 224.241 114.92 223.485 114.92C223.125 114.92 223.017 114.704 222.981 114.344C222.945 113.624 224.709 111.788 225.429 111.032C227.121 109.34 227.985 108.224 228.093 107.504C228.129 107.18 228.021 106.784 227.733 106.784C227.085 106.784 223.881 108.044 222.477 108.8C219.669 110.24 218.877 110.528 217.941 110.744C218.265 110.312 219.237 109.196 220.101 108.224C220.821 107.396 221.973 106.604 221.973 106.136C221.973 105.812 221.793 105.668 221.433 105.596C220.965 105.488 220.389 105.848 219.597 106.496C218.445 107.144 217.725 107.756 216.213 108.584C214.593 109.484 212.469 110.744 212.685 111.176C212.865 111.5 213.081 111.788 213.405 111.824C213.945 111.896 214.521 110.96 215.421 110.456C216.249 110.024 216.105 110.024 216.789 109.736C215.889 110.816 212.433 114.812 210.309 117.224C207.285 120.68 206.349 121.616 203.829 124.424C199.509 129.284 192.741 135.944 192.813 136.952C192.849 137.204 193.173 137.312 193.389 137.312C194.253 137.348 200.661 129.572 204.621 125.432C209.085 120.788 214.521 114.452 215.709 113.12C216.861 112.724 219.885 111.5 221.757 110.456C223.233 109.772 224.421 109.412 225.501 108.8C225.213 109.736 224.133 110.528 223.701 111.032C222.873 111.968 221.613 113.444 221.541 114.344C221.469 115.244 222.081 116.216 222.981 116.216C224.961 116.18 227.013 114.956 229.389 113.408C231.081 112.292 233.025 111.176 233.061 110.24ZM256.057 92.96C255.949 91.844 255.265 90.908 254.149 90.908C252.493 90.908 249.181 94.004 247.417 95.66C243.745 99.116 241.549 102.176 240.001 103.724C238.453 105.092 236.509 106.676 234.313 108.332C233.125 109.232 230.137 111.284 230.209 111.68C230.281 112.004 230.497 112.328 230.749 112.292C231.217 112.22 232.801 110.996 234.061 110.096C234.997 109.412 235.429 108.944 236.437 108.296C235.753 109.412 235.141 110.312 234.385 111.572C233.341 113.336 233.125 114.2 233.017 116C232.945 116.9 234.241 117.836 234.709 117.836C236.617 117.836 238.165 116.684 239.713 114.884C241.225 113.156 242.665 110.816 242.665 109.736C242.665 109.268 241.657 108.476 240.829 108.44C239.713 108.368 237.985 109.016 237.301 109.232C237.697 108.404 238.345 107.576 239.137 106.676C240.001 105.704 241.009 105.092 241.621 104.444C244.537 103.04 248.857 100.772 251.665 98.612C254.401 96.524 256.129 93.716 256.057 92.96ZM254.689 93.032C254.221 94.256 252.781 96.128 250.441 97.892C248.497 99.368 245.581 101.096 243.025 102.392C244.069 100.916 246.121 98.648 248.461 96.488C250.333 94.688 253.429 92.06 254.221 92.132C254.581 92.168 254.833 92.636 254.689 93.032ZM241.081 110.024C241.117 110.78 239.893 112.652 238.705 114.02C237.409 115.496 236.149 116.432 235.249 116.504C234.817 116.54 234.421 116.18 234.385 115.784C234.349 115.244 234.565 113.984 235.249 112.76C235.861 111.608 236.185 111.32 236.437 111.032C237.157 110.636 239.677 109.664 240.613 109.7C240.829 109.7 241.081 109.808 241.081 110.024ZM269.2 110.6C269.2 110.168 269.092 110.06 268.696 110.024C268.084 109.988 265.132 112.58 262.576 113.768C261.028 114.488 259.444 115.208 258.04 115.28C257.248 115.316 256.924 114.488 256.96 114.056C257.068 113.156 257.572 112.328 258.4 111.32C259.012 110.6 260.848 109.52 260.848 109.016C260.848 108.728 260.452 108.188 259.912 108.224C259.588 108.224 259.012 108.548 258.4 109.088C257.644 109.736 256.816 110.636 256.312 110.96C255.844 111.104 255.34 111.212 254.656 111.248C254.008 111.32 253.288 111.464 252.712 111.392C252.388 110.996 252.136 110.78 251.704 110.528C251.236 110.24 250.84 109.952 250.156 109.88L250.948 108.728C251.56 107.972 252.28 107.072 252.28 106.496C252.28 106.064 251.812 105.632 251.344 105.704C250.876 105.776 248.932 107.756 247.816 108.584C246.808 109.376 244.108 110.672 244 111.104C243.892 111.572 244.108 111.86 244.576 111.968C245.008 112.04 245.548 111.5 246.232 111.104C246.7 110.852 247.132 110.744 247.528 110.528C246.592 111.572 244.576 113.552 244.576 114.416C244.576 115.244 245.224 116.324 246.592 116.288C248.356 116.252 248.932 115.82 250.12 114.992C251.092 114.308 251.74 113.48 252.136 112.976C252.856 112.832 253.864 112.616 254.296 112.544C254.836 112.472 255.16 112.508 255.664 112.4C255.268 113.12 255.268 113.696 255.232 114.2C255.124 115.28 255.88 116.72 257.608 116.72C259.48 116.72 261.532 115.856 263.656 114.704C265.636 113.624 269.2 111.14 269.2 110.6ZM250.336 112.328C250.336 112.868 249.724 113.516 249.112 113.984C248.464 114.488 247.384 115.028 246.988 114.992C246.772 114.956 246.304 115.028 246.268 114.488C246.232 114.02 247.096 112.832 247.924 112.148C248.284 111.86 248.644 111.572 248.86 111.356C249.004 111.464 249.508 111.608 249.832 111.752C250.084 111.86 250.336 112.076 250.336 112.328ZM293.122 110.6C293.158 110.276 293.014 110.06 292.762 110.024C292.042 109.916 288.478 112.796 286.138 113.912C284.698 114.596 283.222 114.992 281.17 115.064C279.874 115.1 277.714 114.38 277.858 112.832C277.93 112.184 278.218 112.04 278.65 111.32C279.01 110.744 279.946 109.808 280.954 109.16C282.034 108.44 282.934 107.72 284.05 107.864C284.554 107.936 284.734 108.548 284.77 109.088C284.77 109.412 284.446 109.664 284.554 109.952C284.626 110.168 284.806 110.384 284.986 110.384C285.454 110.384 285.85 109.628 285.994 108.944C286.246 107.684 285.022 106.388 283.906 106.352C282.61 106.316 280.99 107.576 280.018 108.08C279.19 107 279.226 106.604 277.714 106.496C276.886 106.46 275.374 106.784 274.114 107.504C272.998 108.116 271.522 109.196 271.594 109.736C271.666 110.132 271.738 110.204 272.17 110.24C272.638 110.276 273.286 109.304 274.114 108.872C275.23 108.296 276.598 107.828 277.21 107.864C277.606 107.9 278.002 108.152 277.93 108.548C277.858 108.98 276.958 110.168 276.202 110.96C274.978 112.004 271.702 113.66 270.802 113.552C270.334 113.48 270.082 113.084 269.794 112.616C269.542 112.184 269.542 111.788 269.434 111.32C269.398 111.14 269.182 110.888 268.93 110.816C268.462 110.708 268.102 111.176 268.066 111.68C268.066 112.04 268.282 112.94 268.714 113.552C269.362 114.452 270.046 114.92 271.234 114.992C271.882 115.028 275.302 113.3 276.274 112.544C276.166 113.228 276.418 113.516 276.706 114.056C277.57 115.784 279.226 116.432 281.134 116.396C282.934 116.36 285.058 115.964 287.29 114.848C289.09 113.948 293.086 111.068 293.122 110.6Z" fill="white"/>
</svg>
