<svg width="343" height="159" viewBox="0 0 343 159" fill="none" xmlns="http://www.w3.org/2000/svg">
<path d="M4 2.91777L3.76504 3.85869C3.76485 3.85903 3.76484 3.85902 3.76484 3.85902L3.76492 3.85907L3.76494 3.85907L3.7659 3.85959L3.77076 3.8622L3.79171 3.87356C3.8105 3.88382 3.83872 3.89934 3.87508 3.9197C3.94785 3.96045 4.05302 4.02047 4.18042 4.09638C4.43593 4.24862 4.77738 4.4627 5.12487 4.71166C5.47455 4.96219 5.81813 5.23938 6.08509 5.51651C6.36047 5.80237 6.50252 6.03562 6.54003 6.19809C6.92572 8.23019 7.15573 11.7053 7.28742 16.6421C7.41898 21.5742 7.45195 27.9309 7.45195 35.7002C7.45195 51.3344 6.92711 60.6898 6.53387 65.101C6.48509 65.3448 6.33163 65.6277 6.07961 65.9341C5.82549 66.2431 5.50017 66.5411 5.16982 66.805C4.84123 67.0676 4.51863 67.2877 4.27741 67.4425C4.15718 67.5197 4.05809 67.58 3.98977 67.6207C3.95563 67.641 3.92923 67.6563 3.9118 67.6664L3.89253 67.6774L3.88823 67.6798L3.88764 67.6802L3.88751 67.6802L3.88747 67.6803L3.88744 67.6803L2.2133 68.6166H4.1317H32.5857C42.2176 68.6166 49.9474 60.8887 49.9474 51.1047C49.9474 42.469 43.7169 35.1929 35.5344 33.7713C39.7977 30.6454 42.5705 25.6218 42.5705 19.8938C42.5705 10.5168 34.9775 2.78369 25.7357 2.78367L25.7315 2.78371L9.92793 2.91777H9.92581H4ZM29.6578 37.2708L29.6578 37.271L29.6692 37.2714C36.6045 37.5278 42.0933 43.9614 41.9657 51.2298L41.9656 51.2298V51.2386C41.9656 58.3886 36.2062 65.2055 29.2924 65.2055C26.9595 65.2055 24.011 64.974 21.0153 64.7387C19.6157 64.6288 18.2058 64.5181 16.8435 64.4298C16.4595 59.9268 15.9723 50.9911 15.9608 37.2687C16.7127 37.2602 17.5002 37.2343 18.302 37.208L18.408 37.2045C19.4297 37.171 20.4757 37.1378 21.5202 37.1378C24.5555 37.1378 27.4366 37.138 29.6578 37.2708ZM16.939 7.3591C16.9554 7.0906 16.9709 6.83538 16.9856 6.59368C17.695 6.58453 18.4 6.55679 19.0867 6.52938L19.1323 6.52756C19.9582 6.49458 20.7558 6.46273 21.5202 6.46273H23.2229C29.7566 6.72413 34.9839 12.8865 34.9839 19.7599C34.9839 26.637 29.3606 33.1909 22.7058 33.1909H15.9658C16.0965 21.1905 16.6469 12.155 16.939 7.3591Z" stroke="#181818"/>
<path d="M67.8681 33.3285C67.9997 21.2306 68.5577 12.0357 68.8481 7.25104C68.8726 6.84629 68.8953 6.47309 68.9156 6.13237C68.9388 5.86505 69.068 5.59143 69.2926 5.31525C69.5182 5.03776 69.8195 4.78376 70.1346 4.5649C70.4476 4.34754 70.7596 4.175 70.9946 4.05649C71.1116 3.99752 71.2081 3.95261 71.2744 3.92284C71.3076 3.90798 71.3331 3.89693 71.3497 3.88985L71.3678 3.88221L71.3715 3.88066L71.3716 3.88063L71.3718 3.88055C71.3718 3.88056 71.3718 3.88056 71.3714 3.87973L71.1832 2.91748H55.9023L55.6855 3.86728C55.6852 3.86788 55.6852 3.86787 55.6852 3.86787L55.6856 3.86807L55.6894 3.86992L55.7071 3.87867C55.7232 3.88673 55.7478 3.89919 55.7798 3.9158C55.8438 3.94906 55.9369 3.99884 56.05 4.0633C56.2771 4.19271 56.5807 4.37889 56.89 4.6069C57.2011 4.83624 57.506 5.09918 57.744 5.37978C57.9825 5.66086 58.1291 5.93044 58.1751 6.17713C58.827 10.6949 59.2224 21.1031 59.2224 35.6999C59.2224 49.9056 58.6809 58.9308 58.3838 63.8833C58.3536 64.3856 58.326 64.8459 58.3017 65.2656C58.2792 65.4945 58.1473 65.7774 57.897 66.0997C57.65 66.4179 57.322 66.7307 56.9831 67.0112C56.6464 67.2899 56.3116 67.5264 56.0599 67.6936C55.9344 67.777 55.8307 67.8425 55.7589 67.8868C55.7231 67.9089 55.6953 67.9257 55.6769 67.9367L55.6565 67.9488L55.6518 67.9515L55.6511 67.952L55.651 67.952L55.651 67.952L55.6509 67.9521L54.0467 68.8843H55.9023L62.3571 68.8843L62.3601 68.8843L84.3564 68.7502C84.357 68.7502 84.3576 68.7502 84.3582 68.7502C93.9943 68.7492 101.718 60.8826 101.718 51.1044C101.718 41.3263 93.9944 33.4596 84.3584 33.4585C84.3577 33.4585 84.357 33.4585 84.3564 33.4585L67.8681 33.3285ZM121.505 68.6163L121.704 67.6591C121.705 67.658 121.705 67.658 121.705 67.658L121.704 67.6579L121.699 67.6556L121.674 67.644C121.651 67.6332 121.615 67.6162 121.569 67.5931C121.476 67.5468 121.34 67.4759 121.175 67.3803C120.845 67.1886 120.402 66.9002 119.953 66.5147C119.049 65.7379 118.168 64.6104 118.051 63.1209L118.051 63.1204C117.657 58.1818 117.262 49.0872 117.262 35.6999C117.262 22.8457 117.657 13.2209 118.182 8.0219L118.182 8.02191L118.183 8.01256C118.298 6.60257 119.165 5.57847 120.065 4.88493C120.511 4.54086 120.951 4.28923 121.28 4.12377C121.445 4.04131 121.58 3.98095 121.672 3.94177C121.718 3.9222 121.754 3.90796 121.777 3.89894L121.802 3.88932L121.807 3.88745L121.807 3.88742L121.807 3.88734C121.807 3.88735 121.807 3.88736 121.807 3.88602L121.636 2.91748H104.643L104.404 3.85582C104.404 3.85646 104.404 3.85646 104.404 3.85645L104.404 3.85656L104.405 3.85697L104.411 3.86025L104.437 3.87534C104.462 3.88916 104.498 3.9104 104.546 3.93878C104.641 3.99557 104.78 4.08075 104.947 4.19193C105.283 4.41484 105.732 4.73946 106.187 5.14646C107.117 5.97793 107.984 7.07423 108.097 8.28635L108.097 8.28635L108.098 8.29212C108.49 12.0117 108.622 19.4852 108.622 27.9306C108.622 41.5876 108.227 57.2389 107.833 62.5824C107.716 63.8116 106.832 65.0776 105.891 66.0836C105.431 66.5763 104.977 66.9855 104.638 67.2715C104.468 67.4143 104.329 67.5257 104.232 67.6008C104.183 67.6383 104.146 67.6668 104.121 67.6855L104.093 67.7061L104.087 67.7108L104.086 67.7117L104.086 67.7118L104.086 67.7118L104.085 67.7119L102.84 68.6163H104.38H121.505ZM68.6139 64.2952C68.2296 59.8048 67.7425 51.1161 67.7314 37.6398C71.4632 37.3833 75.9547 37.1375 79.3505 37.1375H79.3559H79.3613H79.3667H79.3721H79.3774H79.3828H79.3882H79.3935H79.3989H79.4042H79.4096H79.4149H79.4202H79.4256H79.4309H79.4362H79.4415H79.4468H79.4521H79.4574H79.4626H79.4679H79.4732H79.4784H79.4837H79.489H79.4942H79.4994H79.5047H79.5099H79.5151H79.5203H79.5255H79.5308H79.536H79.5411H79.5463H79.5515H79.5567H79.5619H79.567H79.5722H79.5773H79.5825H79.5876H79.5928H79.5979H79.603H79.6081H79.6132H79.6183H79.6234H79.6285H79.6336H79.6387H79.6438H79.6489H79.6539H79.659H79.664H79.6691H79.6741H79.6792H79.6842H79.6892H79.6942H79.6993H79.7043H79.7093H79.7143H79.7193H79.7243H79.7292H79.7342H79.7392H79.7441H79.7491H79.7541H79.759H79.7639H79.7689H79.7738H79.7787H79.7837H79.7886H79.7935H79.7984H79.8033H79.8082H79.8131H79.8179H79.8228H79.8277H79.8326H79.8374H79.8423H79.8471H79.852H79.8568H79.8616H79.8665H79.8713H79.8761H79.8809H79.8857H79.8905H79.8953H79.9001H79.9049H79.9097H79.9144H79.9192H79.924H79.9287H79.9335H79.9382H79.9429H79.9477H79.9524H79.9571H79.9619H79.9666H79.9713H79.976H79.9807H79.9854H79.9901H79.9947H79.9994H80.0041H80.0088H80.0134H80.0181H80.0227H80.0274H80.032H80.0366H80.0413H80.0459H80.0505H80.0551H80.0597H80.0643H80.0689H80.0735H80.0781H80.0827H80.0873H80.0919H80.0964H80.101H80.1055H80.1101H80.1146H80.1192H80.1237H80.1282H80.1328H80.1373H80.1418H80.1463H80.1508H80.1553H80.1598H80.1643H80.1688H80.1733H80.1778H80.1822H80.1867H80.1912H80.1956H80.2001H80.2045H80.2089H80.2134H80.2178H80.2222H80.2267H80.2311H80.2355H80.2399H80.2443H80.2487H80.2531H80.2575H80.2618H80.2662H80.2706H80.275H80.2793H80.2837H80.288H80.2924H80.2967H80.301H80.3054H80.3097H80.314H80.3183H80.3227H80.327H80.3313H80.3356H80.3399H80.3441H80.3484H80.3527H80.357H80.3613H80.3655H80.3698H80.374H80.3783H80.3825H80.3868H80.391H80.3952H80.3995H80.4037H80.4079H80.4121H80.4163H80.4205H80.4247H80.4289H80.4331H80.4373H80.4415H80.4456H80.4498H80.454H80.4581H80.4623H80.4664H80.4706H80.4747H80.4789H80.483H80.4871H80.4912H80.4954H80.4995H80.5036H80.5077H80.5118H80.5159H80.52H80.5241H80.5281H80.5322H80.5363H80.5404H80.5444H80.5485H80.5525H80.5566H80.5606H80.5647H80.5687H80.5727H80.5768H80.5808H80.5848H80.5888H80.5928H80.5968H80.6008H80.6048H80.6088H80.6128H80.6168H80.6208H80.6247H80.6287H80.6327H80.6366H80.6406H80.6445H80.6485H80.6524H80.6564H80.6603H80.6642H80.6682H80.6721H80.676H80.6799H80.6838H80.6877H80.6916H80.6955H80.6994H80.7033H80.7072H80.7111H80.7149H80.7188H80.7227H80.7265H80.7304H80.7342H80.7381H80.7419H80.7458H80.7496H80.7534H80.7573H80.7611H80.7649H80.7687H80.7725H80.7763H80.7801H80.7839H80.7877H80.7915H80.7953H80.7991H80.8029H80.8066H80.8104H80.8142H80.8179H80.8217H80.8254H80.8292H80.8329H80.8367H80.8404H80.8441H80.8479H80.8516H80.8553H80.859H80.8627H80.8664H80.8701H80.8738H80.8775H80.8812H80.8849H80.8886H80.8923H80.896H80.8996H80.9033H80.907H80.9106H80.9143H80.9179H80.9216H80.9252H80.9289H80.9325H80.9361H80.9397H80.9434H80.947H80.9506H80.9542H80.9578H80.9614H80.965H80.9686H80.9722H80.9758H80.9794H80.983H80.9865H80.9901H80.9937H80.9973H81.0008H81.0044H81.0079H81.0115H81.015H81.0186H81.0221H81.0256H81.0292H81.0327H81.0362H81.0397H81.0433H81.0468H81.0503H81.0538H81.0573H81.0608H81.0643H81.0678H81.0713H81.0747H81.0782H81.0817H81.0852H81.0886H81.0921H81.0956H81.099H81.1025H81.1059H81.1094H81.1128H81.1162H81.1197H81.1231H81.1265H81.13H81.1334H81.1368H81.1402H81.1436H81.147H81.1504H81.1538H81.1572H81.1606H81.164H81.1674H81.1708H81.1741H81.1775H81.1809H81.1842H81.1876H81.191H81.1943H81.1977H81.201H81.2044H81.2077H81.2111H81.2144H81.2177H81.221H81.2244H81.2277H81.231H81.2343H81.2376H81.2409H81.2443H81.2476H81.2508H81.2541H81.2574H81.2607H81.264H81.2673H81.2706H81.2738H81.2771H81.2804H81.2836H81.2869H81.2902H81.2934H81.2967H81.2999H81.3032H81.3064H81.3096H81.3129H81.3161H81.3193H81.3225H81.3258H81.329H81.3322H81.3354H81.3386H81.3418H81.345H81.3482H81.3514H81.3546H81.3578H81.361H81.3642H81.3673H81.3705H81.3737H81.3769H81.38H81.3832H81.3864H81.3895H81.3927H81.3958H81.399H81.4021H81.4052H81.4084H81.4115H81.4146H81.4178H81.4209H81.424H81.4271H81.4303H81.4334H81.4365H81.4396H81.4427H81.4458H81.4489C88.3817 37.3994 93.8679 43.8341 93.8679 50.9705C93.8679 58.1205 88.1086 64.9372 81.1948 64.9372C78.4239 64.9372 74.6866 64.6917 71.0992 64.4561C70.2577 64.4008 69.4245 64.346 68.6139 64.2952Z" stroke="#181818"/>
<path d="M168.665 9.98114C168.976 7.45062 169.613 4.33915 169.87 3.12916L168.665 9.98114ZM168.665 9.98114C168.306 12.8086 168.191 17.0644 168.155 19.4926M168.665 9.98114L168.155 19.4926M168.155 19.4926C168.285 19.9268 168.386 20.2971 168.461 20.5848C168.517 20.7975 168.558 20.9652 168.585 21.0804C168.598 21.1381 168.609 21.1826 168.616 21.2131L168.623 21.2483L168.625 21.2577L168.626 21.2604L168.626 21.2612C168.626 21.2615 168.626 21.2617 168.138 21.3671L168.155 19.4926ZM128.881 2.91761L128.714 3.88774C128.714 3.88862 128.714 3.88862 128.714 3.88861L128.714 3.88868L128.714 3.88874L128.718 3.89015L128.736 3.89694C128.753 3.90322 128.779 3.91298 128.812 3.92613C128.879 3.95245 128.977 3.99218 129.095 4.0445C129.333 4.14961 129.651 4.30325 129.973 4.49834C130.298 4.69481 130.612 4.92432 130.855 5.17705C131.092 5.42259 131.235 5.66263 131.282 5.89066C131.315 6.44901 131.355 7.09821 131.4 7.8342C131.728 13.132 132.333 22.9265 132.333 35.7C132.333 51.1057 131.806 61.388 131.285 65.0999L131.284 65.1045C131.179 65.9037 130.624 66.4993 129.996 66.9355C129.688 67.1496 129.379 67.3127 129.134 67.4326C129.048 67.4743 128.975 67.5085 128.909 67.5394C128.878 67.5542 128.848 67.5682 128.819 67.582C128.777 67.6017 128.734 67.6226 128.697 67.6426L128.694 67.6442C128.672 67.6557 128.591 67.6984 128.525 67.7658L127.688 68.6164H128.881H157.336C166.973 68.6164 174.697 60.7495 174.697 50.9706C174.697 41.3239 166.971 33.4597 157.338 33.4586C157.337 33.4586 157.336 33.4586 157.336 33.4586L140.847 33.3286C140.978 21.1937 141.529 12.1389 141.821 7.34471C141.837 7.08256 141.853 6.83314 141.867 6.59666H155.228C159.738 6.59666 162.838 10.1795 164.847 13.9662C165.842 15.8409 166.543 17.7203 166.997 19.1337C167.223 19.8396 167.387 20.4271 167.493 20.837C167.547 21.0419 167.586 21.2023 167.612 21.3107C167.625 21.3649 167.634 21.4061 167.64 21.4334L167.647 21.4637L167.648 21.4709L167.649 21.4724L167.649 21.4725L167.649 21.4726C167.649 21.4726 167.649 21.4726 167.65 21.4724L168.638 21.3671V21.3668V21.3659L168.638 21.3621L168.638 21.3468L168.638 21.286C168.638 21.2324 168.638 21.1531 168.639 21.0506C168.64 20.8457 168.642 20.5479 168.646 20.1775C168.654 19.4366 168.67 18.4056 168.703 17.2454C168.769 14.9196 168.9 12.0942 169.161 10.0441L169.161 10.0421C169.356 8.45195 169.683 6.62342 169.962 5.1873C170.102 4.47036 170.229 3.85345 170.321 3.41593C170.367 3.19721 170.404 3.0234 170.43 2.90445L170.46 2.76842L170.467 2.7336L170.469 2.7249L170.47 2.72278L170.47 2.72228L170.47 2.72217L169.982 2.61377L170.47 2.72216L170.622 2.03643L169.924 2.11708L169.924 2.11709L169.924 2.11717L169.921 2.1175L169.909 2.11887L169.86 2.12438C169.816 2.12923 169.75 2.13641 169.664 2.14561C169.49 2.16402 169.232 2.19054 168.897 2.22283C168.225 2.28739 167.241 2.37499 165.993 2.46681C163.499 2.65039 159.953 2.85075 155.751 2.91761H128.881ZM129.157 68.5307C129.157 68.5308 129.16 68.529 129.166 68.5254C129.161 68.5289 129.158 68.5307 129.157 68.5307ZM141.725 64.2953C141.341 59.8055 140.854 51.1221 140.842 37.7739C144.574 37.5174 149.066 37.2716 152.461 37.2716H152.466H152.471H152.475H152.48H152.485H152.489H152.494H152.499H152.503H152.508H152.512H152.517H152.522H152.526H152.531H152.536H152.54H152.545H152.549H152.554H152.559H152.563H152.568H152.573H152.577H152.582H152.586H152.591H152.596H152.6H152.605H152.61H152.614H152.619H152.623H152.628H152.633H152.637H152.642H152.647H152.651H152.656H152.66H152.665H152.67H152.674H152.679H152.684H152.688H152.693H152.697H152.702H152.707H152.711H152.716H152.72H152.725H152.73H152.734H152.739H152.744H152.748H152.753H152.757H152.762H152.767H152.771H152.776H152.78H152.785H152.79H152.794H152.799H152.803H152.808H152.813H152.817H152.822H152.826H152.831H152.836H152.84H152.845H152.849H152.854H152.859H152.863H152.868H152.872H152.877H152.881H152.886H152.891H152.895H152.9H152.904H152.909H152.913H152.918H152.923H152.927H152.932H152.936H152.941H152.945H152.95H152.955H152.959H152.964H152.968H152.973H152.977H152.982H152.987H152.991H152.996H153H153.005H153.009H153.014H153.018H153.023H153.027H153.032H153.037H153.041H153.046H153.05H153.055H153.059H153.064H153.068H153.073H153.077H153.082H153.086H153.091H153.095H153.1H153.104H153.109H153.113H153.118H153.123H153.127H153.132H153.136H153.141H153.145H153.15H153.154H153.159H153.163H153.168H153.172H153.176H153.181H153.185H153.19H153.194H153.199H153.203H153.208H153.212H153.217H153.221H153.226H153.23H153.235H153.239H153.244H153.248H153.253H153.257H153.261H153.266H153.27H153.275H153.279H153.284H153.288H153.293H153.297H153.301H153.306H153.31H153.315H153.319H153.324H153.328H153.332H153.337H153.341H153.346H153.35H153.354H153.359H153.363H153.368H153.372H153.376H153.381H153.385H153.39H153.394H153.398H153.403H153.407H153.411H153.416H153.42H153.425H153.429H153.433H153.438H153.442H153.446H153.451H153.455H153.459H153.464H153.468H153.472H153.477H153.481H153.485H153.49H153.494H153.498H153.503H153.507H153.511H153.516H153.52H153.524H153.529H153.533H153.537H153.542H153.546H153.55H153.554H153.559H153.563H153.567H153.572H153.576H153.58H153.584H153.589H153.593H153.597H153.601H153.606H153.61H153.614H153.618H153.623H153.627H153.631H153.635H153.64H153.644H153.648H153.652H153.656H153.661H153.665H153.669H153.673H153.677H153.682H153.686H153.69H153.694H153.698H153.703H153.707H153.711H153.715H153.719H153.723H153.728H153.732H153.736H153.74H153.744H153.748H153.752H153.757H153.761H153.765H153.769H153.773H153.777H153.781H153.785H153.79H153.794H153.798H153.802H153.806H153.81H153.814H153.818H153.822H153.826H153.831H153.835H153.839H153.843H153.847H153.851H153.855H153.859H153.863H153.867H153.871H153.875H153.879H153.883H153.887H153.891H153.895H153.899H153.903H153.907H153.911H153.915H153.919H153.923H153.927H153.931H153.935H153.939H153.943H153.947H153.951H153.955H153.959H153.963H153.967H153.971H153.975H153.979H153.983H153.986H153.99H153.994H153.998H154.002H154.006H154.01H154.014H154.018H154.022H154.025H154.029H154.033H154.037H154.041H154.045H154.049H154.053H154.056H154.06H154.064H154.068H154.072H154.076H154.079H154.083H154.087H154.091H154.095H154.098H154.102H154.106H154.11H154.114H154.117H154.121H154.125H154.129H154.132H154.136H154.14H154.144H154.147H154.151H154.155H154.159H154.162H154.166H154.17H154.174H154.177H154.181H154.185H154.188H154.192H154.196H154.199H154.203H154.207H154.21H154.214H154.218H154.221H154.225H154.229H154.232H154.236H154.239H154.243H154.247H154.25H154.254H154.258H154.261H154.265H154.268H154.272H154.275H154.279H154.283H154.286H154.29H154.293H154.297H154.3H154.304H154.307H154.311H154.314H154.318H154.321H154.325H154.328H154.332H154.335H154.339H154.342H154.346H154.349H154.353H154.356H154.36H154.363H154.367H154.37H154.373H154.377H154.38H154.384H154.387H154.391H154.394H154.397H154.401H154.404H154.407H154.411H154.414H154.418H154.421H154.424H154.428H154.431H154.434H154.438H154.441H154.444H154.448H154.451H154.454H154.457H154.461H154.464H154.467H154.471H154.474H154.477H154.48H154.484H154.487H154.49H154.493H154.497H154.5H154.503H154.506H154.509H154.513H154.516H154.519H154.522H154.525H154.529H154.532H154.535H154.538H154.541H154.544H154.547H154.551H154.554H154.557H154.56C161.492 37.5333 166.847 43.8335 166.847 50.9706C166.847 58.1206 161.088 64.9374 154.174 64.9374C151.446 64.9374 147.861 64.6995 144.36 64.4672C143.471 64.4082 142.588 64.3496 141.725 64.2953Z" stroke="#181818"/>
<path d="M190.548 40.6887L190.549 40.6887L190.546 40.6761C189.898 37.9101 189.637 34.8692 189.637 31.9493C189.637 29.3065 189.896 26.9263 190.287 24.6737C191.966 16.2793 199.074 8.01076 208.478 5.91486L208.485 5.91325L208.493 5.91142C210.02 5.52327 211.687 5.39099 213.243 5.39099C220.973 5.39099 228.341 9.589 232.737 15.3738L232.737 15.3739L232.741 15.3788C235.707 19.1818 237.792 24.5928 238.969 30.0436C239.488 32.5507 239.749 35.4624 239.749 37.9771C239.749 40.4905 239.488 43.0105 239.227 44.8722C237.937 53.9187 230.837 62.3187 221.037 64.548L221.036 64.5478L221.024 64.5509C219.497 64.9391 217.83 65.0712 216.273 65.0712C208.012 65.0712 200.138 60.6029 196.147 54.3222C194.191 51.1385 191.587 45.703 190.548 40.6887ZM207.207 1.32186C193.413 4.31903 180.338 18.8523 180.338 35.9678C180.338 38.1262 180.47 40.4479 181.141 42.9143C184.751 60.961 198.265 70.3578 213.507 70.3578C216.308 70.3578 218.98 70.0862 221.916 69.4077C237.962 65.8714 248.916 51.4621 248.916 35.432C248.916 32.9864 248.649 30.4059 248.114 27.959C244.639 11.6533 230.339 0.506348 214.561 0.506348C212.022 0.506348 209.614 0.778166 207.207 1.32186Z" stroke="#181818"/>
<path d="M254.554 2.78333L254.378 3.75088C254.378 3.75151 254.378 3.75151 254.378 3.7515L254.378 3.75155L254.379 3.75174L254.383 3.75326L254.401 3.76023C254.417 3.76661 254.442 3.77638 254.474 3.78936C254.539 3.81535 254.632 3.85405 254.745 3.90389C254.971 4.00403 255.271 4.14696 255.573 4.31983C255.878 4.49459 256.165 4.68978 256.378 4.89045C256.602 5.10131 256.681 5.25945 256.692 5.35362L256.692 5.35363L256.693 5.36028C257.347 10.1464 257.874 20.1637 257.874 35.6998C257.874 50.4772 257.288 59.8878 257.001 64.5C256.984 64.7623 256.969 65.0092 256.955 65.2406C256.905 65.4796 256.755 65.7504 256.508 66.0398C256.256 66.3347 255.933 66.6154 255.604 66.8624C255.277 67.1079 254.955 67.3113 254.715 67.4536C254.595 67.5245 254.496 67.5796 254.428 67.6166C254.394 67.6351 254.368 67.6491 254.351 67.6581L254.332 67.6681L254.328 67.6702L254.327 67.6705L254.327 67.6706C254.327 67.6706 254.327 67.6706 254.327 67.6711L254.554 68.6162H269.835L270.002 67.6462C270.002 67.6452 270.002 67.6452 270.002 67.6452L270.002 67.6451L269.999 67.6438L269.981 67.6372C269.964 67.631 269.939 67.6213 269.906 67.6082C269.84 67.582 269.744 67.5421 269.627 67.4893C269.393 67.383 269.083 67.2269 268.772 67.0262C268.11 66.5994 267.612 66.0792 267.567 65.5302L267.565 65.5132L267.563 65.4963C267.042 62.0539 266.514 53.38 266.514 39.7184V36.8631L276.289 36.7357C276.291 36.7357 276.292 36.7357 276.293 36.7357C285.533 36.7339 292.993 29.1354 292.993 19.7595C292.993 10.3825 285.399 2.64941 276.158 2.6494L276.153 2.64943L260.482 2.78333H260.48H254.554ZM266.651 33.1906C266.783 21.2236 267.34 12.0456 267.631 7.26017C267.645 7.01491 267.66 6.78119 267.673 6.55922C268.845 6.47399 270.164 6.46377 271.442 6.46254V6.59646H271.942H273.908C280.442 6.85785 285.669 13.0201 285.669 19.8934C285.669 23.2412 284.274 26.5739 282.027 29.0695C279.781 31.5641 276.714 33.1906 273.391 33.1906H266.651Z" stroke="#181818"/>
<path d="M214.56 42.4994C213.539 39.2818 211.043 36.7464 207.869 35.7158C211.048 34.6851 213.556 32.1481 214.629 28.9319C215.597 32.1511 218.083 34.6851 221.253 35.7153C218.078 36.7456 215.581 39.2813 214.56 42.4994Z" fill="#C4A27A" stroke="#181818"/>
<path d="M3.87391 92.4902L3.87763 92.4912L3.9002 92.4976C3.92139 92.5038 3.95451 92.5138 3.99793 92.528C4.08487 92.5564 4.21253 92.6015 4.36794 92.666C4.67991 92.7956 5.09726 93.0012 5.52 93.3037C6.36254 93.9067 7.20397 94.8749 7.32101 96.3993L7.32109 96.4003C7.71488 101.398 8.10974 111.017 8.24143 123.811V125.92C8.24143 138.443 7.58345 148.587 7.322 151.206L7.32159 151.211C7.20774 152.465 6.37489 153.476 5.49326 154.202C5.05916 154.559 4.63091 154.832 4.31076 155.016C4.15116 155.108 4.01966 155.177 3.92937 155.222C3.88425 155.244 3.84952 155.261 3.82682 155.272L3.80204 155.283L3.79682 155.286L3.79661 155.286L3.79635 155.286C3.79637 155.286 3.79638 155.286 3.79683 155.287L4 156.242H20.9903L21.2073 155.293C21.2077 155.292 21.2077 155.292 21.2077 155.292L21.2075 155.292L21.207 155.292L21.2014 155.289L21.176 155.276C21.1528 155.265 21.1176 155.247 21.072 155.222C20.9807 155.174 20.8481 155.1 20.6874 155.004C20.3649 154.811 19.9339 154.528 19.497 154.169C18.6036 153.433 17.7816 152.456 17.6687 151.342C17.2748 146.605 16.7487 137.647 16.7487 123.94C16.7487 111.625 17.1308 100.383 17.8835 95.7776C17.9534 95.7549 18.0409 95.7312 18.1475 95.7075C18.4058 95.65 18.7471 95.5983 19.1653 95.5529C20.0004 95.4621 21.1009 95.4008 22.3728 95.3597C24.9149 95.2775 28.0998 95.2774 31.1317 95.2774C33.9613 95.2774 37.0803 95.3105 39.604 95.4254C40.867 95.483 41.9719 95.5607 42.8135 95.6636C43.2349 95.7151 43.5806 95.7718 43.8427 95.8328C43.9474 95.8572 44.0342 95.8813 44.1045 95.9044C44.505 99.2304 45.2512 111.642 45.2512 124.072C45.2512 138.027 44.7264 147.112 44.3327 151.853C44.0936 153.252 43.2497 154.165 42.4338 154.74C42.0241 155.029 41.6282 155.227 41.3352 155.353C41.1891 155.416 41.0699 155.46 40.9891 155.488C40.9487 155.502 40.918 155.512 40.8984 155.518L40.8776 155.524L40.8747 155.525L40.8743 155.525C40.8743 155.525 40.8744 155.525 40.875 155.527L41.0097 156.506H58L58.217 155.557C58.2175 155.556 58.2175 155.556 58.2175 155.556L58.2172 155.556L58.217 155.556L58.2117 155.553L58.1868 155.541C58.1639 155.529 58.129 155.511 58.0837 155.487C57.9929 155.438 57.8606 155.363 57.6996 155.265C57.3768 155.067 56.9429 154.773 56.4989 154.39C55.6018 153.618 54.7239 152.537 54.5461 151.203C54.1529 146.468 53.7586 137.513 53.7586 123.808C53.7586 111.28 54.1535 101.538 54.6775 96.4159C54.7871 95.4962 55.5414 94.5834 56.4188 93.8183C56.8445 93.4471 57.2731 93.1327 57.6162 92.892C57.7306 92.8118 57.8317 92.7424 57.9221 92.6803C57.9695 92.6478 58.0139 92.6173 58.0557 92.5883L58.0602 92.5852C58.1568 92.5183 58.2819 92.4316 58.3539 92.3596L59.2055 91.5063H58H4L3.87458 92.488C3.87397 92.4902 3.87394 92.4902 3.87391 92.4902ZM3.87391 92.4902L3.87348 92.4901C3.87319 92.49 3.87312 92.49 3.87325 92.49L3.87361 92.4901L3.87391 92.4902Z" stroke="#181818"/>
<path d="M110.487 156.894L110 157.006L110.487 156.893L110.487 156.893L110.487 156.893L110.486 156.891L110.485 156.882L110.477 156.849L110.447 156.718C110.421 156.604 110.383 156.436 110.336 156.225C110.242 155.802 110.111 155.203 109.963 154.501C109.669 153.101 109.31 151.294 109.049 149.653C108.854 147.683 108.723 144.889 108.641 142.576C108.6 141.419 108.571 140.385 108.553 139.641C108.544 139.269 108.537 138.969 108.533 138.763L108.528 138.525L108.527 138.464L108.526 138.448L108.526 138.444L108.526 138.443L108.526 138.443L108.026 138.452L108.526 138.443L107.539 138.345C107.538 138.345 107.538 138.345 107.538 138.345L107.538 138.345L107.538 138.345L107.538 138.346L107.536 138.353L107.529 138.383C107.523 138.41 107.514 138.45 107.501 138.503C107.475 138.61 107.436 138.767 107.383 138.968C107.277 139.37 107.114 139.947 106.889 140.64C106.438 142.028 105.742 143.875 104.756 145.721C102.767 149.45 99.7021 152.996 95.2597 153.06H78.0984C77.8211 149.024 77.2196 140.183 77.0836 125.964H88.8055C91.906 126.094 93.8685 127.174 95.0516 128.195C95.647 128.709 96.0506 129.213 96.3034 129.585C96.4298 129.77 96.5182 129.922 96.5737 130.025C96.6015 130.077 96.6211 130.116 96.633 130.14C96.639 130.153 96.6431 130.161 96.6453 130.166L96.6467 130.169L96.647 130.17C96.6469 130.17 96.6469 130.17 96.6488 130.169L97.6053 129.97V118.175L96.6394 118.001C96.637 118 96.637 118 96.637 118L96.6361 118.002C96.6343 118.007 96.6309 118.015 96.6259 118.027C96.6158 118.051 96.5989 118.089 96.5745 118.139C96.5256 118.239 96.4465 118.389 96.3302 118.571C96.0976 118.935 95.7173 119.431 95.1343 119.933C93.9762 120.931 91.9847 121.984 88.6767 122.049C88.676 122.049 88.6753 122.049 88.6746 122.049L76.9525 122.176C77.0875 109.363 77.5761 99.8397 77.9592 95.2173H95.0001C99.5117 95.2173 102.607 98.7032 104.61 102.378C105.603 104.199 106.303 106.025 106.756 107.398C106.982 108.083 107.145 108.654 107.252 109.052C107.305 109.251 107.344 109.407 107.37 109.512C107.382 109.565 107.392 109.605 107.398 109.631L107.405 109.66L107.406 109.667L107.407 109.669L107.407 109.669L107.407 109.669C107.407 109.669 107.407 109.669 107.408 109.669L108.395 109.561V109.56V109.559L108.395 109.556L108.395 109.54L108.395 109.48C108.395 109.427 108.395 109.349 108.396 109.248C108.397 109.045 108.399 108.75 108.403 108.384C108.411 107.651 108.428 106.631 108.46 105.483C108.526 103.185 108.657 100.394 108.916 98.3664C109.177 96.7237 109.537 94.9141 109.831 93.5113C109.979 92.8096 110.11 92.211 110.204 91.7881C110.251 91.5766 110.289 91.4091 110.315 91.2946L110.345 91.1637L110.353 91.1302L110.355 91.1219L110.355 91.1198L110.356 91.1193L110.356 91.1192L110.526 90.3836L109.782 90.5138L109.782 90.5138L109.782 90.5139L109.782 90.514L109.779 90.5145L109.766 90.5166L109.716 90.5251C109.671 90.5327 109.603 90.5439 109.513 90.5582C109.334 90.5867 109.068 90.6277 108.723 90.677C108.031 90.7756 107.022 90.9074 105.754 91.0392C103.218 91.3029 99.6503 91.5667 95.5263 91.5667H65L64.7937 92.5213C64.7934 92.522 64.7934 92.522 64.7934 92.522L64.7936 92.5221L64.7939 92.5222L64.7979 92.524L64.8166 92.5328C64.8335 92.5408 64.8594 92.5531 64.8929 92.5696C64.96 92.6025 65.0574 92.6518 65.1753 92.7156C65.4121 92.8437 65.7264 93.0276 66.0421 93.2525C66.3601 93.4791 66.6646 93.7367 66.8925 94.009C67.123 94.2844 67.2446 94.5379 67.2651 94.7611C67.6587 99.3869 68.3158 109.577 68.3158 123.874C68.3158 139.582 67.6839 148.796 67.4116 152.766L67.3979 152.966C67.3485 153.204 67.1965 153.481 66.9467 153.782C66.6931 154.087 66.3683 154.382 66.0384 154.643C65.7102 154.903 65.388 155.12 65.147 155.274C65.027 155.35 64.928 155.41 64.8597 155.45C64.8256 155.47 64.7993 155.485 64.7818 155.495L64.7626 155.506L64.7583 155.508L64.7577 155.509L64.7576 155.509L64.7575 155.509L64.7575 155.509L63.0656 156.446H65H95.658C99.782 156.446 103.35 156.71 105.886 156.974C107.154 157.105 108.163 157.237 108.854 157.336C109.2 157.385 109.466 157.426 109.645 157.455C109.734 157.469 109.802 157.48 109.847 157.488L109.898 157.496L109.91 157.498L109.913 157.499L109.914 157.499L110.658 157.629L110.487 156.894Z" stroke="#181818"/>
<path d="M118 91.6383L117.823 92.6052C117.823 92.6059 117.823 92.6059 117.823 92.6059L117.823 92.6059L117.823 92.6061L117.827 92.6076L117.845 92.6144C117.861 92.6206 117.885 92.6303 117.916 92.643C117.979 92.6686 118.07 92.7066 118.18 92.7556C118.4 92.8542 118.693 92.9947 118.986 93.1647C119.283 93.3366 119.562 93.5283 119.769 93.7252C119.986 93.9319 120.062 94.0864 120.073 94.1781L120.073 94.1781L120.074 94.1847C120.711 98.8994 121.226 108.767 121.226 124.072C121.226 138.63 120.654 147.9 120.374 152.444C120.358 152.702 120.343 152.945 120.329 153.173C120.281 153.408 120.135 153.674 119.895 153.958C119.65 154.248 119.335 154.524 119.015 154.767C118.696 155.008 118.383 155.208 118.149 155.348C118.032 155.418 117.936 155.472 117.87 155.509C117.837 155.527 117.811 155.541 117.795 155.549L117.776 155.559L117.772 155.561L117.772 155.562L117.771 155.562C117.771 155.562 117.771 155.562 117.772 155.562L118 156.506H132.903L133.072 155.537C133.072 155.536 133.072 155.536 133.072 155.536L133.072 155.536L133.072 155.536L133.069 155.535L133.051 155.528C133.044 155.525 133.034 155.522 133.023 155.517C133.011 155.512 132.996 155.507 132.979 155.5C132.914 155.474 132.821 155.435 132.708 155.383C132.48 155.278 132.178 155.125 131.875 154.928C131.231 154.508 130.747 153.998 130.703 153.459L130.702 153.442L130.699 153.425C130.191 150.034 129.677 141.489 129.677 128.031V125.226L139.198 125.1C139.199 125.1 139.2 125.1 139.201 125.1C148.224 125.098 155.5 117.605 155.5 108.369C155.5 99.1326 148.094 91.5063 139.069 91.5063L139.065 91.5064L123.781 91.6383H123.779H118ZM129.682 121.593C129.811 109.808 130.354 100.769 130.637 96.0561C130.652 95.8169 130.665 95.5888 130.678 95.372C131.814 95.2891 133.091 95.2789 134.33 95.2776V95.4095H134.83H136.747C143.107 95.6668 148.205 101.729 148.205 108.501C148.205 111.799 146.844 115.081 144.654 117.538C142.465 119.994 139.478 121.593 136.243 121.593H129.682ZM117.771 155.562C117.771 155.562 117.771 155.562 117.771 155.562H117.771Z" stroke="#181818"/>
<path d="M163 91.6387L162.766 92.5799C162.765 92.5803 162.765 92.5803 162.765 92.5803L162.765 92.5803L162.765 92.5803L162.766 92.5808L162.771 92.5834L162.792 92.5946C162.811 92.6047 162.838 92.62 162.874 92.6401C162.946 92.6803 163.051 92.7395 163.177 92.8145C163.43 92.9647 163.768 93.176 164.112 93.4216C164.458 93.6688 164.798 93.9423 165.062 94.2155C165.334 94.4975 165.474 94.7266 165.51 94.8849C165.892 96.8902 166.12 100.32 166.25 105.193C166.38 110.062 166.413 116.337 166.413 124.006C166.413 139.439 165.893 148.674 165.504 153.028C165.456 153.267 165.305 153.545 165.056 153.847C164.805 154.152 164.483 154.446 164.156 154.706C163.831 154.965 163.511 155.182 163.273 155.335C163.154 155.411 163.056 155.471 162.988 155.511C162.954 155.531 162.928 155.546 162.911 155.556L162.892 155.567L162.887 155.569L162.887 155.57L162.887 155.57L162.887 155.57L162.887 155.57L161.207 156.506H163.13H191.304C200.843 156.506 208.5 148.876 208.5 139.213C208.5 130.689 202.335 123.508 194.239 122.098C198.454 119.011 201.196 114.055 201.196 108.403C201.196 99.1417 193.674 91.5063 184.522 91.5063L184.518 91.5064L168.87 91.6387H168.867H163ZM188.535 125.563L188.535 125.563L188.547 125.564C195.412 125.817 200.844 132.166 200.717 139.336L200.717 139.336V139.345C200.717 146.399 195.018 153.126 188.174 153.126C185.864 153.126 182.945 152.898 179.979 152.666C178.594 152.557 177.2 152.448 175.852 152.361C175.472 147.915 174.99 139.098 174.978 125.561C175.722 125.553 176.5 125.527 177.292 125.501L177.397 125.498C178.408 125.465 179.444 125.432 180.478 125.432C183.484 125.432 186.336 125.432 188.535 125.563ZM175.817 96.0299C175.833 95.767 175.848 95.517 175.862 95.2802C176.563 95.2711 177.26 95.2438 177.938 95.2168L177.983 95.215C178.801 95.1824 179.591 95.151 180.348 95.151H182.034C188.501 95.409 193.674 101.49 193.674 108.271C193.674 115.055 188.109 121.523 181.522 121.523H174.853C174.983 109.68 175.527 100.763 175.817 96.0299Z" stroke="#181818"/>
<path d="M226.86 121.933C226.991 109.829 227.544 100.629 227.831 95.8415C227.856 95.4366 227.878 95.0632 227.898 94.7223C227.921 94.4535 228.05 94.1792 228.272 93.9031C228.496 93.6256 228.794 93.3716 229.106 93.1528C229.416 92.9355 229.725 92.763 229.958 92.6446C230.073 92.5856 230.169 92.5407 230.234 92.511C230.267 92.4961 230.292 92.4851 230.309 92.478L230.327 92.4704L230.33 92.4689L230.331 92.4689L230.331 92.4688C230.331 92.4688 230.331 92.4688 230.33 92.468L230.141 91.5063H215L214.781 92.4553C214.781 92.4559 214.781 92.4559 214.781 92.4559L214.782 92.4561L214.785 92.4579L214.803 92.4667C214.819 92.4747 214.843 92.4872 214.875 92.5038C214.938 92.537 215.03 92.5868 215.142 92.6512C215.367 92.7806 215.668 92.9668 215.974 93.1948C216.282 93.4241 216.584 93.687 216.82 93.9677C217.056 94.2487 217.201 94.5188 217.247 94.7666C217.893 99.2871 218.285 109.701 218.285 124.305C218.285 138.517 217.749 147.547 217.454 152.502C217.424 153.005 217.397 153.466 217.373 153.886C217.35 154.117 217.219 154.4 216.971 154.723C216.727 155.041 216.402 155.354 216.066 155.634C215.733 155.913 215.401 156.15 215.152 156.317C215.027 156.4 214.925 156.466 214.854 156.51C214.818 156.532 214.791 156.549 214.772 156.56L214.752 156.572L214.748 156.575L214.747 156.575L214.747 156.575L214.747 156.575L214.747 156.575L213.16 157.506H215L221.396 157.506L221.399 157.506L243.193 157.372C243.193 157.372 243.194 157.372 243.195 157.372C252.749 157.371 260.4 149.496 260.4 139.718C260.4 129.939 252.75 122.064 243.195 122.063C243.194 122.063 243.193 122.063 243.193 122.063L226.86 121.933ZM279.87 157.238L280.077 156.285C280.077 156.283 280.077 156.283 280.077 156.283L280.077 156.283L280.077 156.283L280.072 156.281L280.048 156.27C280.026 156.259 279.992 156.242 279.948 156.219C279.859 156.173 279.729 156.102 279.571 156.007C279.254 155.815 278.827 155.527 278.389 155.14C277.511 154.365 276.63 153.232 276.452 151.731C276.062 146.787 275.671 137.691 275.671 124.305C275.671 111.444 276.062 101.814 276.582 96.6126L276.582 96.6126L276.583 96.6034C276.697 95.1908 277.557 94.166 278.447 93.4729C278.889 93.1289 279.325 92.8773 279.651 92.7119C279.814 92.6295 279.947 92.5691 280.039 92.53C280.085 92.5104 280.12 92.4962 280.143 92.4872L280.167 92.4776L280.172 92.4758L280.172 92.4757L280.172 92.4757C280.172 92.4757 280.172 92.4757 280.172 92.4743L280 91.5063H263.163L262.922 92.4437C262.922 92.4443 262.922 92.4443 262.922 92.4443L262.922 92.4444L262.922 92.4448L262.928 92.4481L262.955 92.4632C262.979 92.477 263.015 92.4982 263.062 92.5266C263.157 92.5834 263.294 92.6685 263.459 92.7797C263.792 93.0027 264.237 93.3273 264.688 93.7344C265.608 94.5657 266.468 95.6628 266.581 96.8772L266.581 96.8772L266.581 96.8829C266.969 100.605 267.1 108.082 267.1 116.532C267.1 130.196 266.709 145.856 266.319 151.202C266.203 152.433 265.326 153.7 264.395 154.706C263.938 155.199 263.489 155.609 263.153 155.895C262.985 156.038 262.846 156.149 262.751 156.224C262.703 156.262 262.666 156.29 262.641 156.309L262.613 156.329L262.607 156.334L262.606 156.335L262.606 156.335L262.606 156.335L262.606 156.335L261.374 157.238H262.902H279.87ZM227.599 152.916C227.219 148.423 226.736 139.729 226.725 126.246C230.422 125.989 234.87 125.743 238.233 125.743H238.237H238.242H238.247H238.251H238.256H238.26H238.265H238.27H238.274H238.279H238.283H238.288H238.293H238.297H238.302H238.306H238.311H238.315H238.32H238.325H238.329H238.334H238.338H238.343H238.348H238.352H238.357H238.361H238.366H238.37H238.375H238.38H238.384H238.389H238.393H238.398H238.403H238.407H238.412H238.416H238.421H238.425H238.43H238.435H238.439H238.444H238.448H238.453H238.457H238.462H238.467H238.471H238.476H238.48H238.485H238.489H238.494H238.499H238.503H238.508H238.512H238.517H238.521H238.526H238.531H238.535H238.54H238.544H238.549H238.553H238.558H238.563H238.567H238.572H238.576H238.581H238.585H238.59H238.594H238.599H238.604H238.608H238.613H238.617H238.622H238.626H238.631H238.635H238.64H238.644H238.649H238.654H238.658H238.663H238.667H238.672H238.676H238.681H238.685H238.69H238.694H238.699H238.703H238.708H238.712H238.717H238.721H238.726H238.731H238.735H238.74H238.744H238.749H238.753H238.758H238.762H238.767H238.771H238.776H238.78H238.785H238.789H238.794H238.798H238.803H238.807H238.812H238.816H238.821H238.825H238.83H238.834H238.839H238.843H238.848H238.852H238.857H238.861H238.865H238.87H238.874H238.879H238.883H238.888H238.892H238.897H238.901H238.906H238.91H238.915H238.919H238.924H238.928H238.932H238.937H238.941H238.946H238.95H238.955H238.959H238.964H238.968H238.972H238.977H238.981H238.986H238.99H238.995H238.999H239.003H239.008H239.012H239.017H239.021H239.025H239.03H239.034H239.039H239.043H239.048H239.052H239.056H239.061H239.065H239.069H239.074H239.078H239.083H239.087H239.091H239.096H239.1H239.105H239.109H239.113H239.118H239.122H239.126H239.131H239.135H239.139H239.144H239.148H239.152H239.157H239.161H239.166H239.17H239.174H239.179H239.183H239.187H239.192H239.196H239.2H239.204H239.209H239.213H239.217H239.222H239.226H239.23H239.235H239.239H239.243H239.248H239.252H239.256H239.26H239.265H239.269H239.273H239.277H239.282H239.286H239.29H239.295H239.299H239.303H239.307H239.312H239.316H239.32H239.324H239.329H239.333H239.337H239.341H239.345H239.35H239.354H239.358H239.362H239.367H239.371H239.375H239.379H239.383H239.388H239.392H239.396H239.4H239.404H239.409H239.413H239.417H239.421H239.425H239.429H239.434H239.438H239.442H239.446H239.45H239.454H239.459H239.463H239.467H239.471H239.475H239.479H239.483H239.487H239.492H239.496H239.5H239.504H239.508H239.512H239.516H239.52H239.524H239.529H239.533H239.537H239.541H239.545H239.549H239.553H239.557H239.561H239.565H239.569H239.573H239.577H239.581H239.585H239.589H239.593H239.597H239.602H239.606H239.61H239.614H239.618H239.622H239.626H239.63H239.634H239.638H239.642H239.646H239.65H239.654H239.658H239.661H239.665H239.669H239.673H239.677H239.681H239.685H239.689H239.693H239.697H239.701H239.705H239.709H239.713H239.717H239.721H239.724H239.728H239.732H239.736H239.74H239.744H239.748H239.752H239.756H239.759H239.763H239.767H239.771H239.775H239.779H239.783H239.786H239.79H239.794H239.798H239.802H239.806H239.809H239.813H239.817H239.821H239.825H239.828H239.832H239.836H239.84H239.844H239.847H239.851H239.855H239.859H239.862H239.866H239.87H239.874H239.877H239.881H239.885H239.889H239.892H239.896H239.9H239.903H239.907H239.911H239.915H239.918H239.922H239.926H239.929H239.933H239.937H239.94H239.944H239.948H239.951H239.955H239.959H239.962H239.966H239.969H239.973H239.977H239.98H239.984H239.988H239.991H239.995H239.998H240.002H240.005H240.009H240.013H240.016H240.02H240.023H240.027H240.03H240.034H240.037H240.041H240.044H240.048H240.051H240.055H240.058H240.062H240.065H240.069H240.072H240.076H240.079H240.083H240.086H240.09H240.093H240.097H240.1H240.104H240.107H240.11H240.114H240.117H240.121H240.124H240.127H240.131H240.134H240.138H240.141H240.144H240.148H240.151H240.154H240.158H240.161H240.165H240.168H240.171H240.174H240.178H240.181H240.184H240.188H240.191H240.194H240.198H240.201H240.204H240.207H240.211H240.214H240.217H240.22H240.224H240.227H240.23H240.233H240.237H240.24H240.243H240.246H240.249H240.253H240.256H240.259H240.262H240.265H240.268H240.272H240.275H240.278H240.281H240.284H240.287H240.29H240.294H240.297H240.3H240.303H240.306H240.309H240.312C247.174 126.005 252.612 132.439 252.612 139.584C252.612 146.742 246.903 153.558 240.06 153.558C237.315 153.558 233.613 153.312 230.058 153.076C229.226 153.021 228.402 152.967 227.599 152.916Z" stroke="#181818"/>
<path d="M313.88 125.766C320.037 137.483 324.411 146.283 326.753 151.31C326.887 151.71 326.984 152.019 326.984 152.312C326.984 153.226 326.406 154.059 325.747 154.665C325.425 154.962 325.107 155.182 324.881 155.308C324.829 155.337 324.786 155.359 324.752 155.374H324.688H324.188V155.874C324.188 156.004 324.237 156.155 324.365 156.268C324.476 156.367 324.597 156.392 324.662 156.399C324.772 156.412 324.871 156.39 324.929 156.374H342L342.174 155.407C342.174 155.406 342.174 155.406 342.174 155.406L342.174 155.406L342.17 155.404L342.148 155.396C342.128 155.388 342.097 155.375 342.055 155.357C341.971 155.321 341.847 155.266 341.69 155.189C341.377 155.034 340.935 154.794 340.432 154.454C339.426 153.773 338.186 152.7 337.234 151.129L337.234 151.129L337.231 151.124C334.04 145.986 328.319 136.363 321.533 123.704L313.88 125.766ZM313.88 125.766L298.885 151.639L298.881 151.647L298.88 151.647C298.522 152.238 298.42 152.678 298.42 153.103C298.42 153.873 298.884 154.47 299.431 154.906C299.699 155.12 299.969 155.281 300.174 155.388C300.276 155.441 300.36 155.481 300.417 155.506C300.446 155.519 300.467 155.528 300.481 155.533L300.495 155.539L300.497 155.54L300.497 155.54C300.497 155.54 300.497 155.54 300.497 155.541L300.317 156.506H287L286.888 155.522C286.887 155.519 286.887 155.519 286.887 155.519L286.887 155.519L286.887 155.519L286.892 155.518L286.92 155.511C286.945 155.504 286.984 155.494 287.037 155.478C287.142 155.448 287.298 155.399 287.497 155.326C287.893 155.182 288.455 154.945 289.102 154.581C290.396 153.853 292.029 152.616 293.374 150.584" stroke="#181818"/>
</svg>
