<svg width="339" height="20" viewBox="0 0 339 20" fill="none" xmlns="http://www.w3.org/2000/svg">
<path d="M317.917 16V6.43L315.885 7.6525V6.415L317.917 5.2H319.035V16H317.917ZM321.58 15.9925L321.587 14.9875L326.47 10.5775C326.89 10.1975 327.167 9.8375 327.302 9.4975C327.442 9.1525 327.512 8.7925 327.512 8.4175C327.512 7.9725 327.407 7.57 327.197 7.21C326.987 6.85 326.705 6.565 326.35 6.355C325.995 6.14 325.597 6.0325 325.157 6.0325C324.697 6.0325 324.287 6.1425 323.927 6.3625C323.567 6.5825 323.282 6.8725 323.072 7.2325C322.867 7.5925 322.767 7.985 322.772 8.41H321.647C321.647 7.755 321.802 7.1675 322.112 6.6475C322.422 6.1275 322.842 5.72 323.372 5.425C323.902 5.125 324.502 4.975 325.172 4.975C325.827 4.975 326.415 5.13 326.935 5.44C327.46 5.745 327.872 6.16 328.172 6.685C328.477 7.205 328.63 7.785 328.63 8.425C328.63 8.875 328.575 9.2725 328.465 9.6175C328.36 9.9575 328.192 10.275 327.962 10.57C327.737 10.86 327.45 11.16 327.1 11.47L322.765 15.385L322.592 14.935H328.63V15.9925H321.58ZM333.622 16.225C333.062 16.225 332.544 16.11 332.069 15.88C331.594 15.65 331.189 15.3325 330.854 14.9275C330.519 14.5225 330.279 14.0575 330.134 13.5325L331.192 13.2475C331.287 13.6375 331.459 13.975 331.709 14.26C331.959 14.54 332.252 14.7575 332.587 14.9125C332.927 15.0675 333.282 15.145 333.652 15.145C334.132 15.145 334.562 15.03 334.942 14.8C335.327 14.565 335.632 14.255 335.857 13.87C336.082 13.485 336.194 13.0625 336.194 12.6025C336.194 12.1275 336.077 11.7 335.842 11.32C335.607 10.935 335.297 10.63 334.912 10.405C334.527 10.18 334.107 10.0675 333.652 10.0675C333.142 10.0675 332.702 10.18 332.332 10.405C331.962 10.625 331.667 10.9025 331.447 11.2375L330.442 10.8175L330.772 5.2H336.539V6.2575H331.259L331.807 5.74L331.514 10.5325L331.237 10.165C331.547 9.81 331.922 9.5325 332.362 9.3325C332.802 9.1325 333.264 9.0325 333.749 9.0325C334.414 9.0325 335.014 9.1925 335.549 9.5125C336.084 9.8275 336.509 10.255 336.824 10.795C337.139 11.335 337.297 11.9375 337.297 12.6025C337.297 13.2625 337.129 13.8675 336.794 14.4175C336.459 14.9625 336.014 15.4 335.459 15.73C334.904 16.06 334.292 16.225 333.622 16.225Z" fill="black"/>
<path d="M3.9525 16.2175C3.4175 16.2175 2.925 16.1225 2.475 15.9325C2.025 15.7425 1.6375 15.4725 1.3125 15.1225C0.9875 14.7675 0.75 14.345 0.6 13.855L1.65 13.54C1.83 14.075 2.125 14.48 2.535 14.755C2.95 15.03 3.4175 15.1625 3.9375 15.1525C4.4175 15.1425 4.83 15.035 5.175 14.83C5.525 14.625 5.7925 14.34 5.9775 13.975C6.1625 13.61 6.255 13.1875 6.255 12.7075C6.255 11.9725 6.04 11.3825 5.61 10.9375C5.185 10.4875 4.6225 10.2625 3.9225 10.2625C3.7275 10.2625 3.5225 10.29 3.3075 10.345C3.0925 10.395 2.8925 10.4675 2.7075 10.5625L2.1525 9.685L6.3525 5.8075L6.5325 6.2575H1.0275V5.2H7.2675V6.2725L3.6075 9.7675L3.5925 9.3325C4.3425 9.2375 5.0025 9.3225 5.5725 9.5875C6.1425 9.8525 6.5875 10.2575 6.9075 10.8025C7.2325 11.3425 7.395 11.9775 7.395 12.7075C7.395 13.3975 7.245 14.0075 6.945 14.5375C6.65 15.0625 6.2425 15.475 5.7225 15.775C5.2025 16.07 4.6125 16.2175 3.9525 16.2175ZM12.5285 16.225C11.9685 16.225 11.451 16.11 10.976 15.88C10.501 15.65 10.096 15.3325 9.76102 14.9275C9.42602 14.5225 9.18602 14.0575 9.04102 13.5325L10.0985 13.2475C10.1935 13.6375 10.366 13.975 10.616 14.26C10.866 14.54 11.1585 14.7575 11.4935 14.9125C11.8335 15.0675 12.1885 15.145 12.5585 15.145C13.0385 15.145 13.4685 15.03 13.8485 14.8C14.2335 14.565 14.5385 14.255 14.7635 13.87C14.9885 13.485 15.101 13.0625 15.101 12.6025C15.101 12.1275 14.9835 11.7 14.7485 11.32C14.5135 10.935 14.2035 10.63 13.8185 10.405C13.4335 10.18 13.0135 10.0675 12.5585 10.0675C12.0485 10.0675 11.6085 10.18 11.2385 10.405C10.8685 10.625 10.5735 10.9025 10.3535 11.2375L9.34852 10.8175L9.67852 5.2H15.446V6.2575H10.166L10.7135 5.74L10.421 10.5325L10.1435 10.165C10.4535 9.81 10.8285 9.5325 11.2685 9.3325C11.7085 9.1325 12.171 9.0325 12.656 9.0325C13.321 9.0325 13.921 9.1925 14.456 9.5125C14.991 9.8275 15.416 10.255 15.731 10.795C16.046 11.335 16.2035 11.9375 16.2035 12.6025C16.2035 13.2625 16.036 13.8675 15.701 14.4175C15.366 14.9625 14.921 15.4 14.366 15.73C13.811 16.06 13.1985 16.225 12.5285 16.225Z" fill="black"/>
<line x1="35" y1="11.5" x2="291" y2="11.5" stroke="black"/>
<rect x="32" y="5" width="14.02" height="14" fill="black"/>
<rect x="287" y="5" width="14.02" height="14" fill="black"/>
</svg>
