<svg width="339" height="20" viewBox="0 0 339 20" fill="none" xmlns="http://www.w3.org/2000/svg">
<path d="M318.298 16V6.43L316.266 7.6525V6.415L318.298 5.2H319.416V16H318.298ZM322.838 16L326.813 6.2725H321.81V5.2H327.99V6.2725L324.023 16H322.838ZM333.442 16.225C332.767 16.225 332.152 16.0625 331.597 15.7375C331.047 15.4075 330.607 14.9625 330.277 14.4025C329.952 13.8375 329.79 13.2025 329.79 12.4975V8.755C329.79 8.03 329.952 7.385 330.277 6.82C330.602 6.25 331.045 5.8025 331.605 5.4775C332.17 5.1475 332.81 4.9825 333.525 4.9825C334.14 4.9825 334.71 5.1175 335.235 5.3875C335.765 5.6575 336.197 6.035 336.532 6.52L335.685 7.2175C335.455 6.8575 335.15 6.57 334.77 6.355C334.39 6.14 333.975 6.0325 333.525 6.0325C333.02 6.0325 332.57 6.155 332.175 6.4C331.78 6.645 331.47 6.9675 331.245 7.3675C331.02 7.7625 330.907 8.1925 330.907 8.6575V11.0125L330.63 10.6975C330.945 10.2025 331.357 9.8025 331.867 9.4975C332.382 9.1925 332.942 9.04 333.547 9.04C334.217 9.04 334.82 9.2 335.355 9.52C335.89 9.835 336.315 10.2625 336.63 10.8025C336.945 11.3425 337.102 11.9475 337.102 12.6175C337.102 13.2825 336.935 13.8875 336.6 14.4325C336.27 14.9775 335.827 15.4125 335.272 15.7375C334.722 16.0625 334.112 16.225 333.442 16.225ZM333.442 15.1525C333.912 15.1525 334.34 15.04 334.725 14.815C335.115 14.59 335.422 14.285 335.647 13.9C335.877 13.515 335.992 13.0875 335.992 12.6175C335.992 12.1475 335.877 11.72 335.647 11.335C335.422 10.945 335.117 10.6375 334.732 10.4125C334.347 10.1825 333.92 10.0675 333.45 10.0675C332.98 10.0675 332.552 10.1825 332.167 10.4125C331.782 10.6375 331.475 10.945 331.245 11.335C331.02 11.72 330.907 12.1475 330.907 12.6175C330.907 13.0825 331.02 13.5075 331.245 13.8925C331.47 14.2775 331.775 14.585 332.16 14.815C332.545 15.04 332.972 15.1525 333.442 15.1525Z" fill="black"/>
<path d="M5.805 16V13.9075H0.75V12.8575L4.365 5.2H5.6025L1.9875 12.8575H5.805V9.7075H6.915V12.8575H8.0925V13.9075H6.915V16H5.805ZM13.3062 4.9825C13.9862 4.9825 14.6012 5.1475 15.1512 5.4775C15.7062 5.8025 16.1462 6.2475 16.4712 6.8125C16.7962 7.3725 16.9587 8.0025 16.9587 8.7025V12.4525C16.9587 13.1725 16.7962 13.8175 16.4712 14.3875C16.1462 14.9575 15.7012 15.4075 15.1362 15.7375C14.5762 16.0625 13.9387 16.225 13.2237 16.225C12.6087 16.225 12.0387 16.09 11.5137 15.82C10.9937 15.545 10.5637 15.1675 10.2237 14.6875L11.0637 13.99C11.2937 14.345 11.5987 14.63 11.9787 14.845C12.3637 15.06 12.7787 15.1675 13.2237 15.1675C13.7337 15.1675 14.1837 15.0475 14.5737 14.8075C14.9687 14.5625 15.2787 14.2425 15.5037 13.8475C15.7337 13.4475 15.8487 13.015 15.8487 12.55V10.195L16.1187 10.51C15.8087 11.005 15.3962 11.405 14.8812 11.71C14.3712 12.015 13.8112 12.1675 13.2012 12.1675C12.5362 12.1675 11.9337 12.0075 11.3937 11.6875C10.8587 11.3675 10.4337 10.9375 10.1187 10.3975C9.80867 9.8575 9.65367 9.255 9.65367 8.59C9.65367 7.925 9.81867 7.32 10.1487 6.775C10.4787 6.225 10.9212 5.79 11.4762 5.47C12.0312 5.145 12.6412 4.9825 13.3062 4.9825ZM13.3062 6.0475C12.8362 6.0475 12.4087 6.1625 12.0237 6.3925C11.6387 6.6175 11.3312 6.9225 11.1012 7.3075C10.8762 7.6925 10.7637 8.12 10.7637 8.59C10.7637 9.06 10.8762 9.4875 11.1012 9.8725C11.3262 10.2575 11.6312 10.565 12.0162 10.795C12.4012 11.02 12.8287 11.1325 13.2987 11.1325C13.7687 11.1325 14.1962 11.02 14.5812 10.795C14.9712 10.565 15.2787 10.2575 15.5037 9.8725C15.7337 9.4875 15.8487 9.06 15.8487 8.59C15.8487 8.125 15.7337 7.7 15.5037 7.315C15.2787 6.93 14.9737 6.6225 14.5887 6.3925C14.2037 6.1625 13.7762 6.0475 13.3062 6.0475Z" fill="black"/>
<line x1="35" y1="11.5" x2="291" y2="11.5" stroke="black"/>
<rect x="32" y="5" width="14.02" height="14" fill="black"/>
<rect x="287" y="5" width="14.02" height="14" fill="black"/>
</svg>
