<svg width="41" height="41" viewBox="0 0 41 41" fill="none" xmlns="http://www.w3.org/2000/svg">
<circle cx="20.5" cy="20.5" r="20.5" fill="black"/>
<path d="M27.672 24.4637L27.5817 24.2858C27.3289 23.6986 24.2231 22.809 23.9703 22.7912L23.7717 22.809C23.3924 22.8801 22.9771 23.2182 22.1646 23.9121C22.0021 24.0544 21.7853 24.09 21.5867 23.9832C20.5214 23.396 19.2213 22.2217 18.5712 21.5101C17.8669 20.7451 17.0183 19.4817 16.621 18.4675C16.5488 18.2718 16.621 18.0583 16.7655 17.916C17.6864 17.0975 18.0836 16.7062 18.1198 16.2791C18.1378 16.03 17.5962 12.8808 17.0363 12.5783L16.8738 12.4716C16.5127 12.2402 15.9709 11.9022 15.3751 12.0268C15.2306 12.0624 15.0861 12.1158 14.9598 12.1869C14.5626 12.4362 13.5695 13.1124 13.118 13.9841C12.8472 14.5356 12.7208 19.5353 16.5128 23.752C20.2686 27.9332 24.9093 28.1111 25.5955 27.9688H25.6135L25.6677 27.9511C26.6067 27.613 27.4012 26.7412 27.7081 26.3675C28.2679 25.7093 27.8888 24.9085 27.672 24.4637Z" fill="white"/>
</svg>
