<svg width="167" height="32" viewBox="0 0 167 32" fill="none" xmlns="http://www.w3.org/2000/svg">
<path d="M12.32 23L16.288 11.48H17.848L21.816 23H20.592L16.824 12.136H17.288L13.544 23H12.32ZM14.088 20.208V19.104H20.04V20.208H14.088Z" fill="black"/>
<rect x="0.5" y="0.5" width="31" height="31" stroke="black"/>
<path d="M58.12 23V11.48H65.232V12.608H59.296V15.96H62.568C62.68 15.96 62.8053 15.9653 62.944 15.976C63.088 15.9813 63.232 15.9947 63.376 16.016C63.968 16.096 64.472 16.2987 64.888 16.624C65.3093 16.9493 65.6293 17.36 65.848 17.856C66.072 18.352 66.184 18.8933 66.184 19.48C66.184 20.0667 66.072 20.608 65.848 21.104C65.6293 21.6 65.3093 22.0107 64.888 22.336C64.472 22.6613 63.968 22.864 63.376 22.944C63.232 22.96 63.088 22.9733 62.944 22.984C62.8053 22.9947 62.68 23 62.568 23H58.12ZM59.296 21.872H62.536C62.632 21.872 62.744 21.8667 62.872 21.856C63 21.8453 63.1253 21.8293 63.248 21.808C63.84 21.6907 64.2747 21.408 64.552 20.96C64.8347 20.5067 64.976 20.0133 64.976 19.48C64.976 18.9413 64.8347 18.448 64.552 18C64.2747 17.552 63.84 17.2693 63.248 17.152C63.1253 17.1253 63 17.1093 62.872 17.104C62.744 17.0933 62.632 17.088 62.536 17.088H59.296V21.872Z" fill="black"/>
<rect x="45.5" y="0.5" width="31" height="31" stroke="black"/>
<path d="M103.12 23V11.48H107.568C108.213 11.48 108.776 11.6133 109.256 11.88C109.736 12.1467 110.109 12.5067 110.376 12.96C110.643 13.408 110.776 13.904 110.776 14.448C110.776 15.0667 110.611 15.6187 110.28 16.104C109.949 16.584 109.507 16.9173 108.952 17.104L108.936 16.712C109.683 16.9253 110.269 17.2987 110.696 17.832C111.123 18.3653 111.336 19.0107 111.336 19.768C111.336 20.4347 111.195 21.0107 110.912 21.496C110.629 21.976 110.232 22.3467 109.72 22.608C109.208 22.8693 108.613 23 107.936 23H103.12ZM104.304 21.872H107.648C108.117 21.872 108.539 21.7893 108.912 21.624C109.285 21.4533 109.579 21.2133 109.792 20.904C110.011 20.5947 110.12 20.2213 110.12 19.784C110.12 19.3573 110.021 18.9733 109.824 18.632C109.627 18.2907 109.357 18.0187 109.016 17.816C108.68 17.608 108.296 17.504 107.864 17.504H104.304V21.872ZM104.304 16.392H107.56C107.928 16.392 108.264 16.3093 108.568 16.144C108.872 15.9733 109.112 15.7413 109.288 15.448C109.469 15.1547 109.56 14.816 109.56 14.432C109.56 13.888 109.371 13.4453 108.992 13.104C108.619 12.7627 108.141 12.592 107.56 12.592H104.304V16.392Z" fill="black"/>
<rect x="90.5" y="0.5" width="31" height="31" stroke="black"/>
<path d="M148.12 23V11.48H155.32V12.608H149.296V23H148.12Z" fill="black"/>
<rect x="135.5" y="0.5" width="31" height="31" stroke="black"/>
</svg>
