<svg width="339" height="20" viewBox="0 0 339 20" fill="none" xmlns="http://www.w3.org/2000/svg">
<path d="M326.575 16V6.43L324.542 7.6525V6.415L326.575 5.2H327.692V16H326.575ZM330.237 15.9925L330.244 14.9875L335.127 10.5775C335.547 10.1975 335.824 9.8375 335.959 9.4975C336.099 9.1525 336.169 8.7925 336.169 8.4175C336.169 7.9725 336.064 7.57 335.854 7.21C335.644 6.85 335.362 6.565 335.007 6.355C334.652 6.14 334.254 6.0325 333.814 6.0325C333.354 6.0325 332.944 6.1425 332.584 6.3625C332.224 6.5825 331.939 6.8725 331.729 7.2325C331.524 7.5925 331.424 7.985 331.429 8.41H330.304C330.304 7.755 330.459 7.1675 330.769 6.6475C331.079 6.1275 331.499 5.72 332.029 5.425C332.559 5.125 333.159 4.975 333.829 4.975C334.484 4.975 335.072 5.13 335.592 5.44C336.117 5.745 336.529 6.16 336.829 6.685C337.134 7.205 337.287 7.785 337.287 8.425C337.287 8.875 337.232 9.2725 337.122 9.6175C337.017 9.9575 336.849 10.275 336.619 10.57C336.394 10.86 336.107 11.16 335.757 11.47L331.422 15.385L331.249 14.935H337.287V15.9925H330.237Z" fill="black"/>
<path d="M4.3425 16.225C3.6675 16.225 3.07 16.09 2.55 15.82C2.035 15.55 1.63 15.1725 1.335 14.6875C1.045 14.1975 0.9 13.625 0.9 12.97C0.9 12.3 1.0625 11.705 1.3875 11.185C1.7125 10.66 2.2075 10.2625 2.8725 9.9925L2.8575 10.4275C2.3025 10.2225 1.88 9.8875 1.59 9.4225C1.3 8.9575 1.155 8.4425 1.155 7.8775C1.155 7.2775 1.2925 6.7625 1.5675 6.3325C1.8425 5.8975 2.2175 5.5625 2.6925 5.3275C3.1725 5.0925 3.7225 4.975 4.3425 4.975C4.9625 4.975 5.5125 5.0925 5.9925 5.3275C6.4725 5.5625 6.85 5.8975 7.125 6.3325C7.4 6.7625 7.5375 7.2775 7.5375 7.8775C7.5375 8.4425 7.3975 8.955 7.1175 9.415C6.8425 9.875 6.42 10.2125 5.85 10.4275L5.8125 9.9925C6.4775 10.2575 6.975 10.6525 7.305 11.1775C7.64 11.7025 7.8075 12.3 7.8075 12.97C7.8075 13.625 7.66 14.1975 7.365 14.6875C7.07 15.1725 6.6625 15.55 6.1425 15.82C5.6225 16.09 5.0225 16.225 4.3425 16.225ZM4.3425 15.1675C5.0225 15.1675 5.575 14.98 6 14.605C6.425 14.225 6.6375 13.68 6.6375 12.97C6.6375 12.25 6.4275 11.705 6.0075 11.335C5.5875 10.96 5.0325 10.7725 4.3425 10.7725C3.6525 10.7725 3.1 10.96 2.685 11.335C2.27 11.705 2.0625 12.25 2.0625 12.97C2.0625 13.68 2.2725 14.225 2.6925 14.605C3.1125 14.98 3.6625 15.1675 4.3425 15.1675ZM4.3425 9.7075C4.9425 9.7075 5.43 9.555 5.805 9.25C6.18 8.94 6.3675 8.4825 6.3675 7.8775C6.3675 7.2725 6.18 6.82 5.805 6.52C5.43 6.215 4.9425 6.0625 4.3425 6.0625C3.7425 6.0625 3.255 6.215 2.88 6.52C2.51 6.82 2.325 7.2725 2.325 7.8775C2.325 8.4825 2.51 8.94 2.88 9.25C3.255 9.555 3.7425 9.7075 4.3425 9.7075Z" fill="black"/>
<line x1="35" y1="11.5" x2="291" y2="11.5" stroke="black"/>
<rect x="32" y="5" width="14.02" height="14" fill="black"/>
<rect x="287" y="5" width="14.02" height="14" fill="black"/>
</svg>
