<svg width="293" height="195" viewBox="0 0 293 195" fill="none" xmlns="http://www.w3.org/2000/svg">
<path d="M0 2.06631H5.13699L18.8356 1.95142C26.5982 1.95142 32.9909 8.37946 32.9909 16.1849C32.9909 21.3503 30.2512 25.8269 26.1416 28.3522C33.5617 29.0409 39.3836 35.3542 39.3836 42.9301C39.3836 51.0799 32.8767 57.5078 24.7716 57.5078H0.114127C0.114127 57.5078 2.39718 56.2453 2.62549 54.9826C2.96795 51.1947 3.42466 43.1597 3.42466 29.7297C3.42466 16.4145 3.31042 7.9204 2.62549 4.36203C2.39718 3.32896 0 2.06631 0 2.06631ZM15.1826 4.24713C13.8127 4.24713 12.3288 4.36203 10.8447 4.36203C10.6164 8.14997 10.0456 16.5293 9.93145 28.0079H16.21C22.2602 28.0079 27.2831 22.1538 27.2831 16.0701C27.2831 9.98649 22.6027 4.47671 16.6666 4.24713H15.1826ZM22.2603 30.6479C20.3196 30.5331 17.8081 30.5331 15.1826 30.5331C13.3561 30.5331 11.5296 30.6479 9.93145 30.6479C9.93145 43.0448 10.3882 50.965 10.7306 54.753C14.4977 54.9825 18.8356 55.4418 21.9178 55.4418C28.1963 55.4418 33.3333 49.3581 33.3333 43.0448C33.4474 36.6168 28.5388 30.8775 22.2603 30.6479Z" fill="#C4A27A"/>
<path d="M48.2877 29.7295C48.2877 17.2179 47.9453 8.2646 47.3745 4.36188C47.1462 3.09924 44.9773 2.06616 44.9773 2.06616H58.2193C58.2193 2.06616 55.9362 2.98445 55.822 4.36188C55.5937 8.14982 55.0229 16.6439 54.9087 28.1225L69.6348 28.2373C77.7398 28.2373 84.2466 34.7801 84.2466 42.9299C84.2466 51.0797 77.7398 57.6224 69.6348 57.6224L50.5708 57.7373H44.9773C44.9773 57.7373 47.3745 56.3599 47.4887 55.0972C47.717 51.1945 48.2877 43.1595 48.2877 29.7295ZM65.2968 30.533C62.2147 30.533 58.1051 30.7626 54.7946 30.9922C54.7946 43.1595 55.2512 50.8501 55.5936 54.638C59.3608 54.8676 63.8129 55.212 66.895 55.212C73.1736 55.212 78.3106 49.1284 78.3106 42.8152C78.3106 36.5019 73.4018 30.7626 67.1233 30.533C66.6667 30.533 66.0959 30.533 65.2968 30.533ZM101.827 57.5077H86.9863C86.9863 57.5077 90.1827 55.212 90.411 52.8015C90.7535 48.2101 91.0959 34.7801 91.0959 23.0719C91.0959 15.8404 90.9819 9.41243 90.6394 6.19843C90.4111 3.78792 87.2147 2.06616 87.2147 2.06616H101.941C101.941 2.06616 98.7443 3.21391 98.516 5.96877C98.0594 10.4454 97.717 18.7101 97.717 29.7295C97.717 41.2081 98.0594 49.0136 98.4019 53.2607C98.6302 56.1303 101.827 57.5077 101.827 57.5077Z" fill="#C4A27A"/>
<path d="M108.219 2.06627H131.507C138.813 1.95148 143.836 1.37744 143.836 1.37744C143.836 1.37744 143.037 4.93581 142.694 7.69067C142.237 11.249 142.237 17.4475 142.237 17.4475C142.237 17.4475 139.383 4.36199 131.05 4.36199H119.064C118.836 8.14992 118.265 16.5292 118.151 28.1226L132.877 28.2374C140.982 28.2374 147.489 34.7803 147.489 42.8153C147.489 50.9651 140.982 57.5078 132.877 57.5078H108.219C108.333 57.393 110.502 56.7043 110.731 54.9826C111.187 51.7686 111.644 42.93 111.644 29.7297C111.644 17.218 110.959 8.03505 110.731 4.13233C110.502 2.86969 108.219 2.06627 108.219 2.06627ZM128.653 30.6479C125.571 30.6479 121.461 30.8775 118.151 31.107C118.151 43.1595 118.607 50.8502 118.95 54.6381C122.717 54.8677 127.055 55.2121 130.137 55.2121C136.416 55.2121 141.553 49.1285 141.553 42.8153C141.553 36.502 136.758 30.8774 130.479 30.6479C130.023 30.6479 129.338 30.6479 128.653 30.6479Z" fill="#C4A27A"/>
<path d="M153.082 29.9591C153.082 15.4961 164.269 3.21398 176.027 0.688688C178.082 0.229544 180.137 0 182.306 0C195.776 0 207.991 9.41239 210.959 23.1867C211.415 25.2528 211.644 27.4338 211.644 29.4999C211.644 43.0447 202.283 55.212 188.584 58.1964C186.073 58.7703 183.79 59 181.393 59C168.379 59 156.849 51.0797 153.767 35.8132C153.196 33.747 153.082 31.7957 153.082 29.9591ZM160.274 26.5155C160.274 29.0408 160.502 31.6809 161.073 34.0914C161.986 38.4532 164.269 43.1595 165.982 45.9144C169.52 51.4241 176.484 55.3268 183.79 55.3268C185.16 55.3268 186.644 55.2121 188.014 54.8677C196.689 52.9164 202.968 45.5701 204.109 37.6498C204.338 36.0428 204.566 33.8618 204.566 31.6809C204.566 29.5 204.338 26.9747 203.881 24.7937C202.854 20.0875 201.027 15.3813 198.402 12.0525C194.52 7.00194 188.014 3.32882 181.164 3.32882C179.794 3.32882 178.31 3.44363 176.941 3.78799C168.607 5.62457 162.329 12.856 160.845 20.2023C160.502 22.1537 160.274 24.2198 160.274 26.5155Z" fill="#C4A27A"/>
<path d="M191.264 29.2131C186.345 29.2131 182.386 33.1938 182.386 38.1394C182.386 33.1938 178.428 29.2131 173.509 29.2131C178.428 29.2131 182.387 25.2325 182.506 20.2869C182.387 25.2325 186.345 29.2131 191.264 29.2131Z" fill="#C4A27A"/>
<path d="M227.055 30.3036V33.1733C227.055 44.8815 227.511 52.3425 227.968 55.3269C228.082 56.7043 230.365 57.5079 230.365 57.5079H217.123C217.123 57.5079 219.406 56.36 219.635 55.0974C219.863 51.4242 220.434 43.1597 220.434 29.7297C220.434 16.4145 219.977 7.80551 219.406 3.67322C219.292 2.75493 217.123 1.95143 217.123 1.95143H222.26L235.845 1.83667C243.607 1.83667 250 8.26471 250 16.0702C250 23.8756 243.721 30.1889 235.959 30.1889L227.055 30.3036ZM232.192 4.24715C230.822 4.24715 229.338 4.24726 228.082 4.36204C227.854 8.14998 227.283 16.6441 227.169 28.0079H233.447C239.498 28.0079 244.52 22.1538 244.52 16.1849C244.52 10.1013 239.84 4.59162 233.904 4.36204H232.192V4.24715Z" fill="#C4A27A"/>
<path d="M46.8343 130.199H32.0986C32.0986 130.199 34.9544 129.398 35.4113 126.651C35.754 122.53 36.2109 114.633 36.2109 102.5C36.2109 91.3976 35.5255 80.2953 35.1828 77.7772C34.3832 77.2049 28.4432 77.0904 23.5314 77.0904C18.2768 77.0904 12.451 77.0904 11.6514 77.6626C10.966 81.5542 10.6233 91.5121 10.6233 102.386C10.6233 114.289 11.0803 122.072 11.423 126.193C11.6515 128.482 14.7357 129.97 14.7357 129.97H0C0 129.97 3.08424 128.596 3.3127 126.078C3.54116 123.789 4.11225 114.976 4.11225 104.102V102.271C3.99802 91.1687 3.65539 82.8133 3.3127 78.4639C3.08424 75.488 0 74.6868 0 74.6868H46.8343C46.6059 74.9157 43.7501 76.5181 43.5216 78.4639C43.0647 82.9278 42.7221 91.3976 42.7221 102.271C42.7221 114.175 43.0647 121.958 43.4074 126.078C43.7501 128.711 46.8343 130.199 46.8343 130.199Z" fill="#C4A27A"/>
<path d="M56.5439 102.386C56.5439 90.0241 55.9727 81.2109 55.63 77.2049C55.5158 75.9458 53.2312 74.9157 53.2312 74.9157H79.7325C86.929 74.9157 92.1836 74 92.1836 74C92.1836 74 91.384 77.4337 90.9271 80.2952C90.4702 83.8434 90.4702 90.0241 90.4702 90.0241C90.4702 90.0241 87.6145 77.2049 79.2757 77.2049H64.0831C63.7404 81.0964 63.2834 89.6807 63.1692 101.355L73.7926 101.241C79.7326 101.127 81.1034 97.4638 81.1034 97.4638V107.651C81.1034 107.651 79.5041 103.988 73.9068 103.759H63.2835C63.3977 116.807 63.9688 124.705 64.1973 128.024H79.5041C87.7287 127.91 90.5844 114.976 90.5844 114.976C90.5844 114.976 90.6986 121.271 91.0413 124.705C91.4982 127.566 92.2978 131 92.2978 131C92.2978 131 87.0433 130.084 79.8468 130.084H53.2312C53.2312 130.084 55.5157 128.825 55.7442 127.566C55.9727 124.247 56.5439 116.235 56.5439 102.386Z" fill="#C4A27A"/>
<path d="M108.404 103.072V105.934C108.404 117.608 108.861 125.048 109.318 128.024C109.432 129.398 111.717 130.199 111.717 130.199H98.4661C98.4661 130.199 100.751 129.054 100.979 127.795C101.208 124.133 101.779 115.892 101.779 102.5C101.779 89.223 101.322 80.6385 100.751 76.5181C100.636 75.6024 98.4661 74.8012 98.4661 74.8012H103.606L117.2 74.6868C124.967 74.6868 131.364 81.0964 131.364 88.8796C131.364 96.6627 125.082 102.958 117.314 102.958L108.404 103.072ZM113.43 77.0904C112.059 77.0904 110.574 77.0905 109.318 77.2049C109.089 80.982 108.518 89.4519 108.404 100.783H114.687C120.741 100.783 125.767 94.9458 125.767 88.994C125.767 82.9277 121.084 77.4338 115.144 77.2049H113.43V77.0904Z" fill="#C4A27A"/>
<path d="M137.647 74.9158H142.788L156.495 74.8013C164.263 74.8013 170.66 81.2109 170.66 88.9941C170.66 94.1446 167.918 98.6085 163.806 101.127C171.231 101.813 177.057 108.109 177.057 115.663C177.057 123.789 170.545 130.199 162.435 130.199H137.761C137.761 130.199 140.046 128.94 140.274 127.681C140.617 123.904 141.074 115.892 141.074 102.5C141.074 89.223 140.96 80.7532 140.274 77.205C140.046 76.1749 137.647 74.9158 137.647 74.9158ZM152.84 77.0904C151.469 77.0904 149.984 77.205 148.499 77.205C148.271 80.9821 147.699 89.3375 147.585 100.783H153.868C159.922 100.783 164.948 94.9459 164.948 88.8796C164.948 82.8134 160.265 77.3193 154.325 77.0904H152.84ZM160.036 103.416C158.094 103.301 155.581 103.301 152.954 103.301C151.126 103.301 149.299 103.416 147.699 103.416C147.699 115.777 148.156 123.675 148.499 127.452C152.269 127.681 156.609 128.139 159.694 128.139C165.976 128.139 171.117 122.072 171.117 115.777C171.231 109.368 166.319 103.645 160.036 103.416Z" fill="#C4A27A"/>
<path d="M186.081 102.5C186.081 90.0242 185.738 81.0965 185.167 77.2049C184.939 75.9459 182.768 74.9158 182.768 74.9158H196.019C196.019 74.9158 193.734 75.8314 193.62 77.2049C193.392 80.982 192.82 89.4518 192.706 100.898L207.442 101.012C215.552 101.012 222.063 107.536 222.063 115.663C222.063 123.789 215.552 130.313 207.442 130.313L188.365 130.428H182.768C182.768 130.428 185.167 129.054 185.281 127.795C185.51 123.904 186.081 115.892 186.081 102.5ZM203.101 103.301C200.017 103.301 195.905 103.53 192.592 103.759C192.592 115.892 193.049 123.56 193.391 127.337C197.161 127.566 201.616 127.91 204.7 127.91C210.983 127.91 216.123 121.843 216.123 115.548C216.123 109.253 211.211 103.53 204.929 103.301C204.472 103.301 203.786 103.301 203.101 103.301ZM239.54 130.199H224.691C224.691 130.199 227.889 127.91 228.117 125.506C228.46 120.928 228.803 107.536 228.803 95.8615C228.803 88.6506 228.689 82.241 228.346 79.0362C228.118 76.6326 224.919 74.9158 224.919 74.9158H239.655C239.655 74.9158 236.456 76.0602 236.228 78.8072C235.771 83.2711 235.428 91.5121 235.428 102.5C235.428 113.946 235.771 121.729 236.114 125.964C236.456 128.825 239.54 130.199 239.54 130.199Z" fill="#C4A27A"/>
<path d="M280.549 126.994C280.549 126.651 280.435 126.307 280.32 125.964C278.264 121.5 274.38 113.602 268.897 103.072L255.647 126.193C255.304 126.765 255.19 127.223 255.19 127.681C255.19 129.398 257.246 130.199 257.246 130.199H245.823C245.823 130.199 249.25 129.398 251.649 125.735C254.619 121.157 266.841 100.898 267.298 100.211C261.244 88.994 256.789 81.5543 254.504 77.7772C253.134 75.717 250.278 74.6868 250.278 74.6868H264.671C264.671 74.6868 262.729 75.259 262.729 77.0904C262.729 77.5482 262.843 78.0061 263.072 78.4639C264.442 81.5543 266.955 86.7048 270.725 94.1446C275.066 86.5904 277.807 81.4398 279.178 78.6928C279.407 78.235 279.521 77.7772 279.521 77.3194C279.521 75.3736 277.008 74.6868 277.008 74.6868H288.202C288.202 74.6868 284.661 75.7169 282.719 78.5784L272.21 97.006C273.124 98.7229 274.038 100.44 275.066 102.386C280.891 113.374 285.803 121.729 288.545 126.193C290.258 129.054 293 130.084 293 130.084H278.15C278.15 130.313 280.549 128.94 280.549 126.994Z" fill="#C4A27A"/>
<path d="M98.3577 160.254C98.3484 159.744 97.9297 159.231 97.4313 159.341C96.4791 159.505 93.2521 160.756 91.8666 160.716C91.0982 160.705 90.3237 160.643 90.3231 159.774C90.3164 158.854 90.9063 158.222 91.2467 157.21C91.6966 155.827 92.8233 154.977 92.3534 153.601C91.8836 152.225 90.9453 151.211 89.2306 151.414C87.062 151.671 83.9306 153.729 84.0945 154.682C84.1304 154.984 84.1543 155.186 84.4688 155.251C85.2611 155.464 86.8351 153.641 87.9446 153.51C88.4549 153.5 89.6772 153.458 89.8677 154.202C90.0641 154.997 87.8598 158.838 88.0032 160.049C88.1286 161.108 88.7916 162.819 91.3636 162.514C93.2296 162.293 98.3969 161.016 98.3577 160.254ZM100.839 138.891C100.794 138.078 100.559 137.39 99.74 137.384C98.7698 137.397 93.7141 140.911 91.9231 142.197C88.5754 144.588 86.1945 146.506 83.6205 148.09C84.3816 146.312 86.1308 144.673 87.4492 142.42C89.7484 138.517 92.4112 132.934 92.173 131.786C91.9646 130.89 91.4091 130.086 90.5014 130.194C89.1901 130.349 77.37 137.63 72.7973 140.473C63.21 146.314 60.0786 148.372 57.3122 150.49C55.9957 151.464 55.4178 152.197 55.4689 153.061C55.5439 154.126 56.6328 154.252 57.5406 154.145C58.6946 153.957 58.2333 152.222 59.0694 151.509C61.2545 149.665 68.2439 145.206 73.8723 141.778C80.2154 137.907 88.1006 133.24 88.5041 133.192C89.1597 133.114 89.0708 133.227 89.4596 133.488C88.3184 138.533 83.4964 144.883 79.8235 148.846C74.7486 154.357 64.9782 161.242 65.4096 162.725C65.5822 163.318 66.0334 163.674 66.6505 163.703C67.3181 163.726 69.34 161.799 72.6518 159.105C75.5841 156.661 79.6611 153.519 82.6677 151.271C88.5416 146.893 95.6192 141.452 98.0214 140.145C98.0187 140.554 97.8442 141.24 97.9869 141.581C98.1714 142.275 98.7534 142.871 99.5543 142.725C100.355 142.579 100.953 140.718 100.839 138.891Z" fill="white"/>
<path d="M134.46 149.023C134.551 148.5 133.904 148.219 133.557 148.311C132.857 148.445 130.833 150.782 128.262 152.825C126.388 154.275 124.034 155.985 122.218 156.2C119.495 156.523 117.304 155.299 117.101 153.585C116.94 152.223 118.102 150.807 119.394 148.762C120.176 147.595 121.51 145.903 121.586 144.82C121.615 144.203 120.885 144.085 120.268 144.056C118.883 144.015 117.583 147.289 116.498 148.491C114.639 150.501 112.46 152.396 110.972 153.646C109.623 154.777 108.217 155.864 106.832 156.693C104.113 158.345 102.458 159.052 101.702 159.142C101.096 159.214 100.387 158.837 100.36 158.176C100.321 157.413 100.845 156.226 101.425 155.083C101.796 154.324 102.617 153.92 102.634 153.202C102.643 152.843 102.293 152.475 101.934 152.466C100.082 152.379 98.4061 156.362 98.4552 158.504C98.5011 160.186 99.5463 161.238 101.917 160.958C103.329 160.79 105.977 159.403 108.4 157.837C111.057 156.091 113.749 153.777 114.312 153.352C114.259 153.768 114.651 154.489 115.269 155.387C116.306 156.798 118.286 158.405 122.32 157.927C124.842 157.628 127.872 155.582 129.906 153.756C131.896 151.986 134.297 149.809 134.46 149.023Z" fill="white"/>
<path d="M160.408 146.358C160.378 146.106 159.942 145.442 159.494 145.546C158.592 145.704 154.011 149.775 151.82 151.569C150.003 153.063 147.195 155.697 145.992 156.76C145.999 155.531 146.408 153.795 146.842 151.852C147.224 150.323 147.851 148.715 148.381 147.578C149.235 146.148 150.477 144.978 151.606 143.719C152.513 142.742 154.776 140.684 154.754 140.073C154.721 139.361 153.881 138.744 153.175 138.828C152.57 138.9 150.613 140.512 149.451 141.928C148.239 143.351 147.658 144.493 146.754 145.93C144.001 149.018 138.843 151.674 135.918 152.021C135.313 152.092 134.503 151.728 134.476 151.066C134.34 148.628 137.857 146.37 137.723 145.67C137.601 145.071 137.123 144.923 136.506 144.894C135.681 144.838 131.73 149.039 132.245 151.228C132.661 153.02 132.766 154.337 136.347 153.913C138.516 153.656 142.792 151.769 145.078 149.913C144.866 151.574 143.951 153.78 143.747 155.082C143.366 157.48 142.526 159.881 142.079 161.723C140.461 163.603 137.503 167.124 134.195 171.146C130.786 175.181 126.85 179.943 127.226 183.12C127.471 185.188 129.281 185.792 130.699 185.675C133.031 185.501 135.588 180.749 137.961 177.042C141.2 172.004 142.832 165.06 143.848 162.843C145.197 160.843 148.686 157.054 152.374 153.651C154.307 151.837 160.498 147.115 160.408 146.358ZM140.499 166.513C139.634 168.712 137.537 173.461 136.038 176.349C134.545 179.287 131.508 183.431 130.348 183.569C130.045 183.605 129.348 183.329 129.255 182.982C128.949 181.689 132.286 177.049 134.784 173.531C136.799 170.684 139.42 167.766 140.499 166.513Z" fill="white"/>
<path d="M210.912 114.039C211.059 113.561 208.834 113.774 206.515 114.049C204.749 114.258 202.649 114.66 201.092 114.895C197.775 115.391 190.95 116.915 188.841 117.676C186.044 118.672 183.313 120.223 182.432 120.992C181.596 121.705 179.737 122.846 176.34 130.868C175.055 133.833 174.073 138.501 171.487 143C169.837 145.906 167.115 148.837 166.031 150.039C164.907 151.348 163.25 152.465 162.285 152.528C161.069 152.621 160.365 151.426 160.328 150.254C160.268 148.881 161.88 146.082 163.789 144.066C164.918 142.807 166.653 141.476 167.296 141.298C167.839 141.131 168.196 141.549 168.653 141.955C169.048 142.266 169.024 142.934 169.535 142.925C170.045 142.915 170.463 142.559 170.498 141.992C170.613 140.803 168.752 139.335 167.384 139.446C166.42 139.509 163.819 141.3 162.044 143.147C159.823 145.558 157.88 149.01 158.222 150.606C158.693 152.852 160.154 154.826 162.613 154.433C164.467 154.111 165.6 153.312 167.242 151.634C169.285 149.449 171.342 146.955 172.832 144.426C175.386 140.084 176.821 135.362 178.53 131.222C179.655 128.634 181.189 125.18 183.353 122.724C185.349 121.005 185.657 121.019 189.661 119.42C192.591 118.255 203.799 116.16 206.617 115.775C208.426 115.51 208.483 115.554 209.921 115.179C210.515 115.007 210.77 114.567 210.912 114.039Z" fill="white"/>
<path d="M202.278 140.887C202.168 140.389 201.88 140.116 201.388 140.277C200.896 140.437 197.184 144.508 195.607 145.871C193.935 147.296 192.33 147.998 191.473 148.099C189.96 148.279 189.283 147.745 189.08 146.03C188.853 144.114 190.199 142.523 191.579 139.495C192.026 138.522 192.82 137.456 192.947 136.367C193.021 135.694 192.145 135.644 191.54 135.716C190.532 135.835 189.506 137.542 188.902 138.483C188.431 139.255 187.877 140.19 187.388 140.81C186.75 141.039 185.195 140.865 184.439 140.955C183.178 141.104 182.792 141.303 181.614 141.289C182.023 140.423 182.541 139.185 182.226 138.251C182.066 137.758 181.754 137.284 181.243 137.293C179.555 137.289 177.7 139.759 176.526 141.074C173.544 144.393 170.551 145.464 170.983 146.947C171.069 147.243 171.369 147.617 171.672 147.581C172.92 147.331 175.991 143.899 177.599 142.788C177.294 144.102 176.171 146.281 175.451 147.542C174.731 148.804 173.036 150.897 173.621 151.953C173.758 152.243 174.144 152.044 174.452 152.059C175.731 152.061 177.683 148.25 178.53 146.769C179.345 145.445 179.831 144.364 180.391 143.48C181.153 143.441 182.989 142.967 184.2 142.824C185.007 142.729 186.241 142.787 187.149 142.679C187.013 143.258 186.613 144.635 186.76 146.305C186.993 148.272 187.968 150.458 191.095 150.087C192.608 149.908 194.832 148.827 196.961 146.938C198.722 145.4 202.463 141.581 202.278 140.887Z" fill="white"/>
<path d="M234.571 137.267C234.5 136.662 234.33 136.528 233.77 136.543C232.906 136.595 229.201 140.715 225.818 142.804C223.768 144.069 221.669 145.341 219.714 145.675C218.61 145.857 218.019 144.75 217.998 144.139C218 142.861 218.569 141.617 219.561 140.067C220.299 138.957 222.692 137.14 222.608 136.434C222.561 136.03 221.916 135.339 221.166 135.479C220.712 135.533 219.959 136.083 219.191 136.941C218.239 137.974 217.229 139.372 216.576 139.91C215.945 140.189 215.257 140.424 214.304 140.588C213.409 140.796 212.424 141.117 211.605 141.112C211.085 140.611 210.696 140.35 210.049 140.069C209.346 139.743 208.743 139.406 207.773 139.418L208.692 137.673C209.424 136.512 210.283 135.132 210.187 134.325C210.116 133.72 209.388 133.192 208.745 133.371C208.101 133.549 205.706 136.646 204.28 137.991C203 139.268 199.432 141.531 199.353 142.154C199.279 142.828 199.629 143.195 200.303 143.269C200.92 143.298 201.587 142.452 202.479 141.784C203.093 141.353 203.68 141.13 204.199 140.762C203.061 142.38 200.566 145.488 200.709 146.699C200.846 147.858 201.933 149.264 203.844 148.986C206.309 148.643 207.044 147.943 208.571 146.585C209.819 145.466 210.59 144.199 211.061 143.427C212.046 143.106 213.422 142.636 214.015 142.463C214.76 142.273 215.219 142.269 215.908 142.034C215.472 143.109 215.568 143.916 215.601 144.628C215.629 146.159 216.927 148.05 219.348 147.764C221.97 147.453 224.701 145.902 227.486 143.936C230.08 142.094 234.661 138.023 234.571 137.267ZM208.432 142.818C208.521 143.574 207.771 144.583 206.992 145.341C206.168 146.154 204.744 147.09 204.184 147.105C203.875 147.091 203.231 147.269 203.091 146.519C202.963 145.869 203.976 144.061 205.023 142.966C205.479 142.503 205.936 142.039 206.203 141.701C206.422 141.828 207.152 141.946 207.63 142.094C208.001 142.204 208.39 142.465 208.432 142.818Z" fill="white"/>
<path d="M257.14 112.501C256.829 109.879 253.615 109.083 251.144 109.376C249.934 109.519 245.378 110.775 242.003 112.504C238.589 114.34 233.978 117.29 234.098 118.299C234.163 118.854 234.609 119.159 235.006 119.061C235.555 118.944 239.86 115.571 243.309 114.037C246.171 112.726 249.668 111.596 250.929 111.447C252.241 111.292 254.955 111.328 255.117 112.69C255.29 114.152 254.128 115.568 253.254 117.257C252.131 119.436 249.558 121.888 249.585 122.55C249.639 123.004 250.203 123.448 250.657 123.395C251.301 123.216 253.307 120.728 254.555 118.74C255.93 116.531 257.307 113.913 257.14 112.501ZM260.643 133.872C260.539 133.424 260.337 133.448 259.933 133.495C259.328 133.567 257.472 135.168 255.34 136.597C253.208 138.025 251.171 139.392 249.489 139.437C248.777 139.471 248.044 138.893 247.966 138.237C247.924 137.884 247.994 136.751 248.391 135.783C248.838 134.81 249.529 134.165 249.446 133.459C249.38 132.905 249.37 132.394 248.362 132.514C247.605 132.603 244.389 136.104 241.78 138.254C239.31 140.285 236.494 143.278 235.316 143.264C235.058 143.244 235.028 142.991 234.998 142.739C234.891 141.831 236.44 138.938 237.033 137.896C237.975 136.352 240.074 134.211 239.987 133.045C239.915 132.44 239.319 132.153 238.713 132.225C237.856 132.326 236.724 133.994 235.387 135.227C231.052 139.218 229.94 138.889 230.113 140.352C230.149 140.654 230.481 140.871 230.757 141.043C231.621 140.991 232.661 139.845 234.345 138.521C233.821 139.708 232.814 142.435 232.789 143.512C232.763 144.589 233.941 145.473 235.063 145.442C236.285 145.399 240.326 141.955 242.517 140.161C243.487 139.279 244.83 138.097 245.888 137.102C245.865 137.77 245.878 138.74 246.038 139.233C246.49 140.457 248.203 141.533 249.413 141.39C252.137 141.067 255.256 138.908 257.231 137.447C258.592 136.416 260.783 134.622 260.643 133.872Z" fill="white"/>
<path d="M216.445 161.547C215.609 154.486 209.432 154.144 202.371 154.981C195.613 155.781 187.534 158.375 180.647 161.543C174.532 164.313 163.604 170.926 163.709 172.243C163.739 172.495 164.134 172.806 164.386 172.776C164.941 172.711 173.667 166.512 181.823 162.835C186.921 160.544 194.82 157.716 203.091 156.736C206.117 156.378 213.527 155.04 214.381 162.252C215.056 167.951 211.72 174.329 210.399 176.122C210.022 175.962 208.223 174.59 206.956 174.689C205.639 174.794 204.446 175.088 201.755 178.271C199.825 180.545 197.039 183.79 197.459 186.042C197.885 188.344 198.764 188.853 201.336 188.549C204.614 188.16 208.796 183.318 211.694 178.423C215.113 172.751 217.007 166.288 216.445 161.547ZM208.555 178.693C208.212 180.114 207.341 181.394 206.084 182.872C204.232 184.933 201.839 186.75 201.109 186.632C200.536 186.547 199.56 186.509 199.589 185.892C199.609 184.764 200.933 182.562 202.421 180.442C203.648 178.712 205.952 177.007 206.952 177.246C207.744 177.459 208.214 177.966 208.555 178.693Z" fill="white"/>
<path d="M231.629 175.295C231.354 172.975 229.386 171.469 226.561 171.804C224.948 171.995 222.634 173.19 220.337 174.945C219.779 175.42 219.326 176.343 218.763 176.768C218.309 176.822 217.647 176.849 217.179 177.211C215.773 178.298 215.155 180.417 215.254 181.684C215.398 183.763 217.091 185.966 220.734 185.637C222.858 185.437 226.085 184.185 228.361 181.819C230.321 179.797 231.874 177.363 231.629 175.295ZM229.676 175.219C229.939 177.438 228.193 179.537 226.616 180.9C224.805 182.445 222.586 183.577 221.023 183.762C219.207 183.977 217.45 182.958 217.289 181.596C217.241 181.193 217.753 179.035 219.046 178.729C219.645 178.607 219.865 178.734 220.357 178.573C221.33 178.151 221.35 177.024 222.13 176.267C223.633 174.708 225.376 173.888 226.996 173.747C228.112 173.666 229.491 173.656 229.676 175.219Z" fill="white"/>
<path d="M280.936 170.017C280.82 169.468 280.689 169.228 280.135 169.294C279.58 169.359 276.215 172.468 273.273 174.402C271.281 175.712 269.291 176.613 268.119 176.649C266.896 176.692 265.757 176.571 265.732 175.5C265.738 174.681 266.072 173.619 266.495 172.443C267.034 170.948 267.669 170.259 268.32 168.852C268.652 168.199 269.571 167.323 269.57 166.454C269.561 165.944 268.976 165.757 268.466 165.766C266.179 165.884 262.122 168.768 260.008 170.348C257.805 172.041 255.394 173.707 253.87 174.655C253.938 173.931 253.943 173.112 254.112 172.376C254.295 171.332 254.774 170.201 254.738 169.029C254.717 168.418 254.031 168.243 253.521 168.253C252.601 168.259 251.262 170.77 250.07 171.934C248.517 173.499 246.249 175.506 244.319 176.911C239.186 180.639 237.484 181.812 236.324 181.949C235.719 182.021 234.885 181.455 234.857 180.794C234.827 179.672 235.159 179.019 235.644 177.939C236.053 177.072 237.189 176.733 237.031 175.831C236.927 175.383 236.52 174.971 236.016 175.031C234.547 175.154 232.352 179.505 232.478 180.564C232.759 182.934 234.572 183.998 236.64 183.753C239.061 183.466 242.847 180.461 245.329 178.53C247.481 176.844 249.459 174.973 250.636 174.117C250.743 175.025 250.605 176.013 250.442 176.8C250.215 177.901 249.397 179.634 249.436 180.396C249.478 180.749 249.855 180.909 250.214 180.918C251.134 180.911 252.153 179.154 253.357 178.091C255.536 176.196 256.852 175.222 259.144 173.416C261.715 171.373 264.594 169.345 266.053 168.711C265.784 169.459 264.735 170.964 264.229 172.303C263.716 173.591 263.406 174.855 263.525 175.864C263.74 177.679 265.156 178.841 268.346 178.566C270.117 178.407 272.525 177.15 274.74 175.558C276.765 174.091 281.094 170.919 280.936 170.017Z" fill="white"/>
</svg>
