<svg width="146" height="81" viewBox="0 0 146 81" fill="none" xmlns="http://www.w3.org/2000/svg">
<path d="M46.0266 76.1787V80.2784H45.531V76.1787H46.0266ZM48.2419 76.1787L46.4638 78.0977L48.3293 80.2784H47.7172L45.8808 78.1268L47.6298 76.2078H48.2419V76.1787Z" fill="white"/>
<path d="M52.9058 80.2493H52.4102V76.6439H50.603V78.8537C50.603 79.1154 50.5738 79.348 50.4864 79.5515C50.3989 79.755 50.3115 79.9295 50.1366 80.0749C49.9909 80.1912 49.7868 80.2784 49.5828 80.2784V79.8423C49.6702 79.8423 49.7577 79.8132 49.816 79.755C49.8743 79.6969 49.9326 79.6097 49.9909 79.5224C50.0492 79.4352 50.0783 79.3189 50.1075 79.1735C50.1366 79.0281 50.1366 78.8828 50.1366 78.7374V76.1787H52.9058V80.2493Z" fill="white"/>
<path d="M55.9373 80.2494H55.3835L55.9081 79.0282L54.5673 76.1497H55.1794L56.3745 78.8828L56.0539 78.8537L57.3073 76.1206H57.8611L55.9373 80.2494Z" fill="white"/>
<path d="M61.6796 76.1785V76.6437H59.9889V80.2491H59.4934V76.1494H61.6796V76.1785ZM59.7849 77.8067H60.6302C60.8926 77.8067 61.1258 77.8649 61.3298 77.9521C61.5339 78.0393 61.7087 78.1847 61.8253 78.3883C61.9419 78.5627 62.0002 78.7953 62.0002 79.0279C62.0002 79.2896 61.9419 79.4931 61.8253 79.6676C61.7087 79.8421 61.5339 79.9874 61.3298 80.1037C61.1258 80.191 60.8926 80.2491 60.6302 80.2491H59.7849V79.7839H60.6302C60.8051 79.7839 60.9509 79.7548 61.0966 79.6967C61.2424 79.6385 61.3298 79.5513 61.4172 79.435C61.5047 79.3187 61.5338 79.1733 61.5338 79.0279C61.5338 78.8825 61.5047 78.7081 61.4172 78.6209C61.3298 78.5336 61.2424 78.4173 61.0966 78.3592C60.9509 78.301 60.8051 78.2719 60.6302 78.2719H59.7849V77.8067Z" fill="white"/>
<path d="M64.3614 76.1787V80.2784H63.8658V76.1787H64.3614ZM64.1573 77.807H66.9557V78.2722H64.1573V77.807ZM67.1305 76.1787V80.2784H66.635V76.1787H67.1305Z" fill="white"/>
<path d="M69.7248 76.1787V80.2784H69.2292V76.1787H69.7248ZM69.4916 77.807H70.3369C70.5992 77.807 70.8324 77.8651 71.0365 77.9523C71.2405 78.0396 71.4154 78.1849 71.532 78.3885C71.6486 78.5629 71.7069 78.7955 71.7069 79.0281C71.7069 79.2898 71.6486 79.4934 71.532 79.6678C71.4154 79.8423 71.2405 79.9876 71.0365 80.1039C70.8324 80.1912 70.5992 80.2493 70.3369 80.2493H69.4916V79.7841H70.3369C70.5118 79.7841 70.6576 79.755 70.8033 79.6969C70.9491 79.6387 71.0365 79.5515 71.1239 79.4352C71.2114 79.3189 71.2405 79.1735 71.2405 79.0281C71.2405 78.8828 71.2114 78.7083 71.1239 78.6211C71.0365 78.5338 70.9491 78.4175 70.8033 78.3594C70.6576 78.3012 70.5118 78.2722 70.3369 78.2722H69.4916V77.807ZM72.7563 76.1787V80.2784H72.2608V76.1787H72.7563Z" fill="white"/>
<path d="M74.8843 80.4528L74.9134 79.6969L78.4696 75.9752L78.4405 76.7311L74.8843 80.4528ZM75.3798 79.8132L74.8843 80.4528V76.1496H75.3798V79.8132ZM76.3126 74.9575C76.3126 75.0157 76.3126 75.0738 76.3417 75.132C76.3709 75.1901 76.4292 75.2483 76.4875 75.3064C76.5749 75.3646 76.6624 75.3937 76.8081 75.3937C76.9539 75.3937 77.0413 75.3646 77.1287 75.3064C77.2162 75.2483 77.2453 75.1901 77.2745 75.132C77.3036 75.0738 77.3036 75.0157 77.3036 74.9575H77.7117C77.7117 75.1029 77.6826 75.2192 77.5951 75.3355C77.5368 75.4518 77.4202 75.5681 77.2745 75.6553C77.1287 75.7426 76.9538 75.7716 76.7498 75.7716C76.5457 75.7716 76.3709 75.7426 76.2251 75.6553C76.0794 75.5681 75.9919 75.4809 75.9045 75.3355C75.8462 75.2192 75.7879 75.0738 75.7879 74.9575H76.3126ZM78.4696 80.2493H77.9741V76.6148L78.4696 75.9752V80.2493Z" fill="white"/>
<path d="M83.7164 80.2495V80.8892H83.2792V79.7843H87.4475V80.8892H87.0103V80.2495H83.7164ZM84.212 80.0751H83.6873L85.3488 75.9463L87.0103 80.0751H86.4856L85.3488 77.0803L84.212 80.0751Z" fill="white"/>
<path d="M89.0798 77.3707C89.1964 77.109 89.3422 76.9054 89.517 76.7019C89.6919 76.5275 89.9251 76.353 90.1875 76.2658C90.4498 76.1495 90.7122 76.0913 91.0036 76.0913C91.2951 76.0913 91.5866 76.1495 91.8198 76.2658C92.0822 76.3821 92.2862 76.5275 92.4902 76.7019C92.6651 76.8764 92.8109 77.109 92.9275 77.3707C93.0441 77.6323 93.0732 77.894 93.0732 78.2139C93.0732 78.5046 93.0149 78.7954 92.9275 79.057C92.8109 79.3187 92.6651 79.5513 92.4902 79.7258C92.3154 79.9002 92.0822 80.0747 91.8198 80.1619C91.5575 80.2782 91.2951 80.3364 91.0036 80.3364C90.7122 80.3364 90.4207 80.2782 90.1875 80.1619C89.9251 80.0456 89.7211 79.9002 89.517 79.7258C89.3422 79.5513 89.1964 79.3187 89.0798 79.057C88.9632 78.7954 88.9341 78.5337 88.9341 78.2139C88.9049 77.9231 88.9632 77.6323 89.0798 77.3707ZM89.6337 79.028C89.7794 79.2606 89.9543 79.4641 90.1875 79.6095C90.4207 79.7549 90.683 79.813 90.9745 79.813C91.266 79.813 91.5283 79.7549 91.7615 79.6095C91.9947 79.4641 92.1696 79.2897 92.3154 79.028C92.4611 78.7954 92.5194 78.5046 92.5194 78.2139C92.5194 77.894 92.4611 77.6323 92.3154 77.3997C92.1696 77.1671 91.9947 76.9636 91.7615 76.8182C91.5283 76.6728 91.266 76.6147 90.9745 76.6147C90.683 76.6147 90.4207 76.6728 90.1875 76.8182C89.9543 76.9636 89.7794 77.138 89.6337 77.3997C89.4879 77.6323 89.4296 77.9231 89.4296 78.2139C89.4296 78.5046 89.5171 78.7954 89.6337 79.028Z" fill="white"/>
<path d="M95.2012 80.2495H94.7057L95.2012 75.9463L96.8336 78.912L98.4659 75.9463L98.9615 80.2495H98.4659L98.1744 77.4873L96.8336 79.8715L95.4927 77.4873L95.2012 80.2495Z" fill="white"/>
<path d="M124.817 78.0396H104.529V78.3885H124.817V78.0396Z" fill="url(#paint0_linear_658_3104)"/>
<path d="M40.8962 78.0396H20.6084V78.3885H40.8962V78.0396Z" fill="url(#paint1_linear_658_3104)"/>
<path d="M43.1407 13.8984L44.744 12.6772V44.2827H43.1407V13.8984Z" fill="url(#paint2_linear_658_3104)"/>
<path d="M48.5624 10.2056V44.2824H46.9592V39.892H47.7462V18.6375L46.9592 19.2481V11.4268L48.5624 10.2056Z" fill="url(#paint3_linear_658_3104)"/>
<path d="M52.381 7.73389V44.2822H50.7778V39.8917H51.594V16.1659L50.7778 16.7765V8.98414L52.381 7.73389Z" fill="url(#paint4_linear_658_3104)"/>
<path d="M56.2287 5.2627V44.2824H54.6255V39.892H55.4125V13.6947L54.6255 14.3053V6.48388L56.2287 5.2627Z" fill="url(#paint5_linear_658_3104)"/>
<path d="M60.0473 2.7915V44.2827H58.4441V39.8922H59.2602V11.2235L58.4441 11.8341V4.01269L60.0473 2.7915Z" fill="url(#paint6_linear_658_3104)"/>
<path d="M63.895 0.319824V44.2825H62.2917V39.892H63.0788V8.75181L62.2917 9.3624V1.54101L63.895 0.319824Z" fill="url(#paint7_linear_658_3104)"/>
<path d="M67.83 0.755973V44.2825H65.9937V39.892H66.8973V8.19938L65.9937 7.82139V0L67.83 0.755973Z" fill="url(#paint8_linear_658_3104)"/>
<path d="M71.6777 2.29676V44.2822H69.8413V39.8918H70.7449V9.71109L69.8413 9.33311V1.51172L71.6777 2.29676Z" fill="url(#paint9_linear_658_3104)"/>
<path d="M75.4963 3.80871V44.2822H73.6599V39.8918H74.5635V11.2521L73.6599 10.8741V3.05273L75.4963 3.80871Z" fill="url(#paint10_linear_658_3104)"/>
<path d="M79.3148 5.34971V44.2822H77.5076V39.8918H78.4112V12.7931L77.5076 12.4151V4.59375L79.3148 5.34971Z" fill="url(#paint11_linear_658_3104)"/>
<path d="M83.1625 6.89074V44.2822H81.3262V39.8918H82.2298V14.3051L81.3262 13.9271V6.13477L83.1625 6.89074Z" fill="url(#paint12_linear_658_3104)"/>
<path d="M86.9811 8.40294V44.2825H85.1447V39.892H86.0774V15.8463L85.1447 15.4684V7.64697L86.9811 8.40294Z" fill="url(#paint13_linear_658_3104)"/>
<path d="M90.8287 9.94396V44.2825H88.9923V39.892H89.896V17.3874L88.9923 17.0094V9.18799L90.8287 9.94396Z" fill="url(#paint14_linear_658_3104)"/>
<path d="M94.6473 11.485V44.2825H92.8109V39.892H93.7437V18.8993L92.8109 18.5213V10.729L94.6473 11.485Z" fill="url(#paint15_linear_658_3104)"/>
<path d="M98.495 12.9967V44.2823H96.6586V39.8918H97.5622V20.4401L96.6586 20.0621V12.2407L98.495 12.9967Z" fill="url(#paint16_linear_658_3104)"/>
<path d="M100.477 13.7817L102.313 14.5377V44.2823H100.477V13.7817Z" fill="url(#paint17_linear_658_3104)"/>
<path d="M0 55.4475H1.31171L4.80961 55.4185C6.79175 55.4185 8.4241 57.0467 8.4241 59.0238C8.4241 60.3323 7.72452 61.4662 6.67515 62.1059C8.56985 62.2803 10.0565 63.8795 10.0565 65.7985C10.0565 67.8629 8.39495 69.4911 6.32536 69.4911H0.029142C0.029142 69.4911 0.612129 69.1713 0.670427 68.8515C0.757874 67.892 0.874475 65.8567 0.874475 62.4548C0.874475 59.082 0.845322 56.9304 0.670427 56.029C0.612129 55.7674 0 55.4475 0 55.4475ZM3.87683 56.029C3.52704 56.029 3.14811 56.0581 2.76917 56.0581C2.71087 57.0176 2.56512 59.1402 2.53597 62.0477H4.13917C5.68408 62.0477 6.96665 60.5649 6.96665 59.0238C6.96665 57.4828 5.77152 56.0872 4.25577 56.029H3.87683ZM5.71323 62.6874C5.21769 62.6583 4.57642 62.6583 3.90598 62.6583C3.4396 62.6583 2.97321 62.6874 2.56512 62.6874C2.56512 65.8276 2.68172 67.8338 2.76917 68.7933C3.73109 68.8515 4.83876 68.9678 5.62578 68.9678C7.22899 68.9678 8.5407 67.4268 8.5407 65.8276C8.5407 64.2284 7.28728 62.7746 5.71323 62.6874Z" fill="#F2F2F2"/>
<path d="M12.3301 62.4841C12.3301 59.3148 12.2426 57.0469 12.0969 56.0583C12.0386 55.7385 11.4847 55.4768 11.4847 55.4768H14.866C14.866 55.4768 14.2831 55.7094 14.2539 56.0583C14.1956 57.0178 14.0499 59.1695 14.0207 62.077L17.781 62.1061C19.8505 62.1061 21.512 63.7634 21.512 65.8278C21.512 67.8922 19.8505 69.5495 17.781 69.5495L12.913 69.5786H11.4847C11.4847 69.5786 12.0969 69.2297 12.126 68.9099C12.1843 67.9213 12.3301 65.8569 12.3301 62.4841ZM16.7024 62.6586C15.9154 62.6586 14.866 62.7167 14.0207 62.7749C14.0207 65.8569 14.1373 67.805 14.2248 68.7645C15.1867 68.8226 16.3235 68.9099 17.1105 68.9099C18.7137 68.9099 20.0254 67.3688 20.0254 65.7697C20.0254 64.1705 18.772 62.7167 17.1688 62.6586C17.0231 62.6876 16.8773 62.6586 16.7024 62.6586ZM26.001 69.4914H22.2116C22.2116 69.4914 23.0278 68.9099 23.0861 68.2993C23.1735 67.1362 23.261 63.7344 23.261 60.7686C23.261 58.9368 23.2319 57.3086 23.1444 56.4945C23.0861 55.8839 22.2699 55.4478 22.2699 55.4478H26.0302C26.0302 55.4478 25.214 55.7385 25.1557 56.4363C25.0391 57.5703 24.9516 59.6637 24.9516 62.455C24.9516 65.3626 25.0391 67.3398 25.1265 68.4156C25.1848 69.1425 26.001 69.4914 26.001 69.4914Z" fill="#F2F2F2"/>
<path d="M27.6334 55.4479H33.5798C35.4454 55.4188 36.728 55.2734 36.728 55.2734C36.728 55.2734 36.5239 56.1748 36.4365 56.8726C36.3199 57.774 36.3199 59.3441 36.3199 59.3441C36.3199 59.3441 35.5911 56.0294 33.4633 56.0294H30.4026C30.3443 56.9889 30.1986 59.1114 30.1694 62.0481L33.9296 62.0772C35.9992 62.0772 37.6607 63.7345 37.6607 65.7698C37.6607 67.8342 35.9992 69.4915 33.9296 69.4915H27.6334C27.6626 69.4624 28.2164 69.288 28.2747 68.8518C28.3913 68.0377 28.5079 65.7989 28.5079 62.4551C28.5079 59.2859 28.333 56.9598 28.2747 55.9712C28.2164 55.6514 27.6334 55.4479 27.6334 55.4479ZM32.8511 62.6878C32.0641 62.6878 31.0147 62.7459 30.1694 62.8041C30.1694 65.857 30.286 67.8051 30.3734 68.7646C31.3354 68.8228 32.443 68.91 33.2301 68.91C34.8333 68.91 36.145 67.369 36.145 65.7698C36.145 64.1706 34.9207 62.7459 33.3175 62.6878C33.2009 62.7168 33.026 62.6878 32.8511 62.6878Z" fill="#F2F2F2"/>
<path d="M53.8676 60.7976C53.1097 57.3085 49.9908 54.9243 46.5512 54.9243C45.9973 54.9243 45.4727 54.9825 44.948 55.0988C41.9456 55.7384 39.089 58.8495 39.089 62.5131C39.089 62.9783 39.1181 63.4726 39.2639 63.996C40.0509 67.8631 42.995 69.8693 46.318 69.8693C46.9301 69.8693 47.5131 69.8111 48.1544 69.6658C51.6523 68.9098 54.0425 65.8277 54.0425 62.3968C54.0425 61.8734 53.9842 61.321 53.8676 60.7976ZM52.1187 64.4612C51.8272 66.4674 50.224 68.3283 48.0086 68.8225C47.6588 68.9098 47.2799 68.9389 46.9301 68.9389C45.0646 68.9389 43.2865 67.9503 42.3828 66.5546C41.9456 65.8568 41.3626 64.6647 41.1294 63.5598C40.9837 62.9492 40.9254 62.2805 40.9254 61.6408C40.9254 61.0884 40.9837 60.5359 41.0711 60.0417C41.4501 58.1808 43.0533 56.349 45.1812 55.8838C45.531 55.7966 45.9099 55.7675 46.2597 55.7675C48.0086 55.7675 49.6701 56.6979 50.6612 57.9773C51.3316 58.8205 51.798 60.0126 52.0604 61.2047C52.177 61.7571 52.2353 62.3677 52.2353 62.9492C52.2353 63.5017 52.177 64.0541 52.1187 64.4612Z" fill="#F2F2F2"/>
<path d="M57.9776 62.6293V63.3561C57.9776 66.3219 58.0942 68.2118 58.2108 68.9678C58.24 69.3167 58.823 69.5202 58.823 69.5202H55.4417C55.4417 69.5202 56.0246 69.2295 56.0829 68.9096C56.1412 67.9792 56.287 65.8857 56.287 62.4839C56.287 59.1111 56.1704 56.9304 56.0246 55.8837C55.9955 55.6511 55.4417 55.4475 55.4417 55.4475H56.7534L60.2221 55.4185C62.2042 55.4185 63.8366 57.0467 63.8366 59.0238C63.8366 61.001 62.2334 62.6002 60.2513 62.6002L57.9776 62.6293ZM59.2893 56.029C58.9395 56.029 58.5606 56.029 58.24 56.0581C58.1817 57.0176 58.0359 59.1692 58.0068 62.0477H59.61C61.1549 62.0477 62.4374 60.5649 62.4374 59.0529C62.4374 57.5119 61.2423 56.1163 59.7266 56.0581L59.2893 56.029Z" fill="#F2F2F2"/>
<path d="M82.8127 69.4914H79.0525C79.0525 69.4914 79.7812 69.2879 79.8978 68.5901C79.9853 67.5433 80.1019 65.5371 80.1019 62.4551C80.1019 59.6347 79.927 56.8144 79.8395 56.1747C79.6355 56.0293 78.1197 56.0003 76.8663 56.0003C75.5254 56.0003 74.0388 56.0003 73.8348 56.1456C73.6599 57.1342 73.5724 59.6638 73.5724 62.426C73.5724 65.4499 73.689 67.427 73.7765 68.4738C73.8348 69.0553 74.6218 69.4333 74.6218 69.4333H70.8616C70.8616 69.4333 71.6486 69.0844 71.7069 68.4447C71.7652 67.8632 71.911 65.6243 71.911 62.8621V62.3969C71.8818 59.5766 71.7944 57.454 71.7069 56.3491C71.6486 55.5932 70.8616 55.3896 70.8616 55.3896H82.8127C82.7544 55.4478 82.0257 55.8549 81.9674 56.3491C81.8508 57.4831 81.7634 59.6347 81.7634 62.3969C81.7634 65.4208 81.8508 67.398 81.9382 68.4447C81.9965 69.1134 82.8127 69.4914 82.8127 69.4914Z" fill="#F2F2F2"/>
<path d="M85.2612 62.4549C85.2612 59.3148 85.1155 57.0759 85.028 56.0583C84.9989 55.7384 84.4159 55.4767 84.4159 55.4767H91.1785C93.0149 55.4767 94.3558 55.2441 94.3558 55.2441C94.3558 55.2441 94.1517 56.1164 94.0351 56.8433C93.9185 57.7447 93.9185 59.3148 93.9185 59.3148C93.9185 59.3148 93.1898 56.0583 91.0619 56.0583H87.1851C87.0976 57.0468 86.981 59.2275 86.9519 62.1933L89.6627 62.1642C91.1785 62.1351 91.5283 61.2047 91.5283 61.2047V63.7924C91.5283 63.7924 91.1202 62.862 89.6919 62.8039H86.981C87.0102 66.1185 87.1559 68.1247 87.2142 68.9679H91.1202C93.2189 68.9388 93.9477 65.6533 93.9477 65.6533C93.9477 65.6533 93.9768 67.2524 94.0643 68.1247C94.1809 68.8516 94.3849 69.7239 94.3849 69.7239C94.3849 69.7239 93.044 69.4913 91.2076 69.4913H84.4451C84.4451 69.4913 85.028 69.1714 85.0863 68.8516C85.1155 67.9793 85.2612 65.9731 85.2612 62.4549Z" fill="#F2F2F2"/>
<path d="M98.4949 62.6293V63.3561C98.4949 66.3219 98.6116 68.2118 98.7282 68.9678C98.7573 69.3167 99.3403 69.5202 99.3403 69.5202H95.959C95.959 69.5202 96.542 69.2295 96.6003 68.9096C96.6586 67.9792 96.8043 65.8857 96.8043 62.4839C96.8043 59.1111 96.6877 56.9304 96.542 55.8837C96.5128 55.6511 95.959 55.4475 95.959 55.4475H97.2707L100.739 55.4185C102.722 55.4185 104.354 57.0467 104.354 59.0238C104.354 61.001 102.751 62.6002 100.769 62.6002L98.4949 62.6293ZM99.7775 56.029C99.4277 56.029 99.0488 56.029 98.7282 56.0581C98.6699 57.0176 98.5241 59.1692 98.4949 62.0477H100.098C101.643 62.0477 102.926 60.5649 102.926 59.0529C102.926 57.5119 101.731 56.1163 100.215 56.0581L99.7775 56.029Z" fill="#F2F2F2"/>
<path d="M105.986 55.4475H107.298L110.796 55.4185C112.778 55.4185 114.41 57.0467 114.41 59.0238C114.41 60.3323 113.711 61.4662 112.661 62.1059C114.556 62.2803 116.043 63.8795 116.043 65.7985C116.043 67.8629 114.381 69.4911 112.312 69.4911H106.015C106.015 69.4911 106.598 69.1713 106.657 68.8515C106.744 67.892 106.861 65.8567 106.861 62.4548C106.861 59.082 106.832 56.9304 106.657 56.029C106.598 55.7674 105.986 55.4475 105.986 55.4475ZM109.834 56.029C109.484 56.029 109.105 56.0581 108.726 56.0581C108.668 57.0176 108.522 59.1402 108.493 62.0477H110.096C111.641 62.0477 112.924 60.5649 112.924 59.0238C112.924 57.4828 111.729 56.0872 110.213 56.029H109.834ZM111.67 62.6874C111.175 62.6583 110.534 62.6583 109.863 62.6583C109.397 62.6583 108.93 62.6874 108.522 62.6874C108.522 65.8276 108.639 67.8338 108.726 68.7933C109.688 68.8515 110.796 68.9678 111.583 68.9678C113.186 68.9678 114.498 67.4268 114.498 65.8276C114.498 64.2284 113.274 62.7746 111.67 62.6874Z" fill="#F2F2F2"/>
<path d="M118.316 62.4841C118.316 59.3148 118.229 57.0469 118.083 56.0583C118.025 55.7385 117.471 55.4768 117.471 55.4768H120.852C120.852 55.4768 120.269 55.7094 120.24 56.0583C120.182 57.0178 120.036 59.1695 120.007 62.077L123.767 62.1061C125.837 62.1061 127.498 63.7634 127.498 65.8278C127.498 67.8922 125.837 69.5495 123.767 69.5495L118.899 69.5786H117.471C117.471 69.5786 118.083 69.2297 118.112 68.9099C118.171 67.9213 118.316 65.8569 118.316 62.4841ZM122.66 62.6586C121.873 62.6586 120.823 62.7167 119.978 62.7749C119.978 65.8569 120.094 67.805 120.182 68.7645C121.144 68.8226 122.281 68.9099 123.068 68.9099C124.671 68.9099 125.983 67.3688 125.983 65.7697C125.983 64.1705 124.729 62.7167 123.126 62.6586C123.009 62.6876 122.835 62.6586 122.66 62.6586ZM131.958 69.4914H128.169C128.169 69.4914 128.985 68.9099 129.043 68.2993C129.131 67.1362 129.218 63.7344 129.218 60.7686C129.218 58.9368 129.189 57.3086 129.102 56.4945C129.043 55.8839 128.227 55.4478 128.227 55.4478H131.987C131.987 55.4478 131.171 55.7385 131.113 56.4363C130.996 57.5703 130.909 59.6637 130.909 62.455C130.909 65.3626 130.996 67.3398 131.084 68.4156C131.171 69.1425 131.958 69.4914 131.958 69.4914Z" fill="#F2F2F2"/>
<path d="M142.423 68.7061C142.423 68.6189 142.394 68.5316 142.364 68.4444C141.84 67.3105 140.849 65.3042 139.45 62.6293L136.068 68.5026C135.981 68.6479 135.952 68.7642 135.952 68.8806C135.952 69.3167 136.476 69.5202 136.476 69.5202H133.561C133.561 69.5202 134.436 69.3167 135.048 68.3863C135.806 67.2232 138.925 62.0768 139.041 61.9024C137.497 59.0529 136.36 57.163 135.777 56.2035C135.427 55.6801 134.698 55.4185 134.698 55.4185H138.371C138.371 55.4185 137.875 55.5638 137.875 56.029C137.875 56.1453 137.905 56.2617 137.963 56.378C138.313 57.163 138.954 58.4714 139.916 60.3613C141.024 58.4423 141.723 57.1339 142.073 56.4361C142.131 56.3198 142.16 56.2035 142.16 56.0872C142.16 55.5929 141.519 55.4185 141.519 55.4185H144.376C144.376 55.4185 143.472 55.6801 142.977 56.407L140.295 61.0882C140.528 61.5244 140.761 61.9605 141.024 62.4548C142.51 65.2461 143.764 67.3686 144.463 68.5026C144.9 69.2295 145.6 69.4911 145.6 69.4911H141.811C141.84 69.5202 142.423 69.1713 142.423 68.7061Z" fill="#F2F2F2"/>
<path d="M48.7082 62.5129C47.5131 62.5129 46.5512 63.4724 46.5512 64.6645C46.5512 63.4724 45.5893 62.5129 44.3942 62.5129C45.5893 62.5129 46.5512 61.5534 46.5804 60.3613C46.5512 61.5534 47.5131 62.5129 48.7082 62.5129Z" fill="#F2F2F2"/>
<defs>
<linearGradient id="paint0_linear_658_3104" x1="104.541" y1="78.2105" x2="124.82" y2="78.2105" gradientUnits="userSpaceOnUse">
<stop stop-color="#F2F2F2"/>
<stop offset="1" stop-color="#F2F2F2" stop-opacity="0"/>
</linearGradient>
<linearGradient id="paint1_linear_658_3104" x1="20.6199" y1="78.2105" x2="40.8988" y2="78.2105" gradientUnits="userSpaceOnUse">
<stop stop-color="#F2F2F2" stop-opacity="0"/>
<stop offset="1" stop-color="#F2F2F2"/>
</linearGradient>
<linearGradient id="paint2_linear_658_3104" x1="43.9289" y1="49.0401" x2="43.9289" y2="1.6419" gradientUnits="userSpaceOnUse">
<stop stop-color="#C4A27A"/>
<stop offset="1" stop-color="#DBBC9A"/>
</linearGradient>
<linearGradient id="paint3_linear_658_3104" x1="47.76" y1="49.0399" x2="47.76" y2="1.64167" gradientUnits="userSpaceOnUse">
<stop stop-color="#C4A27A"/>
<stop offset="1" stop-color="#DBBC9A"/>
</linearGradient>
<linearGradient id="paint4_linear_658_3104" x1="51.5913" y1="49.0396" x2="51.5913" y2="1.64143" gradientUnits="userSpaceOnUse">
<stop stop-color="#C4A27A"/>
<stop offset="1" stop-color="#DBBC9A"/>
</linearGradient>
<linearGradient id="paint5_linear_658_3104" x1="55.4225" y1="49.0399" x2="55.4225" y2="1.64168" gradientUnits="userSpaceOnUse">
<stop stop-color="#C4A27A"/>
<stop offset="1" stop-color="#DBBC9A"/>
</linearGradient>
<linearGradient id="paint6_linear_658_3104" x1="59.2537" y1="49.0402" x2="59.2537" y2="1.64193" gradientUnits="userSpaceOnUse">
<stop stop-color="#C4A27A"/>
<stop offset="1" stop-color="#DBBC9A"/>
</linearGradient>
<linearGradient id="paint7_linear_658_3104" x1="63.0849" y1="49.0399" x2="63.0849" y2="1.6417" gradientUnits="userSpaceOnUse">
<stop stop-color="#C4A27A"/>
<stop offset="1" stop-color="#DBBC9A"/>
</linearGradient>
<linearGradient id="paint8_linear_658_3104" x1="66.916" y1="49.0399" x2="66.916" y2="1.64171" gradientUnits="userSpaceOnUse">
<stop stop-color="#C4A27A"/>
<stop offset="1" stop-color="#DBBC9A"/>
</linearGradient>
<linearGradient id="paint9_linear_658_3104" x1="70.7472" y1="49.0397" x2="70.7472" y2="1.64148" gradientUnits="userSpaceOnUse">
<stop stop-color="#C4A27A"/>
<stop offset="1" stop-color="#DBBC9A"/>
</linearGradient>
<linearGradient id="paint10_linear_658_3104" x1="74.5785" y1="49.0397" x2="74.5785" y2="1.64148" gradientUnits="userSpaceOnUse">
<stop stop-color="#C4A27A"/>
<stop offset="1" stop-color="#DBBC9A"/>
</linearGradient>
<linearGradient id="paint11_linear_658_3104" x1="78.4096" y1="49.0397" x2="78.4096" y2="1.64148" gradientUnits="userSpaceOnUse">
<stop stop-color="#C4A27A"/>
<stop offset="1" stop-color="#DBBC9A"/>
</linearGradient>
<linearGradient id="paint12_linear_658_3104" x1="82.2409" y1="49.0397" x2="82.2409" y2="1.64148" gradientUnits="userSpaceOnUse">
<stop stop-color="#C4A27A"/>
<stop offset="1" stop-color="#DBBC9A"/>
</linearGradient>
<linearGradient id="paint13_linear_658_3104" x1="86.072" y1="49.04" x2="86.072" y2="1.64174" gradientUnits="userSpaceOnUse">
<stop stop-color="#C4A27A"/>
<stop offset="1" stop-color="#DBBC9A"/>
</linearGradient>
<linearGradient id="paint14_linear_658_3104" x1="89.9033" y1="49.04" x2="89.9033" y2="1.64174" gradientUnits="userSpaceOnUse">
<stop stop-color="#C4A27A"/>
<stop offset="1" stop-color="#DBBC9A"/>
</linearGradient>
<linearGradient id="paint15_linear_658_3104" x1="93.7345" y1="49.04" x2="93.7345" y2="1.64174" gradientUnits="userSpaceOnUse">
<stop stop-color="#C4A27A"/>
<stop offset="1" stop-color="#DBBC9A"/>
</linearGradient>
<linearGradient id="paint16_linear_658_3104" x1="97.5657" y1="49.0397" x2="97.5657" y2="1.64152" gradientUnits="userSpaceOnUse">
<stop stop-color="#C4A27A"/>
<stop offset="1" stop-color="#DBBC9A"/>
</linearGradient>
<linearGradient id="paint17_linear_658_3104" x1="101.397" y1="49.0397" x2="101.397" y2="1.64151" gradientUnits="userSpaceOnUse">
<stop stop-color="#C4A27A"/>
<stop offset="1" stop-color="#DBBC9A"/>
</linearGradient>
</defs>
</svg>
