<svg width="15" height="16" viewBox="0 0 15 16" fill="none" xmlns="http://www.w3.org/2000/svg">
<path d="M14.672 12.4637L14.5817 12.2858C14.3289 11.6986 11.2231 10.809 10.9703 10.7912L10.7717 10.809C10.3924 10.8801 9.97713 11.2182 9.1646 11.9121C9.00211 12.0544 8.78533 12.09 8.58671 11.9832C7.52137 11.396 6.22126 10.2217 5.57117 9.51006C4.86695 8.74506 4.01826 7.48174 3.62101 6.46752C3.54884 6.2718 3.62101 6.05833 3.76548 5.91599C4.68636 5.09748 5.08362 4.70618 5.11976 4.2791C5.13777 4.03002 4.59617 0.880779 4.03627 0.57831L3.87379 0.471575C3.51268 0.240238 2.97093 -0.097841 2.37505 0.0267684C2.23058 0.0623879 2.08611 0.115755 1.95977 0.18687C1.56264 0.436207 0.569471 1.11235 0.118044 1.98408C-0.152761 2.53561 -0.279212 7.53527 3.51278 11.752C7.26865 15.9332 11.9093 16.1111 12.5955 15.9688H12.6135L12.6677 15.9511C13.6067 15.613 14.4012 14.7412 14.7081 14.3675C15.2679 13.7093 14.8888 12.9085 14.672 12.4637Z" fill="white"/>
</svg>
